<?xml version="1.0"?>
<svg xmlns="http://www.w3.org/2000/svg" xmlns:xlink="http://www.w3.org/1999/xlink" version="1.1" width="500px" height="500px" viewBox="0 0 500 500"><defs><rect id="block" width="10.2040816327" height="10.2040816327" fill="#000000" fill-opacity="1"/></defs><rect x="0" y="0" width="500" height="500" fill="#ffffff" fill-opacity="1"/><use x="0.0000000000" y="0.0000000000" xlink:href="#block"/><use x="10.2040816327" y="0.0000000000" xlink:href="#block"/><use x="20.4081632653" y="0.0000000000" xlink:href="#block"/><use x="30.6122448980" y="0.0000000000" xlink:href="#block"/><use x="40.8163265306" y="0.0000000000" xlink:href="#block"/><use x="51.0204081633" y="0.0000000000" xlink:href="#block"/><use x="61.2244897959" y="0.0000000000" xlink:href="#block"/><use x="81.6326530612" y="0.0000000000" xlink:href="#block"/><use x="102.0408163265" y="0.0000000000" xlink:href="#block"/><use x="122.4489795918" y="0.0000000000" xlink:href="#block"/><use x="132.6530612245" y="0.0000000000" xlink:href="#block"/><use x="163.2653061224" y="0.0000000000" xlink:href="#block"/><use x="173.4693877551" y="0.0000000000" xlink:href="#block"/><use x="204.0816326531" y="0.0000000000" xlink:href="#block"/><use x="214.2857142857" y="0.0000000000" xlink:href="#block"/><use x="244.8979591837" y="0.0000000000" xlink:href="#block"/><use x="265.3061224490" y="0.0000000000" xlink:href="#block"/><use x="285.7142857143" y="0.0000000000" xlink:href="#block"/><use x="316.3265306122" y="0.0000000000" xlink:href="#block"/><use x="326.5306122449" y="0.0000000000" xlink:href="#block"/><use x="346.9387755102" y="0.0000000000" xlink:href="#block"/><use x="377.5510204082" y="0.0000000000" xlink:href="#block"/><use x="408.1632653061" y="0.0000000000" xlink:href="#block"/><use x="428.5714285714" y="0.0000000000" xlink:href="#block"/><use x="438.7755102041" y="0.0000000000" xlink:href="#block"/><use x="448.9795918367" y="0.0000000000" xlink:href="#block"/><use x="459.1836734694" y="0.0000000000" xlink:href="#block"/><use x="469.3877551020" y="0.0000000000" xlink:href="#block"/><use x="479.5918367347" y="0.0000000000" xlink:href="#block"/><use x="489.7959183673" y="0.0000000000" xlink:href="#block"/><use x="0.0000000000" y="10.2040816327" xlink:href="#block"/><use x="61.2244897959" y="10.2040816327" xlink:href="#block"/><use x="81.6326530612" y="10.2040816327" xlink:href="#block"/><use x="91.8367346939" y="10.2040816327" xlink:href="#block"/><use x="112.2448979592" y="10.2040816327" xlink:href="#block"/><use x="122.4489795918" y="10.2040816327" xlink:href="#block"/><use x="142.8571428571" y="10.2040816327" xlink:href="#block"/><use x="163.2653061224" y="10.2040816327" xlink:href="#block"/><use x="204.0816326531" y="10.2040816327" xlink:href="#block"/><use x="234.6938775510" y="10.2040816327" xlink:href="#block"/><use x="244.8979591837" y="10.2040816327" xlink:href="#block"/><use x="255.1020408163" y="10.2040816327" xlink:href="#block"/><use x="275.5102040816" y="10.2040816327" xlink:href="#block"/><use x="285.7142857143" y="10.2040816327" xlink:href="#block"/><use x="295.9183673469" y="10.2040816327" xlink:href="#block"/><use x="306.1224489796" y="10.2040816327" xlink:href="#block"/><use x="316.3265306122" y="10.2040816327" xlink:href="#block"/><use x="357.1428571429" y="10.2040816327" xlink:href="#block"/><use x="367.3469387755" y="10.2040816327" xlink:href="#block"/><use x="377.5510204082" y="10.2040816327" xlink:href="#block"/><use x="387.7551020408" y="10.2040816327" xlink:href="#block"/><use x="397.9591836735" y="10.2040816327" xlink:href="#block"/><use x="408.1632653061" y="10.2040816327" xlink:href="#block"/><use x="428.5714285714" y="10.2040816327" xlink:href="#block"/><use x="489.7959183673" y="10.2040816327" xlink:href="#block"/><use x="0.0000000000" y="20.4081632653" xlink:href="#block"/><use x="20.4081632653" y="20.4081632653" xlink:href="#block"/><use x="30.6122448980" y="20.4081632653" xlink:href="#block"/><use x="40.8163265306" y="20.4081632653" xlink:href="#block"/><use x="61.2244897959" y="20.4081632653" xlink:href="#block"/><use x="81.6326530612" y="20.4081632653" xlink:href="#block"/><use x="102.0408163265" y="20.4081632653" xlink:href="#block"/><use x="112.2448979592" y="20.4081632653" xlink:href="#block"/><use x="122.4489795918" y="20.4081632653" xlink:href="#block"/><use x="132.6530612245" y="20.4081632653" xlink:href="#block"/><use x="153.0612244898" y="20.4081632653" xlink:href="#block"/><use x="163.2653061224" y="20.4081632653" xlink:href="#block"/><use x="204.0816326531" y="20.4081632653" xlink:href="#block"/><use x="224.4897959184" y="20.4081632653" xlink:href="#block"/><use x="234.6938775510" y="20.4081632653" xlink:href="#block"/><use x="255.1020408163" y="20.4081632653" xlink:href="#block"/><use x="306.1224489796" y="20.4081632653" xlink:href="#block"/><use x="326.5306122449" y="20.4081632653" xlink:href="#block"/><use x="367.3469387755" y="20.4081632653" xlink:href="#block"/><use x="397.9591836735" y="20.4081632653" xlink:href="#block"/><use x="408.1632653061" y="20.4081632653" xlink:href="#block"/><use x="428.5714285714" y="20.4081632653" xlink:href="#block"/><use x="448.9795918367" y="20.4081632653" xlink:href="#block"/><use x="459.1836734694" y="20.4081632653" xlink:href="#block"/><use x="469.3877551020" y="20.4081632653" xlink:href="#block"/><use x="489.7959183673" y="20.4081632653" xlink:href="#block"/><use x="0.0000000000" y="30.6122448980" xlink:href="#block"/><use x="20.4081632653" y="30.6122448980" xlink:href="#block"/><use x="30.6122448980" y="30.6122448980" xlink:href="#block"/><use x="40.8163265306" y="30.6122448980" xlink:href="#block"/><use x="61.2244897959" y="30.6122448980" xlink:href="#block"/><use x="102.0408163265" y="30.6122448980" xlink:href="#block"/><use x="122.4489795918" y="30.6122448980" xlink:href="#block"/><use x="132.6530612245" y="30.6122448980" xlink:href="#block"/><use x="153.0612244898" y="30.6122448980" xlink:href="#block"/><use x="163.2653061224" y="30.6122448980" xlink:href="#block"/><use x="224.4897959184" y="30.6122448980" xlink:href="#block"/><use x="255.1020408163" y="30.6122448980" xlink:href="#block"/><use x="265.3061224490" y="30.6122448980" xlink:href="#block"/><use x="275.5102040816" y="30.6122448980" xlink:href="#block"/><use x="295.9183673469" y="30.6122448980" xlink:href="#block"/><use x="316.3265306122" y="30.6122448980" xlink:href="#block"/><use x="336.7346938776" y="30.6122448980" xlink:href="#block"/><use x="346.9387755102" y="30.6122448980" xlink:href="#block"/><use x="367.3469387755" y="30.6122448980" xlink:href="#block"/><use x="397.9591836735" y="30.6122448980" xlink:href="#block"/><use x="428.5714285714" y="30.6122448980" xlink:href="#block"/><use x="448.9795918367" y="30.6122448980" xlink:href="#block"/><use x="459.1836734694" y="30.6122448980" xlink:href="#block"/><use x="469.3877551020" y="30.6122448980" xlink:href="#block"/><use x="489.7959183673" y="30.6122448980" xlink:href="#block"/><use x="0.0000000000" y="40.8163265306" xlink:href="#block"/><use x="20.4081632653" y="40.8163265306" xlink:href="#block"/><use x="30.6122448980" y="40.8163265306" xlink:href="#block"/><use x="40.8163265306" y="40.8163265306" xlink:href="#block"/><use x="61.2244897959" y="40.8163265306" xlink:href="#block"/><use x="91.8367346939" y="40.8163265306" xlink:href="#block"/><use x="102.0408163265" y="40.8163265306" xlink:href="#block"/><use x="112.2448979592" y="40.8163265306" xlink:href="#block"/><use x="183.6734693878" y="40.8163265306" xlink:href="#block"/><use x="193.8775510204" y="40.8163265306" xlink:href="#block"/><use x="204.0816326531" y="40.8163265306" xlink:href="#block"/><use x="224.4897959184" y="40.8163265306" xlink:href="#block"/><use x="234.6938775510" y="40.8163265306" xlink:href="#block"/><use x="244.8979591837" y="40.8163265306" xlink:href="#block"/><use x="255.1020408163" y="40.8163265306" xlink:href="#block"/><use x="265.3061224490" y="40.8163265306" xlink:href="#block"/><use x="275.5102040816" y="40.8163265306" xlink:href="#block"/><use x="285.7142857143" y="40.8163265306" xlink:href="#block"/><use x="295.9183673469" y="40.8163265306" xlink:href="#block"/><use x="326.5306122449" y="40.8163265306" xlink:href="#block"/><use x="357.1428571429" y="40.8163265306" xlink:href="#block"/><use x="428.5714285714" y="40.8163265306" xlink:href="#block"/><use x="448.9795918367" y="40.8163265306" xlink:href="#block"/><use x="459.1836734694" y="40.8163265306" xlink:href="#block"/><use x="469.3877551020" y="40.8163265306" xlink:href="#block"/><use x="489.7959183673" y="40.8163265306" xlink:href="#block"/><use x="0.0000000000" y="51.0204081633" xlink:href="#block"/><use x="61.2244897959" y="51.0204081633" xlink:href="#block"/><use x="81.6326530612" y="51.0204081633" xlink:href="#block"/><use x="102.0408163265" y="51.0204081633" xlink:href="#block"/><use x="112.2448979592" y="51.0204081633" xlink:href="#block"/><use x="122.4489795918" y="51.0204081633" xlink:href="#block"/><use x="142.8571428571" y="51.0204081633" xlink:href="#block"/><use x="173.4693877551" y="51.0204081633" xlink:href="#block"/><use x="193.8775510204" y="51.0204081633" xlink:href="#block"/><use x="204.0816326531" y="51.0204081633" xlink:href="#block"/><use x="224.4897959184" y="51.0204081633" xlink:href="#block"/><use x="265.3061224490" y="51.0204081633" xlink:href="#block"/><use x="285.7142857143" y="51.0204081633" xlink:href="#block"/><use x="295.9183673469" y="51.0204081633" xlink:href="#block"/><use x="316.3265306122" y="51.0204081633" xlink:href="#block"/><use x="357.1428571429" y="51.0204081633" xlink:href="#block"/><use x="367.3469387755" y="51.0204081633" xlink:href="#block"/><use x="387.7551020408" y="51.0204081633" xlink:href="#block"/><use x="428.5714285714" y="51.0204081633" xlink:href="#block"/><use x="489.7959183673" y="51.0204081633" xlink:href="#block"/><use x="0.0000000000" y="61.2244897959" xlink:href="#block"/><use x="10.2040816327" y="61.2244897959" xlink:href="#block"/><use x="20.4081632653" y="61.2244897959" xlink:href="#block"/><use x="30.6122448980" y="61.2244897959" xlink:href="#block"/><use x="40.8163265306" y="61.2244897959" xlink:href="#block"/><use x="51.0204081633" y="61.2244897959" xlink:href="#block"/><use x="61.2244897959" y="61.2244897959" xlink:href="#block"/><use x="81.6326530612" y="61.2244897959" xlink:href="#block"/><use x="102.0408163265" y="61.2244897959" xlink:href="#block"/><use x="122.4489795918" y="61.2244897959" xlink:href="#block"/><use x="142.8571428571" y="61.2244897959" xlink:href="#block"/><use x="163.2653061224" y="61.2244897959" xlink:href="#block"/><use x="183.6734693878" y="61.2244897959" xlink:href="#block"/><use x="204.0816326531" y="61.2244897959" xlink:href="#block"/><use x="224.4897959184" y="61.2244897959" xlink:href="#block"/><use x="244.8979591837" y="61.2244897959" xlink:href="#block"/><use x="265.3061224490" y="61.2244897959" xlink:href="#block"/><use x="285.7142857143" y="61.2244897959" xlink:href="#block"/><use x="306.1224489796" y="61.2244897959" xlink:href="#block"/><use x="326.5306122449" y="61.2244897959" xlink:href="#block"/><use x="346.9387755102" y="61.2244897959" xlink:href="#block"/><use x="367.3469387755" y="61.2244897959" xlink:href="#block"/><use x="387.7551020408" y="61.2244897959" xlink:href="#block"/><use x="408.1632653061" y="61.2244897959" xlink:href="#block"/><use x="428.5714285714" y="61.2244897959" xlink:href="#block"/><use x="438.7755102041" y="61.2244897959" xlink:href="#block"/><use x="448.9795918367" y="61.2244897959" xlink:href="#block"/><use x="459.1836734694" y="61.2244897959" xlink:href="#block"/><use x="469.3877551020" y="61.2244897959" xlink:href="#block"/><use x="479.5918367347" y="61.2244897959" xlink:href="#block"/><use x="489.7959183673" y="61.2244897959" xlink:href="#block"/><use x="81.6326530612" y="71.4285714286" xlink:href="#block"/><use x="112.2448979592" y="71.4285714286" xlink:href="#block"/><use x="142.8571428571" y="71.4285714286" xlink:href="#block"/><use x="163.2653061224" y="71.4285714286" xlink:href="#block"/><use x="183.6734693878" y="71.4285714286" xlink:href="#block"/><use x="214.2857142857" y="71.4285714286" xlink:href="#block"/><use x="224.4897959184" y="71.4285714286" xlink:href="#block"/><use x="265.3061224490" y="71.4285714286" xlink:href="#block"/><use x="275.5102040816" y="71.4285714286" xlink:href="#block"/><use x="306.1224489796" y="71.4285714286" xlink:href="#block"/><use x="326.5306122449" y="71.4285714286" xlink:href="#block"/><use x="357.1428571429" y="71.4285714286" xlink:href="#block"/><use x="367.3469387755" y="71.4285714286" xlink:href="#block"/><use x="377.5510204082" y="71.4285714286" xlink:href="#block"/><use x="20.4081632653" y="81.6326530612" xlink:href="#block"/><use x="30.6122448980" y="81.6326530612" xlink:href="#block"/><use x="40.8163265306" y="81.6326530612" xlink:href="#block"/><use x="61.2244897959" y="81.6326530612" xlink:href="#block"/><use x="81.6326530612" y="81.6326530612" xlink:href="#block"/><use x="91.8367346939" y="81.6326530612" xlink:href="#block"/><use x="102.0408163265" y="81.6326530612" xlink:href="#block"/><use x="112.2448979592" y="81.6326530612" xlink:href="#block"/><use x="153.0612244898" y="81.6326530612" xlink:href="#block"/><use x="204.0816326531" y="81.6326530612" xlink:href="#block"/><use x="214.2857142857" y="81.6326530612" xlink:href="#block"/><use x="224.4897959184" y="81.6326530612" xlink:href="#block"/><use x="234.6938775510" y="81.6326530612" xlink:href="#block"/><use x="244.8979591837" y="81.6326530612" xlink:href="#block"/><use x="255.1020408163" y="81.6326530612" xlink:href="#block"/><use x="265.3061224490" y="81.6326530612" xlink:href="#block"/><use x="285.7142857143" y="81.6326530612" xlink:href="#block"/><use x="295.9183673469" y="81.6326530612" xlink:href="#block"/><use x="316.3265306122" y="81.6326530612" xlink:href="#block"/><use x="336.7346938776" y="81.6326530612" xlink:href="#block"/><use x="346.9387755102" y="81.6326530612" xlink:href="#block"/><use x="367.3469387755" y="81.6326530612" xlink:href="#block"/><use x="387.7551020408" y="81.6326530612" xlink:href="#block"/><use x="418.3673469388" y="81.6326530612" xlink:href="#block"/><use x="428.5714285714" y="81.6326530612" xlink:href="#block"/><use x="438.7755102041" y="81.6326530612" xlink:href="#block"/><use x="469.3877551020" y="81.6326530612" xlink:href="#block"/><use x="479.5918367347" y="81.6326530612" xlink:href="#block"/><use x="489.7959183673" y="81.6326530612" xlink:href="#block"/><use x="0.0000000000" y="91.8367346939" xlink:href="#block"/><use x="10.2040816327" y="91.8367346939" xlink:href="#block"/><use x="51.0204081633" y="91.8367346939" xlink:href="#block"/><use x="81.6326530612" y="91.8367346939" xlink:href="#block"/><use x="91.8367346939" y="91.8367346939" xlink:href="#block"/><use x="102.0408163265" y="91.8367346939" xlink:href="#block"/><use x="122.4489795918" y="91.8367346939" xlink:href="#block"/><use x="153.0612244898" y="91.8367346939" xlink:href="#block"/><use x="173.4693877551" y="91.8367346939" xlink:href="#block"/><use x="193.8775510204" y="91.8367346939" xlink:href="#block"/><use x="204.0816326531" y="91.8367346939" xlink:href="#block"/><use x="224.4897959184" y="91.8367346939" xlink:href="#block"/><use x="244.8979591837" y="91.8367346939" xlink:href="#block"/><use x="255.1020408163" y="91.8367346939" xlink:href="#block"/><use x="275.5102040816" y="91.8367346939" xlink:href="#block"/><use x="285.7142857143" y="91.8367346939" xlink:href="#block"/><use x="316.3265306122" y="91.8367346939" xlink:href="#block"/><use x="326.5306122449" y="91.8367346939" xlink:href="#block"/><use x="357.1428571429" y="91.8367346939" xlink:href="#block"/><use x="367.3469387755" y="91.8367346939" xlink:href="#block"/><use x="448.9795918367" y="91.8367346939" xlink:href="#block"/><use x="489.7959183673" y="91.8367346939" xlink:href="#block"/><use x="10.2040816327" y="102.0408163265" xlink:href="#block"/><use x="30.6122448980" y="102.0408163265" xlink:href="#block"/><use x="61.2244897959" y="102.0408163265" xlink:href="#block"/><use x="71.4285714286" y="102.0408163265" xlink:href="#block"/><use x="91.8367346939" y="102.0408163265" xlink:href="#block"/><use x="102.0408163265" y="102.0408163265" xlink:href="#block"/><use x="122.4489795918" y="102.0408163265" xlink:href="#block"/><use x="132.6530612245" y="102.0408163265" xlink:href="#block"/><use x="163.2653061224" y="102.0408163265" xlink:href="#block"/><use x="173.4693877551" y="102.0408163265" xlink:href="#block"/><use x="193.8775510204" y="102.0408163265" xlink:href="#block"/><use x="244.8979591837" y="102.0408163265" xlink:href="#block"/><use x="255.1020408163" y="102.0408163265" xlink:href="#block"/><use x="275.5102040816" y="102.0408163265" xlink:href="#block"/><use x="306.1224489796" y="102.0408163265" xlink:href="#block"/><use x="316.3265306122" y="102.0408163265" xlink:href="#block"/><use x="367.3469387755" y="102.0408163265" xlink:href="#block"/><use x="377.5510204082" y="102.0408163265" xlink:href="#block"/><use x="387.7551020408" y="102.0408163265" xlink:href="#block"/><use x="397.9591836735" y="102.0408163265" xlink:href="#block"/><use x="408.1632653061" y="102.0408163265" xlink:href="#block"/><use x="418.3673469388" y="102.0408163265" xlink:href="#block"/><use x="428.5714285714" y="102.0408163265" xlink:href="#block"/><use x="438.7755102041" y="102.0408163265" xlink:href="#block"/><use x="459.1836734694" y="102.0408163265" xlink:href="#block"/><use x="469.3877551020" y="102.0408163265" xlink:href="#block"/><use x="479.5918367347" y="102.0408163265" xlink:href="#block"/><use x="10.2040816327" y="112.2448979592" xlink:href="#block"/><use x="102.0408163265" y="112.2448979592" xlink:href="#block"/><use x="132.6530612245" y="112.2448979592" xlink:href="#block"/><use x="173.4693877551" y="112.2448979592" xlink:href="#block"/><use x="183.6734693878" y="112.2448979592" xlink:href="#block"/><use x="244.8979591837" y="112.2448979592" xlink:href="#block"/><use x="265.3061224490" y="112.2448979592" xlink:href="#block"/><use x="275.5102040816" y="112.2448979592" xlink:href="#block"/><use x="285.7142857143" y="112.2448979592" xlink:href="#block"/><use x="295.9183673469" y="112.2448979592" xlink:href="#block"/><use x="357.1428571429" y="112.2448979592" xlink:href="#block"/><use x="367.3469387755" y="112.2448979592" xlink:href="#block"/><use x="377.5510204082" y="112.2448979592" xlink:href="#block"/><use x="418.3673469388" y="112.2448979592" xlink:href="#block"/><use x="428.5714285714" y="112.2448979592" xlink:href="#block"/><use x="438.7755102041" y="112.2448979592" xlink:href="#block"/><use x="448.9795918367" y="112.2448979592" xlink:href="#block"/><use x="469.3877551020" y="112.2448979592" xlink:href="#block"/><use x="0.0000000000" y="122.4489795918" xlink:href="#block"/><use x="20.4081632653" y="122.4489795918" xlink:href="#block"/><use x="61.2244897959" y="122.4489795918" xlink:href="#block"/><use x="71.4285714286" y="122.4489795918" xlink:href="#block"/><use x="91.8367346939" y="122.4489795918" xlink:href="#block"/><use x="132.6530612245" y="122.4489795918" xlink:href="#block"/><use x="142.8571428571" y="122.4489795918" xlink:href="#block"/><use x="163.2653061224" y="122.4489795918" xlink:href="#block"/><use x="183.6734693878" y="122.4489795918" xlink:href="#block"/><use x="204.0816326531" y="122.4489795918" xlink:href="#block"/><use x="214.2857142857" y="122.4489795918" xlink:href="#block"/><use x="234.6938775510" y="122.4489795918" xlink:href="#block"/><use x="285.7142857143" y="122.4489795918" xlink:href="#block"/><use x="295.9183673469" y="122.4489795918" xlink:href="#block"/><use x="336.7346938776" y="122.4489795918" xlink:href="#block"/><use x="346.9387755102" y="122.4489795918" xlink:href="#block"/><use x="377.5510204082" y="122.4489795918" xlink:href="#block"/><use x="387.7551020408" y="122.4489795918" xlink:href="#block"/><use x="408.1632653061" y="122.4489795918" xlink:href="#block"/><use x="438.7755102041" y="122.4489795918" xlink:href="#block"/><use x="448.9795918367" y="122.4489795918" xlink:href="#block"/><use x="479.5918367347" y="122.4489795918" xlink:href="#block"/><use x="489.7959183673" y="122.4489795918" xlink:href="#block"/><use x="10.2040816327" y="132.6530612245" xlink:href="#block"/><use x="20.4081632653" y="132.6530612245" xlink:href="#block"/><use x="30.6122448980" y="132.6530612245" xlink:href="#block"/><use x="51.0204081633" y="132.6530612245" xlink:href="#block"/><use x="71.4285714286" y="132.6530612245" xlink:href="#block"/><use x="81.6326530612" y="132.6530612245" xlink:href="#block"/><use x="91.8367346939" y="132.6530612245" xlink:href="#block"/><use x="102.0408163265" y="132.6530612245" xlink:href="#block"/><use x="112.2448979592" y="132.6530612245" xlink:href="#block"/><use x="122.4489795918" y="132.6530612245" xlink:href="#block"/><use x="153.0612244898" y="132.6530612245" xlink:href="#block"/><use x="163.2653061224" y="132.6530612245" xlink:href="#block"/><use x="173.4693877551" y="132.6530612245" xlink:href="#block"/><use x="193.8775510204" y="132.6530612245" xlink:href="#block"/><use x="204.0816326531" y="132.6530612245" xlink:href="#block"/><use x="214.2857142857" y="132.6530612245" xlink:href="#block"/><use x="244.8979591837" y="132.6530612245" xlink:href="#block"/><use x="275.5102040816" y="132.6530612245" xlink:href="#block"/><use x="285.7142857143" y="132.6530612245" xlink:href="#block"/><use x="326.5306122449" y="132.6530612245" xlink:href="#block"/><use x="346.9387755102" y="132.6530612245" xlink:href="#block"/><use x="377.5510204082" y="132.6530612245" xlink:href="#block"/><use x="397.9591836735" y="132.6530612245" xlink:href="#block"/><use x="428.5714285714" y="132.6530612245" xlink:href="#block"/><use x="448.9795918367" y="132.6530612245" xlink:href="#block"/><use x="469.3877551020" y="132.6530612245" xlink:href="#block"/><use x="479.5918367347" y="132.6530612245" xlink:href="#block"/><use x="0.0000000000" y="142.8571428571" xlink:href="#block"/><use x="20.4081632653" y="142.8571428571" xlink:href="#block"/><use x="30.6122448980" y="142.8571428571" xlink:href="#block"/><use x="40.8163265306" y="142.8571428571" xlink:href="#block"/><use x="61.2244897959" y="142.8571428571" xlink:href="#block"/><use x="81.6326530612" y="142.8571428571" xlink:href="#block"/><use x="153.0612244898" y="142.8571428571" xlink:href="#block"/><use x="193.8775510204" y="142.8571428571" xlink:href="#block"/><use x="204.0816326531" y="142.8571428571" xlink:href="#block"/><use x="214.2857142857" y="142.8571428571" xlink:href="#block"/><use x="224.4897959184" y="142.8571428571" xlink:href="#block"/><use x="255.1020408163" y="142.8571428571" xlink:href="#block"/><use x="265.3061224490" y="142.8571428571" xlink:href="#block"/><use x="295.9183673469" y="142.8571428571" xlink:href="#block"/><use x="316.3265306122" y="142.8571428571" xlink:href="#block"/><use x="326.5306122449" y="142.8571428571" xlink:href="#block"/><use x="336.7346938776" y="142.8571428571" xlink:href="#block"/><use x="346.9387755102" y="142.8571428571" xlink:href="#block"/><use x="357.1428571429" y="142.8571428571" xlink:href="#block"/><use x="367.3469387755" y="142.8571428571" xlink:href="#block"/><use x="377.5510204082" y="142.8571428571" xlink:href="#block"/><use x="408.1632653061" y="142.8571428571" xlink:href="#block"/><use x="418.3673469388" y="142.8571428571" xlink:href="#block"/><use x="459.1836734694" y="142.8571428571" xlink:href="#block"/><use x="469.3877551020" y="142.8571428571" xlink:href="#block"/><use x="479.5918367347" y="142.8571428571" xlink:href="#block"/><use x="10.2040816327" y="153.0612244898" xlink:href="#block"/><use x="40.8163265306" y="153.0612244898" xlink:href="#block"/><use x="51.0204081633" y="153.0612244898" xlink:href="#block"/><use x="71.4285714286" y="153.0612244898" xlink:href="#block"/><use x="81.6326530612" y="153.0612244898" xlink:href="#block"/><use x="112.2448979592" y="153.0612244898" xlink:href="#block"/><use x="132.6530612245" y="153.0612244898" xlink:href="#block"/><use x="142.8571428571" y="153.0612244898" xlink:href="#block"/><use x="153.0612244898" y="153.0612244898" xlink:href="#block"/><use x="163.2653061224" y="153.0612244898" xlink:href="#block"/><use x="173.4693877551" y="153.0612244898" xlink:href="#block"/><use x="193.8775510204" y="153.0612244898" xlink:href="#block"/><use x="204.0816326531" y="153.0612244898" xlink:href="#block"/><use x="234.6938775510" y="153.0612244898" xlink:href="#block"/><use x="265.3061224490" y="153.0612244898" xlink:href="#block"/><use x="275.5102040816" y="153.0612244898" xlink:href="#block"/><use x="285.7142857143" y="153.0612244898" xlink:href="#block"/><use x="295.9183673469" y="153.0612244898" xlink:href="#block"/><use x="306.1224489796" y="153.0612244898" xlink:href="#block"/><use x="346.9387755102" y="153.0612244898" xlink:href="#block"/><use x="377.5510204082" y="153.0612244898" xlink:href="#block"/><use x="387.7551020408" y="153.0612244898" xlink:href="#block"/><use x="428.5714285714" y="153.0612244898" xlink:href="#block"/><use x="438.7755102041" y="153.0612244898" xlink:href="#block"/><use x="448.9795918367" y="153.0612244898" xlink:href="#block"/><use x="469.3877551020" y="153.0612244898" xlink:href="#block"/><use x="10.2040816327" y="163.2653061224" xlink:href="#block"/><use x="30.6122448980" y="163.2653061224" xlink:href="#block"/><use x="40.8163265306" y="163.2653061224" xlink:href="#block"/><use x="61.2244897959" y="163.2653061224" xlink:href="#block"/><use x="112.2448979592" y="163.2653061224" xlink:href="#block"/><use x="122.4489795918" y="163.2653061224" xlink:href="#block"/><use x="204.0816326531" y="163.2653061224" xlink:href="#block"/><use x="214.2857142857" y="163.2653061224" xlink:href="#block"/><use x="224.4897959184" y="163.2653061224" xlink:href="#block"/><use x="255.1020408163" y="163.2653061224" xlink:href="#block"/><use x="265.3061224490" y="163.2653061224" xlink:href="#block"/><use x="285.7142857143" y="163.2653061224" xlink:href="#block"/><use x="326.5306122449" y="163.2653061224" xlink:href="#block"/><use x="336.7346938776" y="163.2653061224" xlink:href="#block"/><use x="346.9387755102" y="163.2653061224" xlink:href="#block"/><use x="357.1428571429" y="163.2653061224" xlink:href="#block"/><use x="387.7551020408" y="163.2653061224" xlink:href="#block"/><use x="418.3673469388" y="163.2653061224" xlink:href="#block"/><use x="428.5714285714" y="163.2653061224" xlink:href="#block"/><use x="438.7755102041" y="163.2653061224" xlink:href="#block"/><use x="448.9795918367" y="163.2653061224" xlink:href="#block"/><use x="459.1836734694" y="163.2653061224" xlink:href="#block"/><use x="479.5918367347" y="163.2653061224" xlink:href="#block"/><use x="489.7959183673" y="163.2653061224" xlink:href="#block"/><use x="20.4081632653" y="173.4693877551" xlink:href="#block"/><use x="51.0204081633" y="173.4693877551" xlink:href="#block"/><use x="71.4285714286" y="173.4693877551" xlink:href="#block"/><use x="81.6326530612" y="173.4693877551" xlink:href="#block"/><use x="132.6530612245" y="173.4693877551" xlink:href="#block"/><use x="142.8571428571" y="173.4693877551" xlink:href="#block"/><use x="153.0612244898" y="173.4693877551" xlink:href="#block"/><use x="183.6734693878" y="173.4693877551" xlink:href="#block"/><use x="193.8775510204" y="173.4693877551" xlink:href="#block"/><use x="204.0816326531" y="173.4693877551" xlink:href="#block"/><use x="214.2857142857" y="173.4693877551" xlink:href="#block"/><use x="224.4897959184" y="173.4693877551" xlink:href="#block"/><use x="275.5102040816" y="173.4693877551" xlink:href="#block"/><use x="316.3265306122" y="173.4693877551" xlink:href="#block"/><use x="346.9387755102" y="173.4693877551" xlink:href="#block"/><use x="377.5510204082" y="173.4693877551" xlink:href="#block"/><use x="387.7551020408" y="173.4693877551" xlink:href="#block"/><use x="397.9591836735" y="173.4693877551" xlink:href="#block"/><use x="428.5714285714" y="173.4693877551" xlink:href="#block"/><use x="448.9795918367" y="173.4693877551" xlink:href="#block"/><use x="0.0000000000" y="183.6734693878" xlink:href="#block"/><use x="10.2040816327" y="183.6734693878" xlink:href="#block"/><use x="30.6122448980" y="183.6734693878" xlink:href="#block"/><use x="51.0204081633" y="183.6734693878" xlink:href="#block"/><use x="61.2244897959" y="183.6734693878" xlink:href="#block"/><use x="71.4285714286" y="183.6734693878" xlink:href="#block"/><use x="91.8367346939" y="183.6734693878" xlink:href="#block"/><use x="102.0408163265" y="183.6734693878" xlink:href="#block"/><use x="112.2448979592" y="183.6734693878" xlink:href="#block"/><use x="163.2653061224" y="183.6734693878" xlink:href="#block"/><use x="193.8775510204" y="183.6734693878" xlink:href="#block"/><use x="224.4897959184" y="183.6734693878" xlink:href="#block"/><use x="234.6938775510" y="183.6734693878" xlink:href="#block"/><use x="255.1020408163" y="183.6734693878" xlink:href="#block"/><use x="295.9183673469" y="183.6734693878" xlink:href="#block"/><use x="306.1224489796" y="183.6734693878" xlink:href="#block"/><use x="336.7346938776" y="183.6734693878" xlink:href="#block"/><use x="367.3469387755" y="183.6734693878" xlink:href="#block"/><use x="418.3673469388" y="183.6734693878" xlink:href="#block"/><use x="428.5714285714" y="183.6734693878" xlink:href="#block"/><use x="438.7755102041" y="183.6734693878" xlink:href="#block"/><use x="459.1836734694" y="183.6734693878" xlink:href="#block"/><use x="479.5918367347" y="183.6734693878" xlink:href="#block"/><use x="10.2040816327" y="193.8775510204" xlink:href="#block"/><use x="20.4081632653" y="193.8775510204" xlink:href="#block"/><use x="30.6122448980" y="193.8775510204" xlink:href="#block"/><use x="71.4285714286" y="193.8775510204" xlink:href="#block"/><use x="91.8367346939" y="193.8775510204" xlink:href="#block"/><use x="102.0408163265" y="193.8775510204" xlink:href="#block"/><use x="122.4489795918" y="193.8775510204" xlink:href="#block"/><use x="142.8571428571" y="193.8775510204" xlink:href="#block"/><use x="173.4693877551" y="193.8775510204" xlink:href="#block"/><use x="183.6734693878" y="193.8775510204" xlink:href="#block"/><use x="234.6938775510" y="193.8775510204" xlink:href="#block"/><use x="255.1020408163" y="193.8775510204" xlink:href="#block"/><use x="285.7142857143" y="193.8775510204" xlink:href="#block"/><use x="295.9183673469" y="193.8775510204" xlink:href="#block"/><use x="316.3265306122" y="193.8775510204" xlink:href="#block"/><use x="326.5306122449" y="193.8775510204" xlink:href="#block"/><use x="367.3469387755" y="193.8775510204" xlink:href="#block"/><use x="397.9591836735" y="193.8775510204" xlink:href="#block"/><use x="418.3673469388" y="193.8775510204" xlink:href="#block"/><use x="428.5714285714" y="193.8775510204" xlink:href="#block"/><use x="459.1836734694" y="193.8775510204" xlink:href="#block"/><use x="0.0000000000" y="204.0816326531" xlink:href="#block"/><use x="40.8163265306" y="204.0816326531" xlink:href="#block"/><use x="51.0204081633" y="204.0816326531" xlink:href="#block"/><use x="61.2244897959" y="204.0816326531" xlink:href="#block"/><use x="81.6326530612" y="204.0816326531" xlink:href="#block"/><use x="91.8367346939" y="204.0816326531" xlink:href="#block"/><use x="102.0408163265" y="204.0816326531" xlink:href="#block"/><use x="122.4489795918" y="204.0816326531" xlink:href="#block"/><use x="173.4693877551" y="204.0816326531" xlink:href="#block"/><use x="183.6734693878" y="204.0816326531" xlink:href="#block"/><use x="193.8775510204" y="204.0816326531" xlink:href="#block"/><use x="224.4897959184" y="204.0816326531" xlink:href="#block"/><use x="234.6938775510" y="204.0816326531" xlink:href="#block"/><use x="255.1020408163" y="204.0816326531" xlink:href="#block"/><use x="275.5102040816" y="204.0816326531" xlink:href="#block"/><use x="285.7142857143" y="204.0816326531" xlink:href="#block"/><use x="295.9183673469" y="204.0816326531" xlink:href="#block"/><use x="336.7346938776" y="204.0816326531" xlink:href="#block"/><use x="346.9387755102" y="204.0816326531" xlink:href="#block"/><use x="357.1428571429" y="204.0816326531" xlink:href="#block"/><use x="367.3469387755" y="204.0816326531" xlink:href="#block"/><use x="377.5510204082" y="204.0816326531" xlink:href="#block"/><use x="387.7551020408" y="204.0816326531" xlink:href="#block"/><use x="408.1632653061" y="204.0816326531" xlink:href="#block"/><use x="418.3673469388" y="204.0816326531" xlink:href="#block"/><use x="438.7755102041" y="204.0816326531" xlink:href="#block"/><use x="459.1836734694" y="204.0816326531" xlink:href="#block"/><use x="469.3877551020" y="204.0816326531" xlink:href="#block"/><use x="489.7959183673" y="204.0816326531" xlink:href="#block"/><use x="0.0000000000" y="214.2857142857" xlink:href="#block"/><use x="10.2040816327" y="214.2857142857" xlink:href="#block"/><use x="40.8163265306" y="214.2857142857" xlink:href="#block"/><use x="81.6326530612" y="214.2857142857" xlink:href="#block"/><use x="91.8367346939" y="214.2857142857" xlink:href="#block"/><use x="102.0408163265" y="214.2857142857" xlink:href="#block"/><use x="112.2448979592" y="214.2857142857" xlink:href="#block"/><use x="122.4489795918" y="214.2857142857" xlink:href="#block"/><use x="132.6530612245" y="214.2857142857" xlink:href="#block"/><use x="153.0612244898" y="214.2857142857" xlink:href="#block"/><use x="163.2653061224" y="214.2857142857" xlink:href="#block"/><use x="173.4693877551" y="214.2857142857" xlink:href="#block"/><use x="193.8775510204" y="214.2857142857" xlink:href="#block"/><use x="204.0816326531" y="214.2857142857" xlink:href="#block"/><use x="224.4897959184" y="214.2857142857" xlink:href="#block"/><use x="234.6938775510" y="214.2857142857" xlink:href="#block"/><use x="244.8979591837" y="214.2857142857" xlink:href="#block"/><use x="255.1020408163" y="214.2857142857" xlink:href="#block"/><use x="285.7142857143" y="214.2857142857" xlink:href="#block"/><use x="346.9387755102" y="214.2857142857" xlink:href="#block"/><use x="387.7551020408" y="214.2857142857" xlink:href="#block"/><use x="408.1632653061" y="214.2857142857" xlink:href="#block"/><use x="418.3673469388" y="214.2857142857" xlink:href="#block"/><use x="428.5714285714" y="214.2857142857" xlink:href="#block"/><use x="438.7755102041" y="214.2857142857" xlink:href="#block"/><use x="448.9795918367" y="214.2857142857" xlink:href="#block"/><use x="489.7959183673" y="214.2857142857" xlink:href="#block"/><use x="10.2040816327" y="224.4897959184" xlink:href="#block"/><use x="40.8163265306" y="224.4897959184" xlink:href="#block"/><use x="51.0204081633" y="224.4897959184" xlink:href="#block"/><use x="61.2244897959" y="224.4897959184" xlink:href="#block"/><use x="71.4285714286" y="224.4897959184" xlink:href="#block"/><use x="81.6326530612" y="224.4897959184" xlink:href="#block"/><use x="91.8367346939" y="224.4897959184" xlink:href="#block"/><use x="112.2448979592" y="224.4897959184" xlink:href="#block"/><use x="142.8571428571" y="224.4897959184" xlink:href="#block"/><use x="173.4693877551" y="224.4897959184" xlink:href="#block"/><use x="183.6734693878" y="224.4897959184" xlink:href="#block"/><use x="214.2857142857" y="224.4897959184" xlink:href="#block"/><use x="224.4897959184" y="224.4897959184" xlink:href="#block"/><use x="234.6938775510" y="224.4897959184" xlink:href="#block"/><use x="244.8979591837" y="224.4897959184" xlink:href="#block"/><use x="255.1020408163" y="224.4897959184" xlink:href="#block"/><use x="265.3061224490" y="224.4897959184" xlink:href="#block"/><use x="295.9183673469" y="224.4897959184" xlink:href="#block"/><use x="306.1224489796" y="224.4897959184" xlink:href="#block"/><use x="336.7346938776" y="224.4897959184" xlink:href="#block"/><use x="357.1428571429" y="224.4897959184" xlink:href="#block"/><use x="367.3469387755" y="224.4897959184" xlink:href="#block"/><use x="387.7551020408" y="224.4897959184" xlink:href="#block"/><use x="397.9591836735" y="224.4897959184" xlink:href="#block"/><use x="408.1632653061" y="224.4897959184" xlink:href="#block"/><use x="418.3673469388" y="224.4897959184" xlink:href="#block"/><use x="428.5714285714" y="224.4897959184" xlink:href="#block"/><use x="438.7755102041" y="224.4897959184" xlink:href="#block"/><use x="448.9795918367" y="224.4897959184" xlink:href="#block"/><use x="459.1836734694" y="224.4897959184" xlink:href="#block"/><use x="469.3877551020" y="224.4897959184" xlink:href="#block"/><use x="479.5918367347" y="224.4897959184" xlink:href="#block"/><use x="489.7959183673" y="224.4897959184" xlink:href="#block"/><use x="10.2040816327" y="234.6938775510" xlink:href="#block"/><use x="20.4081632653" y="234.6938775510" xlink:href="#block"/><use x="30.6122448980" y="234.6938775510" xlink:href="#block"/><use x="40.8163265306" y="234.6938775510" xlink:href="#block"/><use x="81.6326530612" y="234.6938775510" xlink:href="#block"/><use x="102.0408163265" y="234.6938775510" xlink:href="#block"/><use x="112.2448979592" y="234.6938775510" xlink:href="#block"/><use x="142.8571428571" y="234.6938775510" xlink:href="#block"/><use x="153.0612244898" y="234.6938775510" xlink:href="#block"/><use x="204.0816326531" y="234.6938775510" xlink:href="#block"/><use x="224.4897959184" y="234.6938775510" xlink:href="#block"/><use x="265.3061224490" y="234.6938775510" xlink:href="#block"/><use x="316.3265306122" y="234.6938775510" xlink:href="#block"/><use x="336.7346938776" y="234.6938775510" xlink:href="#block"/><use x="357.1428571429" y="234.6938775510" xlink:href="#block"/><use x="408.1632653061" y="234.6938775510" xlink:href="#block"/><use x="448.9795918367" y="234.6938775510" xlink:href="#block"/><use x="10.2040816327" y="244.8979591837" xlink:href="#block"/><use x="40.8163265306" y="244.8979591837" xlink:href="#block"/><use x="61.2244897959" y="244.8979591837" xlink:href="#block"/><use x="81.6326530612" y="244.8979591837" xlink:href="#block"/><use x="91.8367346939" y="244.8979591837" xlink:href="#block"/><use x="102.0408163265" y="244.8979591837" xlink:href="#block"/><use x="112.2448979592" y="244.8979591837" xlink:href="#block"/><use x="132.6530612245" y="244.8979591837" xlink:href="#block"/><use x="142.8571428571" y="244.8979591837" xlink:href="#block"/><use x="153.0612244898" y="244.8979591837" xlink:href="#block"/><use x="163.2653061224" y="244.8979591837" xlink:href="#block"/><use x="183.6734693878" y="244.8979591837" xlink:href="#block"/><use x="193.8775510204" y="244.8979591837" xlink:href="#block"/><use x="224.4897959184" y="244.8979591837" xlink:href="#block"/><use x="244.8979591837" y="244.8979591837" xlink:href="#block"/><use x="265.3061224490" y="244.8979591837" xlink:href="#block"/><use x="295.9183673469" y="244.8979591837" xlink:href="#block"/><use x="336.7346938776" y="244.8979591837" xlink:href="#block"/><use x="346.9387755102" y="244.8979591837" xlink:href="#block"/><use x="357.1428571429" y="244.8979591837" xlink:href="#block"/><use x="387.7551020408" y="244.8979591837" xlink:href="#block"/><use x="408.1632653061" y="244.8979591837" xlink:href="#block"/><use x="428.5714285714" y="244.8979591837" xlink:href="#block"/><use x="448.9795918367" y="244.8979591837" xlink:href="#block"/><use x="469.3877551020" y="244.8979591837" xlink:href="#block"/><use x="10.2040816327" y="255.1020408163" xlink:href="#block"/><use x="20.4081632653" y="255.1020408163" xlink:href="#block"/><use x="30.6122448980" y="255.1020408163" xlink:href="#block"/><use x="40.8163265306" y="255.1020408163" xlink:href="#block"/><use x="81.6326530612" y="255.1020408163" xlink:href="#block"/><use x="122.4489795918" y="255.1020408163" xlink:href="#block"/><use x="142.8571428571" y="255.1020408163" xlink:href="#block"/><use x="163.2653061224" y="255.1020408163" xlink:href="#block"/><use x="173.4693877551" y="255.1020408163" xlink:href="#block"/><use x="193.8775510204" y="255.1020408163" xlink:href="#block"/><use x="224.4897959184" y="255.1020408163" xlink:href="#block"/><use x="265.3061224490" y="255.1020408163" xlink:href="#block"/><use x="306.1224489796" y="255.1020408163" xlink:href="#block"/><use x="316.3265306122" y="255.1020408163" xlink:href="#block"/><use x="346.9387755102" y="255.1020408163" xlink:href="#block"/><use x="377.5510204082" y="255.1020408163" xlink:href="#block"/><use x="387.7551020408" y="255.1020408163" xlink:href="#block"/><use x="397.9591836735" y="255.1020408163" xlink:href="#block"/><use x="408.1632653061" y="255.1020408163" xlink:href="#block"/><use x="448.9795918367" y="255.1020408163" xlink:href="#block"/><use x="479.5918367347" y="255.1020408163" xlink:href="#block"/><use x="489.7959183673" y="255.1020408163" xlink:href="#block"/><use x="0.0000000000" y="265.3061224490" xlink:href="#block"/><use x="10.2040816327" y="265.3061224490" xlink:href="#block"/><use x="20.4081632653" y="265.3061224490" xlink:href="#block"/><use x="30.6122448980" y="265.3061224490" xlink:href="#block"/><use x="40.8163265306" y="265.3061224490" xlink:href="#block"/><use x="51.0204081633" y="265.3061224490" xlink:href="#block"/><use x="61.2244897959" y="265.3061224490" xlink:href="#block"/><use x="71.4285714286" y="265.3061224490" xlink:href="#block"/><use x="81.6326530612" y="265.3061224490" xlink:href="#block"/><use x="91.8367346939" y="265.3061224490" xlink:href="#block"/><use x="102.0408163265" y="265.3061224490" xlink:href="#block"/><use x="112.2448979592" y="265.3061224490" xlink:href="#block"/><use x="153.0612244898" y="265.3061224490" xlink:href="#block"/><use x="163.2653061224" y="265.3061224490" xlink:href="#block"/><use x="224.4897959184" y="265.3061224490" xlink:href="#block"/><use x="234.6938775510" y="265.3061224490" xlink:href="#block"/><use x="244.8979591837" y="265.3061224490" xlink:href="#block"/><use x="255.1020408163" y="265.3061224490" xlink:href="#block"/><use x="265.3061224490" y="265.3061224490" xlink:href="#block"/><use x="285.7142857143" y="265.3061224490" xlink:href="#block"/><use x="306.1224489796" y="265.3061224490" xlink:href="#block"/><use x="346.9387755102" y="265.3061224490" xlink:href="#block"/><use x="357.1428571429" y="265.3061224490" xlink:href="#block"/><use x="367.3469387755" y="265.3061224490" xlink:href="#block"/><use x="387.7551020408" y="265.3061224490" xlink:href="#block"/><use x="408.1632653061" y="265.3061224490" xlink:href="#block"/><use x="418.3673469388" y="265.3061224490" xlink:href="#block"/><use x="428.5714285714" y="265.3061224490" xlink:href="#block"/><use x="438.7755102041" y="265.3061224490" xlink:href="#block"/><use x="448.9795918367" y="265.3061224490" xlink:href="#block"/><use x="469.3877551020" y="265.3061224490" xlink:href="#block"/><use x="489.7959183673" y="265.3061224490" xlink:href="#block"/><use x="0.0000000000" y="275.5102040816" xlink:href="#block"/><use x="30.6122448980" y="275.5102040816" xlink:href="#block"/><use x="71.4285714286" y="275.5102040816" xlink:href="#block"/><use x="91.8367346939" y="275.5102040816" xlink:href="#block"/><use x="102.0408163265" y="275.5102040816" xlink:href="#block"/><use x="142.8571428571" y="275.5102040816" xlink:href="#block"/><use x="214.2857142857" y="275.5102040816" xlink:href="#block"/><use x="234.6938775510" y="275.5102040816" xlink:href="#block"/><use x="255.1020408163" y="275.5102040816" xlink:href="#block"/><use x="265.3061224490" y="275.5102040816" xlink:href="#block"/><use x="275.5102040816" y="275.5102040816" xlink:href="#block"/><use x="285.7142857143" y="275.5102040816" xlink:href="#block"/><use x="295.9183673469" y="275.5102040816" xlink:href="#block"/><use x="357.1428571429" y="275.5102040816" xlink:href="#block"/><use x="377.5510204082" y="275.5102040816" xlink:href="#block"/><use x="397.9591836735" y="275.5102040816" xlink:href="#block"/><use x="408.1632653061" y="275.5102040816" xlink:href="#block"/><use x="428.5714285714" y="275.5102040816" xlink:href="#block"/><use x="438.7755102041" y="275.5102040816" xlink:href="#block"/><use x="459.1836734694" y="275.5102040816" xlink:href="#block"/><use x="479.5918367347" y="275.5102040816" xlink:href="#block"/><use x="489.7959183673" y="275.5102040816" xlink:href="#block"/><use x="0.0000000000" y="285.7142857143" xlink:href="#block"/><use x="30.6122448980" y="285.7142857143" xlink:href="#block"/><use x="61.2244897959" y="285.7142857143" xlink:href="#block"/><use x="71.4285714286" y="285.7142857143" xlink:href="#block"/><use x="81.6326530612" y="285.7142857143" xlink:href="#block"/><use x="102.0408163265" y="285.7142857143" xlink:href="#block"/><use x="112.2448979592" y="285.7142857143" xlink:href="#block"/><use x="132.6530612245" y="285.7142857143" xlink:href="#block"/><use x="142.8571428571" y="285.7142857143" xlink:href="#block"/><use x="153.0612244898" y="285.7142857143" xlink:href="#block"/><use x="163.2653061224" y="285.7142857143" xlink:href="#block"/><use x="173.4693877551" y="285.7142857143" xlink:href="#block"/><use x="183.6734693878" y="285.7142857143" xlink:href="#block"/><use x="193.8775510204" y="285.7142857143" xlink:href="#block"/><use x="224.4897959184" y="285.7142857143" xlink:href="#block"/><use x="234.6938775510" y="285.7142857143" xlink:href="#block"/><use x="295.9183673469" y="285.7142857143" xlink:href="#block"/><use x="306.1224489796" y="285.7142857143" xlink:href="#block"/><use x="316.3265306122" y="285.7142857143" xlink:href="#block"/><use x="326.5306122449" y="285.7142857143" xlink:href="#block"/><use x="346.9387755102" y="285.7142857143" xlink:href="#block"/><use x="357.1428571429" y="285.7142857143" xlink:href="#block"/><use x="377.5510204082" y="285.7142857143" xlink:href="#block"/><use x="387.7551020408" y="285.7142857143" xlink:href="#block"/><use x="408.1632653061" y="285.7142857143" xlink:href="#block"/><use x="418.3673469388" y="285.7142857143" xlink:href="#block"/><use x="428.5714285714" y="285.7142857143" xlink:href="#block"/><use x="459.1836734694" y="285.7142857143" xlink:href="#block"/><use x="469.3877551020" y="285.7142857143" xlink:href="#block"/><use x="489.7959183673" y="285.7142857143" xlink:href="#block"/><use x="10.2040816327" y="295.9183673469" xlink:href="#block"/><use x="20.4081632653" y="295.9183673469" xlink:href="#block"/><use x="30.6122448980" y="295.9183673469" xlink:href="#block"/><use x="40.8163265306" y="295.9183673469" xlink:href="#block"/><use x="51.0204081633" y="295.9183673469" xlink:href="#block"/><use x="81.6326530612" y="295.9183673469" xlink:href="#block"/><use x="102.0408163265" y="295.9183673469" xlink:href="#block"/><use x="112.2448979592" y="295.9183673469" xlink:href="#block"/><use x="122.4489795918" y="295.9183673469" xlink:href="#block"/><use x="142.8571428571" y="295.9183673469" xlink:href="#block"/><use x="183.6734693878" y="295.9183673469" xlink:href="#block"/><use x="234.6938775510" y="295.9183673469" xlink:href="#block"/><use x="244.8979591837" y="295.9183673469" xlink:href="#block"/><use x="255.1020408163" y="295.9183673469" xlink:href="#block"/><use x="275.5102040816" y="295.9183673469" xlink:href="#block"/><use x="326.5306122449" y="295.9183673469" xlink:href="#block"/><use x="438.7755102041" y="295.9183673469" xlink:href="#block"/><use x="448.9795918367" y="295.9183673469" xlink:href="#block"/><use x="20.4081632653" y="306.1224489796" xlink:href="#block"/><use x="51.0204081633" y="306.1224489796" xlink:href="#block"/><use x="61.2244897959" y="306.1224489796" xlink:href="#block"/><use x="71.4285714286" y="306.1224489796" xlink:href="#block"/><use x="91.8367346939" y="306.1224489796" xlink:href="#block"/><use x="102.0408163265" y="306.1224489796" xlink:href="#block"/><use x="122.4489795918" y="306.1224489796" xlink:href="#block"/><use x="153.0612244898" y="306.1224489796" xlink:href="#block"/><use x="183.6734693878" y="306.1224489796" xlink:href="#block"/><use x="193.8775510204" y="306.1224489796" xlink:href="#block"/><use x="234.6938775510" y="306.1224489796" xlink:href="#block"/><use x="265.3061224490" y="306.1224489796" xlink:href="#block"/><use x="275.5102040816" y="306.1224489796" xlink:href="#block"/><use x="295.9183673469" y="306.1224489796" xlink:href="#block"/><use x="306.1224489796" y="306.1224489796" xlink:href="#block"/><use x="316.3265306122" y="306.1224489796" xlink:href="#block"/><use x="326.5306122449" y="306.1224489796" xlink:href="#block"/><use x="336.7346938776" y="306.1224489796" xlink:href="#block"/><use x="367.3469387755" y="306.1224489796" xlink:href="#block"/><use x="377.5510204082" y="306.1224489796" xlink:href="#block"/><use x="387.7551020408" y="306.1224489796" xlink:href="#block"/><use x="397.9591836735" y="306.1224489796" xlink:href="#block"/><use x="418.3673469388" y="306.1224489796" xlink:href="#block"/><use x="428.5714285714" y="306.1224489796" xlink:href="#block"/><use x="448.9795918367" y="306.1224489796" xlink:href="#block"/><use x="469.3877551020" y="306.1224489796" xlink:href="#block"/><use x="479.5918367347" y="306.1224489796" xlink:href="#block"/><use x="0.0000000000" y="316.3265306122" xlink:href="#block"/><use x="30.6122448980" y="316.3265306122" xlink:href="#block"/><use x="40.8163265306" y="316.3265306122" xlink:href="#block"/><use x="81.6326530612" y="316.3265306122" xlink:href="#block"/><use x="91.8367346939" y="316.3265306122" xlink:href="#block"/><use x="112.2448979592" y="316.3265306122" xlink:href="#block"/><use x="132.6530612245" y="316.3265306122" xlink:href="#block"/><use x="142.8571428571" y="316.3265306122" xlink:href="#block"/><use x="193.8775510204" y="316.3265306122" xlink:href="#block"/><use x="214.2857142857" y="316.3265306122" xlink:href="#block"/><use x="234.6938775510" y="316.3265306122" xlink:href="#block"/><use x="255.1020408163" y="316.3265306122" xlink:href="#block"/><use x="275.5102040816" y="316.3265306122" xlink:href="#block"/><use x="285.7142857143" y="316.3265306122" xlink:href="#block"/><use x="295.9183673469" y="316.3265306122" xlink:href="#block"/><use x="306.1224489796" y="316.3265306122" xlink:href="#block"/><use x="336.7346938776" y="316.3265306122" xlink:href="#block"/><use x="367.3469387755" y="316.3265306122" xlink:href="#block"/><use x="377.5510204082" y="316.3265306122" xlink:href="#block"/><use x="397.9591836735" y="316.3265306122" xlink:href="#block"/><use x="418.3673469388" y="316.3265306122" xlink:href="#block"/><use x="438.7755102041" y="316.3265306122" xlink:href="#block"/><use x="448.9795918367" y="316.3265306122" xlink:href="#block"/><use x="459.1836734694" y="316.3265306122" xlink:href="#block"/><use x="0.0000000000" y="326.5306122449" xlink:href="#block"/><use x="10.2040816327" y="326.5306122449" xlink:href="#block"/><use x="30.6122448980" y="326.5306122449" xlink:href="#block"/><use x="40.8163265306" y="326.5306122449" xlink:href="#block"/><use x="51.0204081633" y="326.5306122449" xlink:href="#block"/><use x="61.2244897959" y="326.5306122449" xlink:href="#block"/><use x="102.0408163265" y="326.5306122449" xlink:href="#block"/><use x="112.2448979592" y="326.5306122449" xlink:href="#block"/><use x="122.4489795918" y="326.5306122449" xlink:href="#block"/><use x="132.6530612245" y="326.5306122449" xlink:href="#block"/><use x="142.8571428571" y="326.5306122449" xlink:href="#block"/><use x="153.0612244898" y="326.5306122449" xlink:href="#block"/><use x="173.4693877551" y="326.5306122449" xlink:href="#block"/><use x="183.6734693878" y="326.5306122449" xlink:href="#block"/><use x="193.8775510204" y="326.5306122449" xlink:href="#block"/><use x="204.0816326531" y="326.5306122449" xlink:href="#block"/><use x="214.2857142857" y="326.5306122449" xlink:href="#block"/><use x="224.4897959184" y="326.5306122449" xlink:href="#block"/><use x="275.5102040816" y="326.5306122449" xlink:href="#block"/><use x="285.7142857143" y="326.5306122449" xlink:href="#block"/><use x="316.3265306122" y="326.5306122449" xlink:href="#block"/><use x="326.5306122449" y="326.5306122449" xlink:href="#block"/><use x="346.9387755102" y="326.5306122449" xlink:href="#block"/><use x="357.1428571429" y="326.5306122449" xlink:href="#block"/><use x="387.7551020408" y="326.5306122449" xlink:href="#block"/><use x="397.9591836735" y="326.5306122449" xlink:href="#block"/><use x="408.1632653061" y="326.5306122449" xlink:href="#block"/><use x="418.3673469388" y="326.5306122449" xlink:href="#block"/><use x="428.5714285714" y="326.5306122449" xlink:href="#block"/><use x="438.7755102041" y="326.5306122449" xlink:href="#block"/><use x="469.3877551020" y="326.5306122449" xlink:href="#block"/><use x="489.7959183673" y="326.5306122449" xlink:href="#block"/><use x="0.0000000000" y="336.7346938776" xlink:href="#block"/><use x="10.2040816327" y="336.7346938776" xlink:href="#block"/><use x="40.8163265306" y="336.7346938776" xlink:href="#block"/><use x="81.6326530612" y="336.7346938776" xlink:href="#block"/><use x="112.2448979592" y="336.7346938776" xlink:href="#block"/><use x="122.4489795918" y="336.7346938776" xlink:href="#block"/><use x="163.2653061224" y="336.7346938776" xlink:href="#block"/><use x="173.4693877551" y="336.7346938776" xlink:href="#block"/><use x="183.6734693878" y="336.7346938776" xlink:href="#block"/><use x="214.2857142857" y="336.7346938776" xlink:href="#block"/><use x="234.6938775510" y="336.7346938776" xlink:href="#block"/><use x="244.8979591837" y="336.7346938776" xlink:href="#block"/><use x="265.3061224490" y="336.7346938776" xlink:href="#block"/><use x="275.5102040816" y="336.7346938776" xlink:href="#block"/><use x="285.7142857143" y="336.7346938776" xlink:href="#block"/><use x="326.5306122449" y="336.7346938776" xlink:href="#block"/><use x="336.7346938776" y="336.7346938776" xlink:href="#block"/><use x="377.5510204082" y="336.7346938776" xlink:href="#block"/><use x="387.7551020408" y="336.7346938776" xlink:href="#block"/><use x="408.1632653061" y="336.7346938776" xlink:href="#block"/><use x="479.5918367347" y="336.7346938776" xlink:href="#block"/><use x="489.7959183673" y="336.7346938776" xlink:href="#block"/><use x="30.6122448980" y="346.9387755102" xlink:href="#block"/><use x="51.0204081633" y="346.9387755102" xlink:href="#block"/><use x="61.2244897959" y="346.9387755102" xlink:href="#block"/><use x="122.4489795918" y="346.9387755102" xlink:href="#block"/><use x="142.8571428571" y="346.9387755102" xlink:href="#block"/><use x="153.0612244898" y="346.9387755102" xlink:href="#block"/><use x="163.2653061224" y="346.9387755102" xlink:href="#block"/><use x="173.4693877551" y="346.9387755102" xlink:href="#block"/><use x="193.8775510204" y="346.9387755102" xlink:href="#block"/><use x="204.0816326531" y="346.9387755102" xlink:href="#block"/><use x="244.8979591837" y="346.9387755102" xlink:href="#block"/><use x="265.3061224490" y="346.9387755102" xlink:href="#block"/><use x="275.5102040816" y="346.9387755102" xlink:href="#block"/><use x="316.3265306122" y="346.9387755102" xlink:href="#block"/><use x="326.5306122449" y="346.9387755102" xlink:href="#block"/><use x="357.1428571429" y="346.9387755102" xlink:href="#block"/><use x="377.5510204082" y="346.9387755102" xlink:href="#block"/><use x="387.7551020408" y="346.9387755102" xlink:href="#block"/><use x="397.9591836735" y="346.9387755102" xlink:href="#block"/><use x="428.5714285714" y="346.9387755102" xlink:href="#block"/><use x="448.9795918367" y="346.9387755102" xlink:href="#block"/><use x="459.1836734694" y="346.9387755102" xlink:href="#block"/><use x="469.3877551020" y="346.9387755102" xlink:href="#block"/><use x="0.0000000000" y="357.1428571429" xlink:href="#block"/><use x="10.2040816327" y="357.1428571429" xlink:href="#block"/><use x="30.6122448980" y="357.1428571429" xlink:href="#block"/><use x="51.0204081633" y="357.1428571429" xlink:href="#block"/><use x="71.4285714286" y="357.1428571429" xlink:href="#block"/><use x="91.8367346939" y="357.1428571429" xlink:href="#block"/><use x="122.4489795918" y="357.1428571429" xlink:href="#block"/><use x="132.6530612245" y="357.1428571429" xlink:href="#block"/><use x="142.8571428571" y="357.1428571429" xlink:href="#block"/><use x="153.0612244898" y="357.1428571429" xlink:href="#block"/><use x="173.4693877551" y="357.1428571429" xlink:href="#block"/><use x="183.6734693878" y="357.1428571429" xlink:href="#block"/><use x="193.8775510204" y="357.1428571429" xlink:href="#block"/><use x="204.0816326531" y="357.1428571429" xlink:href="#block"/><use x="234.6938775510" y="357.1428571429" xlink:href="#block"/><use x="244.8979591837" y="357.1428571429" xlink:href="#block"/><use x="255.1020408163" y="357.1428571429" xlink:href="#block"/><use x="295.9183673469" y="357.1428571429" xlink:href="#block"/><use x="367.3469387755" y="357.1428571429" xlink:href="#block"/><use x="377.5510204082" y="357.1428571429" xlink:href="#block"/><use x="397.9591836735" y="357.1428571429" xlink:href="#block"/><use x="408.1632653061" y="357.1428571429" xlink:href="#block"/><use x="418.3673469388" y="357.1428571429" xlink:href="#block"/><use x="428.5714285714" y="357.1428571429" xlink:href="#block"/><use x="438.7755102041" y="357.1428571429" xlink:href="#block"/><use x="459.1836734694" y="357.1428571429" xlink:href="#block"/><use x="10.2040816327" y="367.3469387755" xlink:href="#block"/><use x="30.6122448980" y="367.3469387755" xlink:href="#block"/><use x="40.8163265306" y="367.3469387755" xlink:href="#block"/><use x="51.0204081633" y="367.3469387755" xlink:href="#block"/><use x="61.2244897959" y="367.3469387755" xlink:href="#block"/><use x="81.6326530612" y="367.3469387755" xlink:href="#block"/><use x="102.0408163265" y="367.3469387755" xlink:href="#block"/><use x="112.2448979592" y="367.3469387755" xlink:href="#block"/><use x="142.8571428571" y="367.3469387755" xlink:href="#block"/><use x="173.4693877551" y="367.3469387755" xlink:href="#block"/><use x="183.6734693878" y="367.3469387755" xlink:href="#block"/><use x="214.2857142857" y="367.3469387755" xlink:href="#block"/><use x="224.4897959184" y="367.3469387755" xlink:href="#block"/><use x="244.8979591837" y="367.3469387755" xlink:href="#block"/><use x="255.1020408163" y="367.3469387755" xlink:href="#block"/><use x="265.3061224490" y="367.3469387755" xlink:href="#block"/><use x="285.7142857143" y="367.3469387755" xlink:href="#block"/><use x="295.9183673469" y="367.3469387755" xlink:href="#block"/><use x="306.1224489796" y="367.3469387755" xlink:href="#block"/><use x="336.7346938776" y="367.3469387755" xlink:href="#block"/><use x="346.9387755102" y="367.3469387755" xlink:href="#block"/><use x="357.1428571429" y="367.3469387755" xlink:href="#block"/><use x="367.3469387755" y="367.3469387755" xlink:href="#block"/><use x="387.7551020408" y="367.3469387755" xlink:href="#block"/><use x="418.3673469388" y="367.3469387755" xlink:href="#block"/><use x="428.5714285714" y="367.3469387755" xlink:href="#block"/><use x="438.7755102041" y="367.3469387755" xlink:href="#block"/><use x="448.9795918367" y="367.3469387755" xlink:href="#block"/><use x="469.3877551020" y="367.3469387755" xlink:href="#block"/><use x="479.5918367347" y="367.3469387755" xlink:href="#block"/><use x="489.7959183673" y="367.3469387755" xlink:href="#block"/><use x="0.0000000000" y="377.5510204082" xlink:href="#block"/><use x="10.2040816327" y="377.5510204082" xlink:href="#block"/><use x="30.6122448980" y="377.5510204082" xlink:href="#block"/><use x="40.8163265306" y="377.5510204082" xlink:href="#block"/><use x="71.4285714286" y="377.5510204082" xlink:href="#block"/><use x="81.6326530612" y="377.5510204082" xlink:href="#block"/><use x="91.8367346939" y="377.5510204082" xlink:href="#block"/><use x="142.8571428571" y="377.5510204082" xlink:href="#block"/><use x="153.0612244898" y="377.5510204082" xlink:href="#block"/><use x="163.2653061224" y="377.5510204082" xlink:href="#block"/><use x="173.4693877551" y="377.5510204082" xlink:href="#block"/><use x="183.6734693878" y="377.5510204082" xlink:href="#block"/><use x="234.6938775510" y="377.5510204082" xlink:href="#block"/><use x="244.8979591837" y="377.5510204082" xlink:href="#block"/><use x="285.7142857143" y="377.5510204082" xlink:href="#block"/><use x="295.9183673469" y="377.5510204082" xlink:href="#block"/><use x="357.1428571429" y="377.5510204082" xlink:href="#block"/><use x="377.5510204082" y="377.5510204082" xlink:href="#block"/><use x="387.7551020408" y="377.5510204082" xlink:href="#block"/><use x="408.1632653061" y="377.5510204082" xlink:href="#block"/><use x="438.7755102041" y="377.5510204082" xlink:href="#block"/><use x="448.9795918367" y="377.5510204082" xlink:href="#block"/><use x="459.1836734694" y="377.5510204082" xlink:href="#block"/><use x="489.7959183673" y="377.5510204082" xlink:href="#block"/><use x="10.2040816327" y="387.7551020408" xlink:href="#block"/><use x="51.0204081633" y="387.7551020408" xlink:href="#block"/><use x="61.2244897959" y="387.7551020408" xlink:href="#block"/><use x="81.6326530612" y="387.7551020408" xlink:href="#block"/><use x="102.0408163265" y="387.7551020408" xlink:href="#block"/><use x="112.2448979592" y="387.7551020408" xlink:href="#block"/><use x="122.4489795918" y="387.7551020408" xlink:href="#block"/><use x="142.8571428571" y="387.7551020408" xlink:href="#block"/><use x="153.0612244898" y="387.7551020408" xlink:href="#block"/><use x="163.2653061224" y="387.7551020408" xlink:href="#block"/><use x="173.4693877551" y="387.7551020408" xlink:href="#block"/><use x="204.0816326531" y="387.7551020408" xlink:href="#block"/><use x="214.2857142857" y="387.7551020408" xlink:href="#block"/><use x="224.4897959184" y="387.7551020408" xlink:href="#block"/><use x="255.1020408163" y="387.7551020408" xlink:href="#block"/><use x="265.3061224490" y="387.7551020408" xlink:href="#block"/><use x="285.7142857143" y="387.7551020408" xlink:href="#block"/><use x="346.9387755102" y="387.7551020408" xlink:href="#block"/><use x="357.1428571429" y="387.7551020408" xlink:href="#block"/><use x="367.3469387755" y="387.7551020408" xlink:href="#block"/><use x="387.7551020408" y="387.7551020408" xlink:href="#block"/><use x="397.9591836735" y="387.7551020408" xlink:href="#block"/><use x="418.3673469388" y="387.7551020408" xlink:href="#block"/><use x="428.5714285714" y="387.7551020408" xlink:href="#block"/><use x="438.7755102041" y="387.7551020408" xlink:href="#block"/><use x="448.9795918367" y="387.7551020408" xlink:href="#block"/><use x="479.5918367347" y="387.7551020408" xlink:href="#block"/><use x="489.7959183673" y="387.7551020408" xlink:href="#block"/><use x="10.2040816327" y="397.9591836735" xlink:href="#block"/><use x="20.4081632653" y="397.9591836735" xlink:href="#block"/><use x="30.6122448980" y="397.9591836735" xlink:href="#block"/><use x="81.6326530612" y="397.9591836735" xlink:href="#block"/><use x="112.2448979592" y="397.9591836735" xlink:href="#block"/><use x="122.4489795918" y="397.9591836735" xlink:href="#block"/><use x="142.8571428571" y="397.9591836735" xlink:href="#block"/><use x="153.0612244898" y="397.9591836735" xlink:href="#block"/><use x="163.2653061224" y="397.9591836735" xlink:href="#block"/><use x="173.4693877551" y="397.9591836735" xlink:href="#block"/><use x="193.8775510204" y="397.9591836735" xlink:href="#block"/><use x="204.0816326531" y="397.9591836735" xlink:href="#block"/><use x="295.9183673469" y="397.9591836735" xlink:href="#block"/><use x="316.3265306122" y="397.9591836735" xlink:href="#block"/><use x="326.5306122449" y="397.9591836735" xlink:href="#block"/><use x="336.7346938776" y="397.9591836735" xlink:href="#block"/><use x="357.1428571429" y="397.9591836735" xlink:href="#block"/><use x="367.3469387755" y="397.9591836735" xlink:href="#block"/><use x="397.9591836735" y="397.9591836735" xlink:href="#block"/><use x="428.5714285714" y="397.9591836735" xlink:href="#block"/><use x="459.1836734694" y="397.9591836735" xlink:href="#block"/><use x="479.5918367347" y="397.9591836735" xlink:href="#block"/><use x="0.0000000000" y="408.1632653061" xlink:href="#block"/><use x="10.2040816327" y="408.1632653061" xlink:href="#block"/><use x="20.4081632653" y="408.1632653061" xlink:href="#block"/><use x="61.2244897959" y="408.1632653061" xlink:href="#block"/><use x="71.4285714286" y="408.1632653061" xlink:href="#block"/><use x="81.6326530612" y="408.1632653061" xlink:href="#block"/><use x="91.8367346939" y="408.1632653061" xlink:href="#block"/><use x="163.2653061224" y="408.1632653061" xlink:href="#block"/><use x="173.4693877551" y="408.1632653061" xlink:href="#block"/><use x="183.6734693878" y="408.1632653061" xlink:href="#block"/><use x="193.8775510204" y="408.1632653061" xlink:href="#block"/><use x="204.0816326531" y="408.1632653061" xlink:href="#block"/><use x="224.4897959184" y="408.1632653061" xlink:href="#block"/><use x="234.6938775510" y="408.1632653061" xlink:href="#block"/><use x="244.8979591837" y="408.1632653061" xlink:href="#block"/><use x="255.1020408163" y="408.1632653061" xlink:href="#block"/><use x="265.3061224490" y="408.1632653061" xlink:href="#block"/><use x="285.7142857143" y="408.1632653061" xlink:href="#block"/><use x="295.9183673469" y="408.1632653061" xlink:href="#block"/><use x="306.1224489796" y="408.1632653061" xlink:href="#block"/><use x="357.1428571429" y="408.1632653061" xlink:href="#block"/><use x="377.5510204082" y="408.1632653061" xlink:href="#block"/><use x="397.9591836735" y="408.1632653061" xlink:href="#block"/><use x="408.1632653061" y="408.1632653061" xlink:href="#block"/><use x="418.3673469388" y="408.1632653061" xlink:href="#block"/><use x="428.5714285714" y="408.1632653061" xlink:href="#block"/><use x="438.7755102041" y="408.1632653061" xlink:href="#block"/><use x="448.9795918367" y="408.1632653061" xlink:href="#block"/><use x="479.5918367347" y="408.1632653061" xlink:href="#block"/><use x="489.7959183673" y="408.1632653061" xlink:href="#block"/><use x="81.6326530612" y="418.3673469388" xlink:href="#block"/><use x="132.6530612245" y="418.3673469388" xlink:href="#block"/><use x="142.8571428571" y="418.3673469388" xlink:href="#block"/><use x="163.2653061224" y="418.3673469388" xlink:href="#block"/><use x="204.0816326531" y="418.3673469388" xlink:href="#block"/><use x="224.4897959184" y="418.3673469388" xlink:href="#block"/><use x="265.3061224490" y="418.3673469388" xlink:href="#block"/><use x="326.5306122449" y="418.3673469388" xlink:href="#block"/><use x="336.7346938776" y="418.3673469388" xlink:href="#block"/><use x="408.1632653061" y="418.3673469388" xlink:href="#block"/><use x="448.9795918367" y="418.3673469388" xlink:href="#block"/><use x="479.5918367347" y="418.3673469388" xlink:href="#block"/><use x="489.7959183673" y="418.3673469388" xlink:href="#block"/><use x="0.0000000000" y="428.5714285714" xlink:href="#block"/><use x="10.2040816327" y="428.5714285714" xlink:href="#block"/><use x="20.4081632653" y="428.5714285714" xlink:href="#block"/><use x="30.6122448980" y="428.5714285714" xlink:href="#block"/><use x="40.8163265306" y="428.5714285714" xlink:href="#block"/><use x="51.0204081633" y="428.5714285714" xlink:href="#block"/><use x="61.2244897959" y="428.5714285714" xlink:href="#block"/><use x="132.6530612245" y="428.5714285714" xlink:href="#block"/><use x="153.0612244898" y="428.5714285714" xlink:href="#block"/><use x="204.0816326531" y="428.5714285714" xlink:href="#block"/><use x="224.4897959184" y="428.5714285714" xlink:href="#block"/><use x="244.8979591837" y="428.5714285714" xlink:href="#block"/><use x="265.3061224490" y="428.5714285714" xlink:href="#block"/><use x="275.5102040816" y="428.5714285714" xlink:href="#block"/><use x="285.7142857143" y="428.5714285714" xlink:href="#block"/><use x="306.1224489796" y="428.5714285714" xlink:href="#block"/><use x="316.3265306122" y="428.5714285714" xlink:href="#block"/><use x="357.1428571429" y="428.5714285714" xlink:href="#block"/><use x="367.3469387755" y="428.5714285714" xlink:href="#block"/><use x="377.5510204082" y="428.5714285714" xlink:href="#block"/><use x="408.1632653061" y="428.5714285714" xlink:href="#block"/><use x="428.5714285714" y="428.5714285714" xlink:href="#block"/><use x="448.9795918367" y="428.5714285714" xlink:href="#block"/><use x="459.1836734694" y="428.5714285714" xlink:href="#block"/><use x="469.3877551020" y="428.5714285714" xlink:href="#block"/><use x="0.0000000000" y="438.7755102041" xlink:href="#block"/><use x="61.2244897959" y="438.7755102041" xlink:href="#block"/><use x="91.8367346939" y="438.7755102041" xlink:href="#block"/><use x="102.0408163265" y="438.7755102041" xlink:href="#block"/><use x="112.2448979592" y="438.7755102041" xlink:href="#block"/><use x="132.6530612245" y="438.7755102041" xlink:href="#block"/><use x="142.8571428571" y="438.7755102041" xlink:href="#block"/><use x="163.2653061224" y="438.7755102041" xlink:href="#block"/><use x="173.4693877551" y="438.7755102041" xlink:href="#block"/><use x="183.6734693878" y="438.7755102041" xlink:href="#block"/><use x="193.8775510204" y="438.7755102041" xlink:href="#block"/><use x="204.0816326531" y="438.7755102041" xlink:href="#block"/><use x="214.2857142857" y="438.7755102041" xlink:href="#block"/><use x="224.4897959184" y="438.7755102041" xlink:href="#block"/><use x="265.3061224490" y="438.7755102041" xlink:href="#block"/><use x="275.5102040816" y="438.7755102041" xlink:href="#block"/><use x="295.9183673469" y="438.7755102041" xlink:href="#block"/><use x="316.3265306122" y="438.7755102041" xlink:href="#block"/><use x="357.1428571429" y="438.7755102041" xlink:href="#block"/><use x="408.1632653061" y="438.7755102041" xlink:href="#block"/><use x="448.9795918367" y="438.7755102041" xlink:href="#block"/><use x="459.1836734694" y="438.7755102041" xlink:href="#block"/><use x="469.3877551020" y="438.7755102041" xlink:href="#block"/><use x="479.5918367347" y="438.7755102041" xlink:href="#block"/><use x="0.0000000000" y="448.9795918367" xlink:href="#block"/><use x="20.4081632653" y="448.9795918367" xlink:href="#block"/><use x="30.6122448980" y="448.9795918367" xlink:href="#block"/><use x="40.8163265306" y="448.9795918367" xlink:href="#block"/><use x="61.2244897959" y="448.9795918367" xlink:href="#block"/><use x="81.6326530612" y="448.9795918367" xlink:href="#block"/><use x="91.8367346939" y="448.9795918367" xlink:href="#block"/><use x="102.0408163265" y="448.9795918367" xlink:href="#block"/><use x="112.2448979592" y="448.9795918367" xlink:href="#block"/><use x="153.0612244898" y="448.9795918367" xlink:href="#block"/><use x="224.4897959184" y="448.9795918367" xlink:href="#block"/><use x="234.6938775510" y="448.9795918367" xlink:href="#block"/><use x="244.8979591837" y="448.9795918367" xlink:href="#block"/><use x="255.1020408163" y="448.9795918367" xlink:href="#block"/><use x="265.3061224490" y="448.9795918367" xlink:href="#block"/><use x="275.5102040816" y="448.9795918367" xlink:href="#block"/><use x="295.9183673469" y="448.9795918367" xlink:href="#block"/><use x="336.7346938776" y="448.9795918367" xlink:href="#block"/><use x="346.9387755102" y="448.9795918367" xlink:href="#block"/><use x="357.1428571429" y="448.9795918367" xlink:href="#block"/><use x="387.7551020408" y="448.9795918367" xlink:href="#block"/><use x="397.9591836735" y="448.9795918367" xlink:href="#block"/><use x="408.1632653061" y="448.9795918367" xlink:href="#block"/><use x="418.3673469388" y="448.9795918367" xlink:href="#block"/><use x="428.5714285714" y="448.9795918367" xlink:href="#block"/><use x="438.7755102041" y="448.9795918367" xlink:href="#block"/><use x="448.9795918367" y="448.9795918367" xlink:href="#block"/><use x="459.1836734694" y="448.9795918367" xlink:href="#block"/><use x="479.5918367347" y="448.9795918367" xlink:href="#block"/><use x="489.7959183673" y="448.9795918367" xlink:href="#block"/><use x="0.0000000000" y="459.1836734694" xlink:href="#block"/><use x="20.4081632653" y="459.1836734694" xlink:href="#block"/><use x="30.6122448980" y="459.1836734694" xlink:href="#block"/><use x="40.8163265306" y="459.1836734694" xlink:href="#block"/><use x="61.2244897959" y="459.1836734694" xlink:href="#block"/><use x="81.6326530612" y="459.1836734694" xlink:href="#block"/><use x="91.8367346939" y="459.1836734694" xlink:href="#block"/><use x="102.0408163265" y="459.1836734694" xlink:href="#block"/><use x="132.6530612245" y="459.1836734694" xlink:href="#block"/><use x="142.8571428571" y="459.1836734694" xlink:href="#block"/><use x="153.0612244898" y="459.1836734694" xlink:href="#block"/><use x="163.2653061224" y="459.1836734694" xlink:href="#block"/><use x="173.4693877551" y="459.1836734694" xlink:href="#block"/><use x="214.2857142857" y="459.1836734694" xlink:href="#block"/><use x="224.4897959184" y="459.1836734694" xlink:href="#block"/><use x="234.6938775510" y="459.1836734694" xlink:href="#block"/><use x="265.3061224490" y="459.1836734694" xlink:href="#block"/><use x="275.5102040816" y="459.1836734694" xlink:href="#block"/><use x="295.9183673469" y="459.1836734694" xlink:href="#block"/><use x="306.1224489796" y="459.1836734694" xlink:href="#block"/><use x="326.5306122449" y="459.1836734694" xlink:href="#block"/><use x="336.7346938776" y="459.1836734694" xlink:href="#block"/><use x="377.5510204082" y="459.1836734694" xlink:href="#block"/><use x="387.7551020408" y="459.1836734694" xlink:href="#block"/><use x="397.9591836735" y="459.1836734694" xlink:href="#block"/><use x="418.3673469388" y="459.1836734694" xlink:href="#block"/><use x="428.5714285714" y="459.1836734694" xlink:href="#block"/><use x="438.7755102041" y="459.1836734694" xlink:href="#block"/><use x="479.5918367347" y="459.1836734694" xlink:href="#block"/><use x="489.7959183673" y="459.1836734694" xlink:href="#block"/><use x="0.0000000000" y="469.3877551020" xlink:href="#block"/><use x="20.4081632653" y="469.3877551020" xlink:href="#block"/><use x="30.6122448980" y="469.3877551020" xlink:href="#block"/><use x="40.8163265306" y="469.3877551020" xlink:href="#block"/><use x="61.2244897959" y="469.3877551020" xlink:href="#block"/><use x="81.6326530612" y="469.3877551020" xlink:href="#block"/><use x="91.8367346939" y="469.3877551020" xlink:href="#block"/><use x="132.6530612245" y="469.3877551020" xlink:href="#block"/><use x="142.8571428571" y="469.3877551020" xlink:href="#block"/><use x="163.2653061224" y="469.3877551020" xlink:href="#block"/><use x="173.4693877551" y="469.3877551020" xlink:href="#block"/><use x="193.8775510204" y="469.3877551020" xlink:href="#block"/><use x="204.0816326531" y="469.3877551020" xlink:href="#block"/><use x="214.2857142857" y="469.3877551020" xlink:href="#block"/><use x="234.6938775510" y="469.3877551020" xlink:href="#block"/><use x="295.9183673469" y="469.3877551020" xlink:href="#block"/><use x="306.1224489796" y="469.3877551020" xlink:href="#block"/><use x="316.3265306122" y="469.3877551020" xlink:href="#block"/><use x="367.3469387755" y="469.3877551020" xlink:href="#block"/><use x="377.5510204082" y="469.3877551020" xlink:href="#block"/><use x="387.7551020408" y="469.3877551020" xlink:href="#block"/><use x="408.1632653061" y="469.3877551020" xlink:href="#block"/><use x="438.7755102041" y="469.3877551020" xlink:href="#block"/><use x="459.1836734694" y="469.3877551020" xlink:href="#block"/><use x="469.3877551020" y="469.3877551020" xlink:href="#block"/><use x="489.7959183673" y="469.3877551020" xlink:href="#block"/><use x="0.0000000000" y="479.5918367347" xlink:href="#block"/><use x="61.2244897959" y="479.5918367347" xlink:href="#block"/><use x="112.2448979592" y="479.5918367347" xlink:href="#block"/><use x="132.6530612245" y="479.5918367347" xlink:href="#block"/><use x="173.4693877551" y="479.5918367347" xlink:href="#block"/><use x="183.6734693878" y="479.5918367347" xlink:href="#block"/><use x="214.2857142857" y="479.5918367347" xlink:href="#block"/><use x="234.6938775510" y="479.5918367347" xlink:href="#block"/><use x="255.1020408163" y="479.5918367347" xlink:href="#block"/><use x="275.5102040816" y="479.5918367347" xlink:href="#block"/><use x="285.7142857143" y="479.5918367347" xlink:href="#block"/><use x="295.9183673469" y="479.5918367347" xlink:href="#block"/><use x="306.1224489796" y="479.5918367347" xlink:href="#block"/><use x="316.3265306122" y="479.5918367347" xlink:href="#block"/><use x="326.5306122449" y="479.5918367347" xlink:href="#block"/><use x="357.1428571429" y="479.5918367347" xlink:href="#block"/><use x="377.5510204082" y="479.5918367347" xlink:href="#block"/><use x="397.9591836735" y="479.5918367347" xlink:href="#block"/><use x="408.1632653061" y="479.5918367347" xlink:href="#block"/><use x="428.5714285714" y="479.5918367347" xlink:href="#block"/><use x="448.9795918367" y="479.5918367347" xlink:href="#block"/><use x="469.3877551020" y="479.5918367347" xlink:href="#block"/><use x="479.5918367347" y="479.5918367347" xlink:href="#block"/><use x="0.0000000000" y="489.7959183673" xlink:href="#block"/><use x="10.2040816327" y="489.7959183673" xlink:href="#block"/><use x="20.4081632653" y="489.7959183673" xlink:href="#block"/><use x="30.6122448980" y="489.7959183673" xlink:href="#block"/><use x="40.8163265306" y="489.7959183673" xlink:href="#block"/><use x="51.0204081633" y="489.7959183673" xlink:href="#block"/><use x="61.2244897959" y="489.7959183673" xlink:href="#block"/><use x="112.2448979592" y="489.7959183673" xlink:href="#block"/><use x="153.0612244898" y="489.7959183673" xlink:href="#block"/><use x="173.4693877551" y="489.7959183673" xlink:href="#block"/><use x="193.8775510204" y="489.7959183673" xlink:href="#block"/><use x="234.6938775510" y="489.7959183673" xlink:href="#block"/><use x="244.8979591837" y="489.7959183673" xlink:href="#block"/><use x="265.3061224490" y="489.7959183673" xlink:href="#block"/><use x="285.7142857143" y="489.7959183673" xlink:href="#block"/><use x="295.9183673469" y="489.7959183673" xlink:href="#block"/><use x="306.1224489796" y="489.7959183673" xlink:href="#block"/><use x="346.9387755102" y="489.7959183673" xlink:href="#block"/><use x="367.3469387755" y="489.7959183673" xlink:href="#block"/><use x="387.7551020408" y="489.7959183673" xlink:href="#block"/><use x="408.1632653061" y="489.7959183673" xlink:href="#block"/><use x="418.3673469388" y="489.7959183673" xlink:href="#block"/><use x="438.7755102041" y="489.7959183673" xlink:href="#block"/><use x="469.3877551020" y="489.7959183673" xlink:href="#block"/><use x="479.5918367347" y="489.7959183673" xlink:href="#block"/><use x="489.7959183673" y="489.7959183673" xlink:href="#block"/></svg>
