<svg width="16" height="16" viewBox="0 0 16 16" fill="none" xmlns="http://www.w3.org/2000/svg">
<path fill-rule="evenodd" clip-rule="evenodd" d="M7.5 2C6.11929 2 5 3.11929 5 4.5C5 5.88071 6.11929 7 7.5 7C8.88071 7 10 5.88071 10 4.5C10 3.11929 8.88071 2 7.5 2ZM4 4.5C4 2.567 5.567 1 7.5 1C9.433 1 11 2.567 11 4.5C11 6.433 9.433 8 7.5 8C5.567 8 4 6.433 4 4.5Z" fill="#4D4D4D"/>
<path fill-rule="evenodd" clip-rule="evenodd" d="M3.58512 9.94211C4.60837 8.71082 6.01425 8 7.5 8C8.98575 8 10.3916 8.71082 11.4149 9.94211C12.4362 11.171 13 12.8234 13 14.5333C13 14.6571 12.9517 14.7758 12.8658 14.8633C12.7798 14.9508 12.6632 15 12.5417 15H2.45833C2.33678 15 2.2202 14.9508 2.13424 14.8633C2.04829 14.7758 2 14.6571 2 14.5333C2 12.8234 2.56382 11.171 3.58512 9.94211ZM7.5 8.93333C6.31149 8.93333 5.15263 9.50084 4.28489 10.545C3.50543 11.4829 3.02411 12.7319 2.93263 14.0667H12.0674C11.9759 12.7319 11.4946 11.4829 10.7151 10.545C9.84737 9.50084 8.68851 8.93333 7.5 8.93333Z" fill="#4D4D4D"/>
</svg>
