<svg width="33" height="33" viewBox="0 0 33 33" fill="none" xmlns="http://www.w3.org/2000/svg">
<rect x="0.5" y="0.5" width="32" height="32" rx="1.5" stroke="#BEB686"/>
<g clip-path="url(#clip0_5_55)">
<path fill-rule="evenodd" clip-rule="evenodd" d="M7.5 10C7.77614 10 8 10.2239 8 10.5V13.051C8 13.4305 8.32879 13.9147 9.18431 14.3337C10.0069 14.7366 11.1785 15 12.5 15C13.8215 15 14.9931 14.7366 15.8157 14.3337C16.6712 13.9147 17 13.4305 17 13.051V10.5C17 10.2239 17.2239 10 17.5 10C17.7761 10 18 10.2239 18 10.5V13.051C18 14.0242 17.2096 14.7645 16.2556 15.2318C15.2686 15.7152 13.9402 16 12.5 16C11.0598 16 9.73139 15.7152 8.74444 15.2318C7.79038 14.7645 7 14.0242 7 13.051V10.5C7 10.2239 7.22386 10 7.5 10Z" fill="#6E6E6E"/>
<path fill-rule="evenodd" clip-rule="evenodd" d="M7.52238 13C7.81088 13 8.04476 13.2 8.04476 13.4468V16.3647C8.04476 16.6972 8.39388 17.1314 9.32061 17.5088C10.2084 17.8704 11.4717 18.1064 12.8954 18.1064C14.2144 18.1064 15.3974 17.903 16.2728 17.5841C16.5382 17.4874 16.845 17.593 16.9581 17.82C17.0711 18.0471 16.9476 18.3095 16.6822 18.4062C15.6555 18.7803 14.3293 19 12.8954 19C11.3515 19 9.92823 18.7461 8.87143 18.3157C7.85355 17.9011 7 17.241 7 16.3647V13.4468C7 13.2 7.23388 13 7.52238 13Z" fill="#6E6E6E"/>
<path fill-rule="evenodd" clip-rule="evenodd" d="M7.52238 15C7.81088 15 8.04476 15.2334 8.04476 15.5213V18.9255C8.04476 19.3134 8.39388 19.82 9.32061 20.2603C10.2084 20.6822 11.4717 20.9574 12.8954 20.9574C14.2148 20.9574 15.3985 20.7209 16.2726 20.349C16.538 20.2361 16.8449 20.3592 16.958 20.6241C17.0712 20.8889 16.9478 21.1951 16.6824 21.308C15.6562 21.7446 14.3289 22 12.8954 22C11.3515 22 9.92823 21.7038 8.87143 21.2016C7.85355 20.7179 7 19.9479 7 18.9255V15.5213C7 15.2334 7.23388 15 7.52238 15Z" fill="#6E6E6E"/>
<path fill-rule="evenodd" clip-rule="evenodd" d="M8.2488 9.45187C8.05784 9.67151 8 9.85608 8 10C8 10.1439 8.05784 10.3285 8.2488 10.5481C8.44188 10.7702 8.74607 10.9962 9.16143 11.1983C9.99036 11.6016 11.1704 11.8649 12.5 11.8649C13.8296 11.8649 15.0096 11.6016 15.8386 11.1983C16.2539 10.9962 16.5581 10.7702 16.7512 10.5481C16.9422 10.3285 17 10.1439 17 10C17 9.85608 16.9422 9.67151 16.7512 9.45187C16.5581 9.22979 16.2539 9.00375 15.8386 8.80169C15.0096 8.39842 13.8296 8.13514 12.5 8.13514C11.1704 8.13514 9.99036 8.39842 9.16143 8.80169C8.74607 9.00375 8.44188 9.22979 8.2488 9.45187ZM8.76751 7.75833C9.74821 7.28123 11.0682 7 12.5 7C13.9318 7 15.2518 7.28123 16.2325 7.75833C16.722 7.99645 17.15 8.29457 17.4629 8.65451C17.778 9.01689 18 9.47222 18 10C18 10.5278 17.778 10.9831 17.4629 11.3455C17.15 11.7054 16.722 12.0035 16.2325 12.2417C15.2518 12.7188 13.9318 13 12.5 13C11.0682 13 9.74821 12.7188 8.76751 12.2417C8.27804 12.0035 7.84999 11.7054 7.53705 11.3455C7.22199 10.9831 7 10.5278 7 10C7 9.47222 7.22199 9.01689 7.53705 8.65451C7.84999 8.29457 8.27804 7.99645 8.76751 7.75833Z" fill="#6E6E6E"/>
<path fill-rule="evenodd" clip-rule="evenodd" d="M16.5 17C16.7761 17 17 17.2239 17 17.5V20.051C17 20.4305 17.3288 20.9147 18.1843 21.3337C19.0069 21.7366 20.1785 22 21.5 22C22.8215 22 23.9931 21.7366 24.8157 21.3337C25.6712 20.9147 26 20.4305 26 20.051V17.5C26 17.2239 26.2239 17 26.5 17C26.7761 17 27 17.2239 27 17.5V20.051C27 21.0242 26.2096 21.7645 25.2556 22.2318C24.2686 22.7152 22.9402 23 21.5 23C20.0598 23 18.7314 22.7152 17.7444 22.2318C16.7904 21.7645 16 21.0242 16 20.051V17.5C16 17.2239 16.2239 17 16.5 17Z" fill="#6E6E6E"/>
<path fill-rule="evenodd" clip-rule="evenodd" d="M16.5 19C16.7761 19 17 19.2334 17 19.5213V22.9255C17 23.3212 17.3288 23.826 18.1843 24.2628C19.0069 24.6829 20.1785 24.9574 21.5 24.9574C22.8215 24.9574 23.9931 24.6829 24.8157 24.2628C25.6712 23.826 26 23.3212 26 22.9255V19.5213C26 19.2334 26.2239 19 26.5 19C26.7761 19 27 19.2334 27 19.5213V22.9255C27 23.9401 26.2096 24.7119 25.2556 25.1991C24.2686 25.7031 22.9402 26 21.5 26C20.0598 26 18.7314 25.7031 17.7444 25.1991C16.7904 24.7119 16 23.9401 16 22.9255V19.5213C16 19.2334 16.2239 19 16.5 19Z" fill="#6E6E6E"/>
<path fill-rule="evenodd" clip-rule="evenodd" d="M17.2488 17.0432C17.0578 17.2263 17 17.3801 17 17.5C17 17.6199 17.0578 17.7737 17.2488 17.9568C17.4419 18.1418 17.7461 18.3302 18.1614 18.4986C18.9904 18.8346 20.1704 19.0541 21.5 19.0541C22.8296 19.0541 24.0096 18.8346 24.8386 18.4986C25.2539 18.3302 25.5581 18.1418 25.7512 17.9568C25.9422 17.7737 26 17.6199 26 17.5C26 17.3801 25.9422 17.2263 25.7512 17.0432C25.5581 16.8582 25.2539 16.6698 24.8386 16.5014C24.0096 16.1654 22.8296 15.9459 21.5 15.9459C20.1704 15.9459 18.9904 16.1654 18.1614 16.5014C17.7461 16.6698 17.4419 16.8582 17.2488 17.0432ZM17.7675 15.6319C18.7482 15.2344 20.0682 15 21.5 15C22.9318 15 24.2518 15.2344 25.2325 15.6319C25.722 15.8304 26.15 16.0788 26.4629 16.3788C26.778 16.6807 27 17.0602 27 17.5C27 17.9398 26.778 18.3193 26.4629 18.6212C26.15 18.9212 25.722 19.1696 25.2325 19.3681C24.2518 19.7656 22.9318 20 21.5 20C20.0682 20 18.7482 19.7656 17.7675 19.3681C17.278 19.1696 16.85 18.9212 16.5371 18.6212C16.222 18.3193 16 17.9398 16 17.5C16 17.0602 16.222 16.6807 16.5371 16.3788C16.85 16.0788 17.278 15.8304 17.7675 15.6319Z" fill="#6E6E6E"/>
<rect x="17" y="12" width="1" height="4" fill="#6E6E6E"/>
</g>
<defs>
<clipPath id="clip0_5_55">
<rect width="20" height="20" fill="white" transform="translate(7 7)"/>
</clipPath>
</defs>
</svg>
