<svg width="16" height="16" viewBox="0 0 16 16" fill="none" xmlns="http://www.w3.org/2000/svg">
<path d="M1 14.5C1 14.2239 1.22386 14 1.5 14H14.5C14.7761 14 15 14.2239 15 14.5C15 14.7761 14.7761 15 14.5 15H1.5C1.22386 15 1 14.7761 1 14.5Z" fill="#4D4D4D"/>
<path fill-rule="evenodd" clip-rule="evenodd" d="M6 9H3L3 12H6V9ZM3 8C2.44772 8 2 8.44772 2 9V12C2 12.5523 2.44772 13 3 13H6C6.55228 13 7 12.5523 7 12V9C7 8.44772 6.55228 8 6 8H3Z" fill="#4D4D4D"/>
<path fill-rule="evenodd" clip-rule="evenodd" d="M8 3H3L3 6H8V3ZM3 2C2.44772 2 2 2.44772 2 3V6C2 6.55228 2.44772 7 3 7H8C8.55228 7 9 6.55228 9 6V3C9 2.44772 8.55228 2 8 2H3Z" fill="#4D4D4D"/>
<path fill-rule="evenodd" clip-rule="evenodd" d="M13 9H9L9 12H13V9ZM9 8C8.44772 8 8 8.44772 8 9V12C8 12.5523 8.44772 13 9 13H13C13.5523 13 14 12.5523 14 12V9C14 8.44772 13.5523 8 13 8H9Z" fill="#4D4D4D"/>
<path fill-rule="evenodd" clip-rule="evenodd" d="M13 3H11V6H13V3ZM11 2C10.4477 2 10 2.44772 10 3V6C10 6.55228 10.4477 7 11 7H13C13.5523 7 14 6.55228 14 6V3C14 2.44772 13.5523 2 13 2H11Z" fill="#4D4D4D"/>
</svg>
