<?xml version="1.0" encoding="UTF-8"?><svg id="Layer_2" xmlns="http://www.w3.org/2000/svg" viewBox="0 0 113.2 59.94"><defs><style>.cls-1{fill:#4f8a7e;stroke-width:0px;}</style></defs><g id="_1"><path class="cls-1" d="M32.18,26.6c.34.2.73.38,1.18.44.44.07.97,0,1.41-.24.44-.24.78-.61.98-1.04.2-.43.26-.9.21-1.33-.1-.86-.61-1.63-1.32-1.95.3.71.38,1.37.28,1.95-.09.58-.37,1.02-.77,1.25-.36.23-.94.21-1.57.02-.63-.17-1.28-.47-1.98-.76.36.68.9,1.23,1.58,1.66Z"/><path class="cls-1" d="M21.68,33.26c.38.21.85.36,1.36.33.26-.01.51-.1.75-.2.22-.12.45-.27.6-.42.67-.56,1.13-1.56.97-2.48-.15-.91-.77-1.64-1.52-1.91.4.68.58,1.37.51,1.96-.07.59-.36,1.07-.82,1.48-.23.2-.39.32-.63.36-.23.05-.52.03-.83-.05-.63-.16-1.28-.52-1.98-.88.32.73.84,1.37,1.59,1.81Z"/><path class="cls-1" d="M112.39,28.91c-2.32-2.55-7.45-.64-15.66,5.85-1.44-2.67-3.14-4.58-4.95-5.9.63-2.77,1.63-5.36,3.99-7.59,1.82-1.7,4.42-2.55,6.71-3.31,1.85-.61,3.65-1.2,4.83-2.19,0,0,.01-.01.02-.02.42.07.84.15,1.26.19.66.07,1.32.13,2.02.18-.53-.48-1.18-.77-1.81-1.02-.22-.08-.45-.15-.68-.22.2-.3.37-.63.46-1.01l.71.26c.59.2,1.17.46,1.85.56-.44-.49-.9-.95-1.44-1.32-.3-.21-.62-.39-.94-.56,0,0,0,0,0,0v-.3c-.01-.19-.04-.38-.08-.58,0,0,0-.02,0-.02.28.13.55.28.83.4.64.28,1.3.54,2.02.72-.48-.56-1.02-1.03-1.59-1.46-.57-.42-1.17-.81-1.8-1.14-.02-.01-.04-.02-.06-.03h0c-1.13-1.98-3.54-3.98-6.58-5.33-6.37-2.83-13.24-1.98-18.41,2.27-5.11,4.2-4.38,11.23-3.68,18.04.04.4.08.8.12,1.2-1.74.33-3.32.84-4.58,1.33h0s-.03.01-.04.02c-.25.09-.5.2-.72.29-7.4-2.74-16.91-1.79-23.1-.07-.23-.49-.46-.96-.69-1.41,2.37-.69,4.84-1.12,7.17-.99l.03-.54c-2.43-.13-5,.33-7.45,1.05-.42-.8-.85-1.54-1.28-2.21,1.95-1.08,3.66-1.89,5.11-2.43l-.19-.5c-1.48.55-3.23,1.39-5.22,2.49-.82-1.23-1.65-2.26-2.47-3.1,2.26-1.77,4.74-3.33,7.27-4.19l-.17-.51c-2.6.89-5.16,2.5-7.48,4.32-3.43-3.34-6.57-3.63-7.97-3.55l-.14-8.04-.75.18c-.23.05-5.53,1.29-8.57,3.38-.45.31-.83.62-1.15.94h-.06c-.7.05-1.39.12-2.03.21-.05.01-.11.01-.15.02,0,0,0,0,0,0,.17-.59.01-1.18-.75-1.59-1.27-.26-2.32.71-3.19,1.31-.18.14-.35.3-.52.45.1-2.09-.77-4.56-2.77-2.85-2.04,1.96-2.58,4.72-3.5,7.3-.53.45-1.04.93-1.52,1.44-1.15,1.24-1.84,2.33-2.17,2.9l-.09.1c-.38-.04-.97-.07-1.7-.05-2.45.08-5.85.77-8.24,3.6l-.4.49.5.4s1.15.94,2.73,2.59l2.36,2.7c.05.06.09.11.14.17l.05.05c.06.07.12.14.18.21-3.31,5.99-3.53,12.05-.61,17.11,2.92,5.06,8.82,8.59,14.36,8.59,2.09,0,7.46.01,14.55.05,13.85.05,28,.12,43.44.12,5.65.89,13.22,1.56,18.7,1.56.38,0,.75,0,1.11-.01l.62.05s0-.04,0-.07c1.32-.04,2.48-.13,3.36-.28l.45-.08v-.45c.01-1.83-.63-3.28-1.89-4.31-1.93-1.57-5.22-2.13-9.83-1.66,2.28-2.21,4.61-6.09,3.63-10.14.52.3.99.64,1.34.99l.19.18h.26c8.74-.19,14.88-5.32,16.9-10,.94-2.19.88-4.07-.14-5.2ZM80.48,25.28c-.7-6.8-1.37-13.24,3.29-17.08,6.96-5.72,14.39-3.37,17.27-2.1,2.05.91,3.84,2.18,5.03,3.49-.66-.21-1.35-.36-2.06-.35.6.42,1.19.79,1.79,1.15.47.29.96.56,1.44.82,0,0,0,0,0,0,.2.39.33.78.38,1.15h0c-1.14-.36-2.35-.5-3.54-.25.6.31,1.19.52,1.77.75l1.7.63c-.11.41-.31.78-.6,1.09-.04,0-.07-.02-.11-.03-.67-.13-1.34-.21-2.02-.23-.68-.02-1.36,0-2.06.13.63.32,1.28.53,1.92.72.37.11.75.18,1.13.27,0,0-.01,0-.02.01h-.01c-.93.52-2.17.95-3.65,1.45-2.4.8-5.12,1.7-7.11,3.56-2.46,2.3-3.55,4.99-4.22,7.74-3.34-2.01-6.99-2.26-10.2-1.81-.04-.38-.08-.76-.12-1.14ZM48.91,26.64c-1.1.37-2.15.77-3.15,1.2-.32.03-.63.06-.95.07.79-.7,1.52-1.47,1.76-2.55.41-.25.8-.47,1.19-.7.39.6.77,1.25,1.15,1.97ZM40.01,30.72c-.02-.37-.09-.71-.21-.99.04-.03.09-.06.13-.09.15,0,.29.01.34.04l.24-.44c1.57-1.07,3.06-2.04,4.45-2.91.01,0,.02,0,.04,0-.43.62-1.03,1.18-1.53,1.67l-.83.75,1.08-.06s.09,0,.13-.01c-1.54.74-2.88,1.46-3.85,2.03ZM47.46,24.22c-.56.32-1.13.66-1.72,1.02-.03,0-.05,0-.08,0h0c-1.14-.22-2.24-.79-3.24-1.55.83-.8,1.73-1.61,2.68-2.4.77.79,1.56,1.76,2.35,2.94ZM44.73,20.91c-.96.8-1.88,1.63-2.72,2.44-1.98-1.64-3.51-3.95-4.13-5.53h0c1.17-.06,3.85.23,6.84,3.09ZM5.57,30.88c.93-.43,2.03-.25,2.89.05l.02-.02-1.25-1.88c.65-.06,1.38.36,1.96.78.07-.14.13-.3.18-.45-1.75-2.72-5.72-3.09-7.54-3.11-.01-.02-.02-.02-.04-.04,2.05-2.09,4.85-2.62,6.9-2.68,1.15-.05,1.94.08,1.95.08l.47.07.19-.43s.06-.11.15-.29l.12-.12v-.1c.31-.53.91-1.47,1.91-2.53l-.32.17c1.11-.94,1.8-2.3,2.31-3.62.93-1.92.67-4.45,2.37-5.93.48-.44,1.17-.59,1.4.14.39,1.21.31,2.75-.27,3.82l-1.55,2.85c1.13-1.02,3.03-2.84,4.21-3.77.7-.53,1.42-1.18,2.19-1.27.29.15.27.54.11.94-.29.64-.85,1.3-1.47,1.77,0,0,.03.1.03.1.41-.1.89-.37,1.31-.72,0,0,0,0,0,0,.45-.09.91-.17,1.38-.23.62-.09,1.27-.17,1.94-.2l.56-.04.18-.2c.27-.31.64-.62,1.09-.93,2.21-1.51,5.83-2.59,7.4-3v.27c-2.32,1.38-3.1,4.63-3.1,4.63l1.33.77c.21-.49.7-1.43,1.35-1.64l-.29,1.57c.45-.37,1.16-.83,1.89-.74l-1.09,1.9h.01s.01.39.01.39v.34s0,0,0,0c0,0,0,.01,0,.02v.41s.13-.02.13-.02c.62,1.74,2.28,4.32,4.49,6.19-2.97,3-4.92,5.59-4.96,5.64l.43.32c.04-.05,1.99-2.64,4.94-5.62.86.67,1.79,1.21,2.76,1.56-1.42.89-2.92,1.88-4.52,2.97-.57.02-1.24.16-1.52.26l.17.51c.11-.04.24-.07.38-.1-.6.41-1.19.82-1.82,1.27l.12.25.19.19c.71-.5,1.38-.97,2.06-1.43.1.28.14.62.12.99-.79.47-1.27.79-1.29.8l.3.45s.35-.23.9-.57c-.13.62-.4,1.27-.83,1.8-.97,1.21-2.47,1.54-4.21.93.01-.57-.09-1.13-.34-1.65.34-.73.32-2.82.18-3.07,0,0,0,0,0,0h0c.03-.2-.18-.36-.36-.28l-.21.09c-1.16.52-2.23,1.22-3.17,2.07l-.18.17c-.15.14-.09.39.11.44.82.3,1.93.72,2.92.81l.13.04s.08-.01.12-.02c.67,1.44.12,3.25-1.42,4.63-1.29,1.14-3.18,1.89-5.26,1.73.96-.67,1.64-1.12,1.81-1.21l-.27-.47c-.2.12-1.1.71-2.32,1.57-.69-.13-1.39-.37-2.1-.73,2.65-1.21,4.6-2.02,4.66-2.04l-.2-.5c-.23.09-2.33.96-5.08,2.22,0,0-.01,0-.02-.01.37-.4.78-.72.98-.86l-.41-.61s-1.37.95-1.89,2.1c-3.29,1.55-7.17,3.54-9.92,5.45-.59-.97-1.08-2-1.45-3.07,4.71-3.37,13.58-5.66,17.92-6.2l-.07-.53c-4.34.54-13.18,2.82-18.02,6.21-.27-.87-.51-1.74-.66-2.63-.21-1.24-.34-2.48-.37-3.73l-3.87-3.53ZM88.31,53.32l-.03.02c-.97.14-1.97.31-3.03.54l-.34.07.21,1.06.35-.07c.99-.21,1.91-.37,2.78-.5,0,0,.39-.02.45-.07,6.35-.91,9.3.11,10.67,1.23.91.74,1.4,1.73,1.48,3.01-.26.04-.56.06-.86.09,0-.03-.02-.07-.03-.1-.09-.31-.22-.61-.36-.9-.14-.29-.32-.55-.52-.79-.19-.24-.43-.45-.67-.63.16.26.31.51.4.79.1.27.16.55.2.83.03.28.04.56.03.83,0,.01,0,.03,0,.04-.36.02-.74.03-1.14.04-.09-.26-.18-.52-.31-.76-.14-.29-.32-.55-.52-.79-.19-.24-.43-.45-.67-.63.16.26.31.51.4.79.1.27.16.55.2.83.02.19.02.39.02.58-4.69.04-11.28-.46-16.74-1.19,1.46-.56,2.94-1.5,4.03-2.91,1.19-1.52,2.39-4.16,1.41-8.14-.37-1.5-.49-2.73,1.11-3.83l.55-.29.26-.14c1.57-.71,3.35-.55,4.86,0,2.01,5.38-2.7,9.8-4.17,11ZM111.38,33.61c-1.84,4.29-7.47,8.97-15.52,9.24-1.6-1.41-5.03-3.24-8.32-2.01-3.69,1.39-3.39,4.02-2.9,6,.7,2.81.28,5.31-1.21,7.21-1.4,1.79-3.48,2.75-5.24,3.02-14.92,0-29.9-.06-43.93-.12-7.09-.02-12.46-.05-14.55-.05-5.11,0-10.56-3.27-13.28-7.96-1.88-3.25-3.29-8.54.42-15.49l1.91,2.19v-.02c.12.88.24,1.76.43,2.62.21.96.5,1.91.84,2.83-.57.43-1.08.86-1.5,1.32l.4.36c.37-.4.82-.78,1.3-1.16.42,1.04.95,2.03,1.57,2.96-1.13.8-2.05,1.59-2.62,2.32l.42.33c.54-.69,1.42-1.43,2.5-2.2.08.11.14.23.22.33,1.57,2.1,3.81,3.6,6.25,4.44-2.4-.94-4.55-2.52-6-4.63-.08-.11-.13-.23-.2-.33,2.64-1.83,6.4-3.77,9.64-5.31l.55.08c.02-.13.07-.27.13-.4.22-.1.44-.21.66-.31.71.4,1.42.69,2.12.87-2.73,1.97-6.63,5-8.49,7.42l.43.33c1.92-2.5,6.07-5.67,8.78-7.59.41.06.81.1,1.2.1,2.01,0,3.82-.78,5.09-1.91,1.03-.92,1.65-2.02,1.83-3.11.62.2,1.18.3,1.67.3,1.56,0,2.51-.83,3-1.44.62-.76.93-1.67,1.02-2.5,1.27-.75,3.25-1.84,5.6-2.86.79-.13,1.56-.3,2.32-.52.44,1.74.26,3.69-.62,5.28,1.07-1.64,1.39-3.69,1-5.62,0,0-.04-.2-.04-.2,0,0-.01,0-.02,0,.31-.11.62-.22.93-.33.33.64.66,1.32.99,2.04l.21.5.53-.15c1.28-.38,12.58-3.51,22.07-.36-.59.45-1.13.93-1.66,1.44-1.06,1.02-2.01,2.13-2.88,3.31-.86,1.18-1.62,2.42-2.24,3.74-.62,1.31-1.09,2.7-1.3,4.13.31-1.41.88-2.74,1.58-3.98.7-1.24,1.54-2.41,2.46-3.49.92-1.08,1.93-2.09,3.01-2.99,1.07-.88,2.23-1.7,3.43-2.19.01,0,.03,0,.05-.02,1.26-.5,2.68-.96,4.22-1.27.36-.07.72-.13,1.09-.19,3.18-.46,6.67-.17,9.8,1.88.33.21.65.45.97.7,1.52,1.22,2.93,2.91,4.16,5.2.01,0,.01.01.01.02,0,0,0,.01,0,.02.21.53.41,1.08.6,1.62.21.61.41,1.22.55,1.85.06-.65.07-1.3.06-1.95,0-.23-.02-.47-.02-.7h0s.05-.04.05-.04c6.59-5.28,10.28-6.92,12.36-7.1h0l-2.82,2.86,4.28-2.7s0,0,0,0c.31.12.55.29.71.48.33.36.49.88.49,1.52,0,0,0,0,0,0l-3.37,2.23,3.18-1s0,0,0,0c-.08.34-.21.71-.38,1.09Z"/><path class="cls-1" d="M49.04,11.97h-4.03v-.03c.31-.36.6-.7.88-1.08l3.08-4v-.78s-5.24,0-5.24,0v1.01h3.73v.03c-.31.37-.6.7-.9,1.07l-3.12,4.06v.73h5.6v-1Z"/><path class="cls-1" d="M58.51,10.39h-4.68v-.03c.36-.41.69-.81,1.02-1.26l3.57-4.64.02-.91h-6.1v1.17h4.33v.03c-.36.43-.69.81-1.04,1.24l-3.62,4.71v.84h6.49v-1.16Z"/><path class="cls-1" d="M68.6,8.13h-5.56v-.04c.43-.49.82-.96,1.22-1.49l4.24-5.52.02-1.08h-7.24v1.39h5.14v.04c-.43.51-.82.96-1.24,1.47l-4.3,5.59v1h7.71v-1.37Z"/></g></svg>