<?xml version="1.0"?>
<svg width="16" height="16" xmlns="http://www.w3.org/2000/svg" xmlns:svg="http://www.w3.org/2000/svg">
 <g class="layer">
  <title>Layer 1</title>
  <path d="m8,1c3.85,0 7,3.15 7,7c0,3.85 -3.15,7 -7,7c-3.85,0 -7,-3.15 -7,-7c0,-3.85 3.15,-7 7,-7zm0,1.75c-1.14,0 -2.19,0.35 -3.06,0.96l7.35,7.35c0.61,-0.87 0.96,-1.92 0.96,-3.06c0,-2.89 -2.36,-5.25 -5.25,-5.25zm0,10.5c1.14,0 2.19,-0.35 3.06,-0.96l-7.35,-7.35c-0.61,0.87 -0.96,1.92 -0.96,3.06c0,2.89 2.36,5.25 5.25,5.25z" fill="#EA0000" id="svg_9"/>
 </g>
</svg>