<svg width="16" height="16" viewBox="0 0 16 16" fill="none" xmlns="http://www.w3.org/2000/svg">
<g clip-path="url(#clip0_1962_117)">
<path d="M5 14C7 16.6667 9 16.6667 11 14H5Z" fill="#4D4D4D"/>
<path d="M8 2.5C9 2.5 9 2.75 9 2C9 1.44772 8.55228 1 8 1C7.44772 1 7 1.44772 7 2C7 2.75 7 2.5 8 2.5Z" fill="#4D4D4D"/>
<circle cx="12.5" cy="4.5" r="2.5" fill="#009448"/>
<path d="M11.133 7.99565C11.5369 8.96303 12.0879 9.79511 12.6463 10.3536C13.1277 10.835 13.5865 11.4162 13.8027 11.8486C13.8311 11.9054 13.8534 11.9559 13.8704 12H2.12944C2.14642 11.9559 2.1687 11.9054 2.19712 11.8486C2.4133 11.4162 2.87206 10.835 3.35346 10.3536C4.44092 9.2661 5.49991 7.14128 5.49991 5C5.49991 4.4 6.13324 3.5 7.99991 3.5C8.40063 3.5 8.74452 3.54148 9.0375 3.61256C9.10477 3.26988 9.25955 2.95858 9.47762 2.70288C9.04201 2.5721 8.54608 2.5 7.99991 2.5C5.86658 2.5 4.49991 3.6 4.49991 5C4.49991 6.85872 3.5589 8.7339 2.64636 9.64645C2.12776 10.165 1.58652 10.8338 1.3027 11.4014C1.23021 11.5464 1.16803 11.6974 1.12919 11.8472C1.09147 11.9927 1.06745 12.1685 1.10337 12.3481C1.14256 12.544 1.25153 12.7294 1.44313 12.8534C1.61923 12.9673 1.81976 13 1.99991 13H13.9999C14.1801 13 14.3806 12.9673 14.5567 12.8534C14.7483 12.7294 14.8573 12.544 14.8964 12.3481C14.9324 12.1685 14.9083 11.9927 14.8706 11.8472C14.8318 11.6974 14.7696 11.5464 14.6971 11.4014C14.4133 10.8338 13.8721 10.165 13.3535 9.64645C12.8976 9.19057 12.4346 8.49444 12.0854 7.68015C11.8077 7.8599 11.4826 7.97268 11.133 7.99565Z" fill="#4D4D4D"/>
</g>
<defs>
<clipPath id="clip0_1962_117">
<rect width="16" height="16" fill="white"/>
</clipPath>
</defs>
</svg>
