<svg width="33" height="33" viewBox="0 0 33 33" fill="none" xmlns="http://www.w3.org/2000/svg">
<rect x="0.5" y="0.5" width="32" height="32" rx="1.5" stroke="#BEB686"/>
<path d="M15.888 25.8182V7.63635H17.0528V25.8182H15.888ZM19.5315 13.2756C19.4557 12.6032 19.1432 12.0824 18.594 11.7131C18.0447 11.339 17.3534 11.152 16.5201 11.152C15.9235 11.152 15.4074 11.2467 14.9718 11.4361C14.5362 11.6207 14.1977 11.8764 13.9562 12.2031C13.7194 12.5251 13.6011 12.892 13.6011 13.304C13.6011 13.6496 13.6816 13.9479 13.8426 14.1989C14.0083 14.4498 14.2237 14.6605 14.4889 14.831C14.7587 14.9967 15.0476 15.1364 15.3553 15.25C15.6631 15.3589 15.959 15.4489 16.2431 15.5199L17.6636 15.8892C18.1276 16.0028 18.6034 16.1567 19.0911 16.3508C19.5788 16.545 20.031 16.8007 20.4477 17.1179C20.8643 17.4351 21.2005 17.8281 21.4562 18.2969C21.7166 18.7656 21.8468 19.3267 21.8468 19.9801C21.8468 20.804 21.6337 21.5355 21.2076 22.1747C20.7862 22.8139 20.173 23.3182 19.3681 23.6875C18.5679 24.0568 17.5997 24.2415 16.4633 24.2415C15.3743 24.2415 14.432 24.0686 13.6366 23.723C12.8411 23.3774 12.2185 22.8873 11.7687 22.2528C11.3189 21.6136 11.0703 20.856 11.0229 19.9801H13.2247C13.2673 20.5057 13.4377 20.9436 13.736 21.294C14.039 21.6397 14.4249 21.8977 14.8937 22.0682C15.3672 22.2339 15.8856 22.3168 16.4491 22.3168C17.0694 22.3168 17.621 22.2197 18.1039 22.0256C18.5916 21.8267 18.9751 21.5521 19.2545 21.2017C19.5338 20.8466 19.6735 20.4323 19.6735 19.9588C19.6735 19.5279 19.5504 19.1752 19.3042 18.9006C19.0627 18.6259 18.7337 18.3987 18.317 18.2187C17.9051 18.0388 17.4387 17.8802 16.9178 17.7429L15.1991 17.2741C14.0343 16.9569 13.111 16.4905 12.4292 15.875C11.7521 15.2595 11.4136 14.4451 11.4136 13.4318C11.4136 12.5937 11.6408 11.8622 12.0954 11.2372C12.5499 10.6122 13.1655 10.1269 13.942 9.78124C14.7185 9.43086 15.5944 9.25567 16.5698 9.25567C17.5547 9.25567 18.4235 9.42849 19.1764 9.77414C19.9339 10.1198 20.5305 10.5956 20.9661 11.2017C21.4017 11.803 21.629 12.4943 21.648 13.2756H19.5315Z" fill="#4A4A4A"/>
</svg>
