<svg width="16" height="16" viewBox="0 0 16 16" fill="none" xmlns="http://www.w3.org/2000/svg">
<path fill-rule="evenodd" clip-rule="evenodd" d="M9.5 2C9.77614 2 10 2.22386 10 2.5V6H13.5C13.7761 6 14 6.22386 14 6.5C14 6.77614 13.7761 7 13.5 7H9.5C9.22386 7 9 6.77614 9 6.5V2.5C9 2.22386 9.22386 2 9.5 2Z" fill="#4D4D4D"/>
<path fill-rule="evenodd" clip-rule="evenodd" d="M0.5 2C0.223858 2 0 2.22386 0 2.5V11.5C0 11.7761 0.223858 12 0.5 12H2C2 11.6357 2.09739 11.2942 2.26756 11H1V3H11.6535L13.0318 6.67556C13.0653 6.76488 13.1237 6.84276 13.2 6.9L15 8.25V11H13.7324C13.9026 11.2942 14 11.6357 14 12H15.5C15.7761 12 16 11.7761 16 11.5V8C16 7.84262 15.9259 7.69443 15.8 7.6L13.9169 6.18765L12.4682 2.32444C12.395 2.12929 12.2084 2 12 2H0.5ZM10 12C10 11.6357 10.0974 11.2942 10.2676 11H5.73244C5.90261 11.2942 6 11.6357 6 12H10Z" fill="#4D4D4D"/>
<path fill-rule="evenodd" clip-rule="evenodd" d="M12 13C12.5523 13 13 12.5523 13 12C13 11.4477 12.5523 11 12 11C11.4477 11 11 11.4477 11 12C11 12.5523 11.4477 13 12 13ZM12 14C13.1046 14 14 13.1046 14 12C14 10.8954 13.1046 10 12 10C10.8954 10 10 10.8954 10 12C10 13.1046 10.8954 14 12 14Z" fill="#4D4D4D"/>
<path fill-rule="evenodd" clip-rule="evenodd" d="M4 13C4.55228 13 5 12.5523 5 12C5 11.4477 4.55228 11 4 11C3.44772 11 3 11.4477 3 12C3 12.5523 3.44772 13 4 13ZM4 14C5.10457 14 6 13.1046 6 12C6 10.8954 5.10457 10 4 10C2.89543 10 2 10.8954 2 12C2 13.1046 2.89543 14 4 14Z" fill="#4D4D4D"/>
</svg>
