<svg width="213" height="120" viewBox="0 0 213 120" fill="none" xmlns="http://www.w3.org/2000/svg">
<path d="M5.77907 0.5H56.9651C59.8807 0.5 62.2442 2.86352 62.2442 5.77907V23.1163C62.2442 26.0318 59.8807 28.3953 56.9651 28.3953H5.77907C2.86352 28.3953 0.5 26.0318 0.5 23.1163V5.77907C0.5 2.86352 2.86352 0.5 5.77907 0.5Z" stroke="#B3B3B2"/>
<path d="M80.907 0.5H132.093C135.009 0.5 137.372 2.86352 137.372 5.77907V23.1163C137.372 26.0318 135.009 28.3953 132.093 28.3953H80.907C77.9914 28.3953 75.6279 26.0318 75.6279 23.1163V5.77907C75.6279 2.86352 77.9914 0.5 80.907 0.5Z" stroke="#B3B3B2"/>
<path d="M156.035 0.5H207.221C210.136 0.5 212.5 2.86352 212.5 5.77907V23.1163C212.5 26.0318 210.136 28.3953 207.221 28.3953H156.035C153.119 28.3953 150.756 26.0318 150.756 23.1163V5.77907C150.756 2.86352 153.119 0.5 156.035 0.5Z" stroke="#B3B3B2"/>
<rect x="0.5" y="70.6744" width="61.7442" height="27.8953" rx="6.5" stroke="#B3B3B2"/>
<path d="M80.907 70.6744H132.093C135.009 70.6744 137.372 73.0379 137.372 75.9535V93.2907C137.372 96.2062 135.009 98.5698 132.093 98.5698H80.907C77.9914 98.5698 75.6279 96.2062 75.6279 93.2907V75.9535C75.6279 73.0379 77.9914 70.6744 80.907 70.6744Z" stroke="#B3B3B2"/>
<rect x="150.756" y="70.6744" width="61.7442" height="27.8953" rx="6.5" stroke="#B3B3B2"/>
<path d="M27.2442 19.814V7.9946H31.6785C32.5814 7.9946 33.3044 8.11553 33.8472 8.3574C34.3955 8.5939 34.8228 8.96208 35.1291 9.46194C35.4409 9.95643 35.5967 10.4751 35.5967 11.018C35.5967 11.5232 35.4597 11.9989 35.1856 12.445C34.9115 12.8911 34.4976 13.2512 33.944 13.5253C34.6588 13.735 35.2071 14.0924 35.5887 14.5976C35.9757 15.1029 36.1692 15.6995 36.1692 16.3875C36.1692 16.9411 36.0509 17.4571 35.8144 17.9354C35.5833 18.4084 35.2958 18.7739 34.9518 19.0319C34.6078 19.2899 34.1751 19.4861 33.6537 19.6205C33.1377 19.7495 32.5035 19.814 31.751 19.814H27.2442ZM28.8083 12.961H31.364C32.0574 12.961 32.5546 12.9153 32.8556 12.8239C33.2533 12.7057 33.5516 12.5095 33.7505 12.2354C33.9547 11.9613 34.0568 11.6173 34.0568 11.2034C34.0568 10.811 33.9628 10.467 33.7747 10.1714C33.5865 9.87043 33.3178 9.66619 32.9684 9.55869C32.6191 9.44582 32.0198 9.38938 31.1705 9.38938H28.8083V12.961ZM28.8083 18.4192H31.751C32.2563 18.4192 32.611 18.4004 32.8152 18.3627C33.1754 18.2982 33.4764 18.1907 33.7182 18.0402C33.9601 17.8898 34.159 17.6721 34.3148 17.3872C34.4707 17.097 34.5486 16.7637 34.5486 16.3875C34.5486 15.9467 34.4358 15.5651 34.21 15.2426C33.9843 14.9148 33.6699 14.6863 33.2667 14.5573C32.869 14.423 32.2939 14.3558 31.5414 14.3558H28.8083V18.4192Z" fill="black"/>
<path d="M5.77907 40.2084H11.184V47.0581H10.0231V41.1694H6.94004V47.0581H5.77907V40.2084Z" fill="#9F9F9A"/>
<path d="M12.932 49.6832V40.2084H13.9897V41.0985C14.2391 40.7502 14.5208 40.49 14.8347 40.318C15.1486 40.1418 15.5291 40.0536 15.9763 40.0536C16.5611 40.0536 17.0771 40.2041 17.5243 40.5051C17.9714 40.8061 18.309 41.2318 18.5369 41.7822C18.7648 42.3283 18.8787 42.9281 18.8787 43.5817C18.8787 44.2826 18.7519 44.9146 18.4982 45.4779C18.2488 46.0369 17.8833 46.4669 17.4017 46.7679C16.9244 47.0646 16.4213 47.2129 15.8924 47.2129C15.5054 47.2129 15.1572 47.1312 14.8476 46.9678C14.5423 46.8045 14.2907 46.5981 14.0929 46.3487V49.6832H12.932ZM13.9833 43.672C13.9833 44.5535 14.1617 45.2049 14.5186 45.6263C14.8755 46.0477 15.3077 46.2584 15.815 46.2584C16.331 46.2584 16.7718 46.0412 17.1373 45.6069C17.5071 45.1683 17.692 44.4911 17.692 43.5752C17.692 42.7023 17.5114 42.0488 17.1502 41.6145C16.7933 41.1802 16.3654 40.963 15.8666 40.963C15.3722 40.963 14.9336 41.1952 14.5509 41.6596C14.1725 42.1197 13.9833 42.7905 13.9833 43.672Z" fill="#9F9F9A"/>
<path d="M24.9738 44.8523L26.1735 45.0006C25.9843 45.7015 25.6339 46.2455 25.1222 46.6325C24.6105 47.0194 23.9569 47.2129 23.1614 47.2129C22.1595 47.2129 21.3641 46.9055 20.775 46.2906C20.1902 45.6714 19.8978 44.805 19.8978 43.6913C19.8978 42.5389 20.1945 41.6446 20.7879 41.0082C21.3813 40.3718 22.1509 40.0536 23.0969 40.0536C24.0128 40.0536 24.761 40.3653 25.3415 40.9888C25.922 41.6123 26.2122 42.4895 26.2122 43.6204C26.2122 43.6892 26.2101 43.7924 26.2058 43.93H21.0975C21.1405 44.6825 21.3533 45.2586 21.736 45.6585C22.1187 46.0584 22.596 46.2584 23.1679 46.2584C23.5936 46.2584 23.9569 46.1466 24.2579 45.923C24.5589 45.6994 24.7975 45.3425 24.9738 44.8523ZM21.162 42.9754H24.9867C24.9351 42.3992 24.7889 41.9671 24.5481 41.679C24.1784 41.2318 23.6989 41.0082 23.1098 41.0082C22.5766 41.0082 22.1273 41.1866 21.7618 41.5435C21.4006 41.9004 21.2007 42.3777 21.162 42.9754Z" fill="#9F9F9A"/>
<path d="M31.6236 37.6027H32.7846V40.8727C33.0254 40.5975 33.2898 40.3933 33.5779 40.26C33.866 40.1224 34.1756 40.0536 34.5067 40.0536C35.3194 40.0536 35.9622 40.3933 36.4352 41.0727C36.9125 41.7478 37.1512 42.5991 37.1512 43.6268C37.1512 44.6975 36.8953 45.5639 36.3836 46.2261C35.8719 46.884 35.2356 47.2129 34.4745 47.2129C34.2251 47.2129 33.9714 47.1742 33.7134 47.0968C33.4554 47.0194 33.1458 46.8088 32.7846 46.4648V49.6832H31.6236V46.4648C31.3914 46.7142 31.1334 46.9012 30.8497 47.0259C30.5702 47.1506 30.267 47.2129 29.9402 47.2129C29.2221 47.2129 28.5944 46.8991 28.0569 46.2713C27.5194 45.6392 27.2506 44.7362 27.2506 43.5623C27.2506 42.569 27.4936 41.737 27.9795 41.0662C28.4654 40.3911 29.1189 40.0536 29.9402 40.0536C30.2842 40.0536 30.596 40.1224 30.8755 40.26C31.1549 40.3933 31.4043 40.5975 31.6236 40.8727V37.6027ZM32.7782 43.6591C32.7782 44.6911 32.9201 45.3855 33.2039 45.7424C33.4876 46.095 33.8424 46.2713 34.2681 46.2713C34.7411 46.2713 35.1431 46.0541 35.4742 45.6198C35.8096 45.1812 35.9773 44.5019 35.9773 43.5817C35.9773 42.7131 35.8225 42.066 35.5129 41.6403C35.2076 41.2146 34.8142 41.0017 34.3326 41.0017C33.8166 41.0017 33.4274 41.2232 33.1652 41.6661C32.9072 42.109 32.7782 42.7733 32.7782 43.6591ZM28.431 43.5301C28.431 44.4976 28.5922 45.1941 28.9147 45.6198C29.2415 46.0455 29.6457 46.2584 30.1273 46.2584C30.6304 46.2584 31.0066 46.0477 31.256 45.6263C31.5054 45.2006 31.6301 44.5642 31.6301 43.7171C31.6301 42.8141 31.4989 42.1369 31.2366 41.6854C30.9744 41.2339 30.5788 41.0082 30.0499 41.0082C29.5726 41.0082 29.1834 41.2296 28.8824 41.6725C28.5815 42.1111 28.431 42.7303 28.431 43.5301Z" fill="#9F9F9A"/>
<path d="M38.5121 40.2084H39.6731V45.4328L42.8915 40.2084H44.1428V47.0581H42.9818V41.866L39.7634 47.0581H38.5121V40.2084Z" fill="#9F9F9A"/>
<path d="M45.8843 40.2084H47.0452V43.1689C47.415 43.1689 47.673 43.0979 47.8192 42.956C47.9697 42.8141 48.189 42.4014 48.4771 41.7177C48.705 41.1759 48.8899 40.819 49.0318 40.647C49.1737 40.475 49.3371 40.3589 49.522 40.2987C49.7069 40.2385 50.0036 40.2084 50.4121 40.2084H50.6443V41.1694L50.3218 41.163C50.0165 41.163 49.8208 41.2081 49.7348 41.2984C49.6445 41.393 49.5069 41.6747 49.322 42.1434C49.1457 42.5905 48.9845 42.9001 48.8383 43.0721C48.6921 43.2441 48.4664 43.4011 48.1611 43.543C48.6599 43.6763 49.15 44.1407 49.6316 44.9361L50.9023 47.0581H49.6252L48.3868 44.9361C48.1331 44.5105 47.9117 44.231 47.7225 44.0977C47.5333 43.9601 47.3075 43.8913 47.0452 43.8913V47.0581H45.8843V40.2084Z" fill="#9F9F9A"/>
<path d="M56.2943 44.5492L57.436 44.6975C57.3113 45.4844 56.9909 46.1014 56.4749 46.5486C55.9632 46.9915 55.3333 47.2129 54.5851 47.2129C53.6477 47.2129 52.8931 46.9077 52.3212 46.2971C51.7536 45.6822 51.4698 44.8028 51.4698 43.6591C51.4698 42.9195 51.5924 42.2724 51.8375 41.7177C52.0826 41.163 52.4545 40.748 52.9533 40.4728C53.4564 40.1934 54.0025 40.0536 54.5916 40.0536C55.3355 40.0536 55.9439 40.2428 56.4169 40.6212C56.8899 40.9953 57.193 41.5285 57.3263 42.2208L56.1976 42.3949C56.0901 41.9348 55.8987 41.5887 55.6235 41.3565C55.3527 41.1243 55.0237 41.0082 54.6367 41.0082C54.0519 41.0082 53.5768 41.2189 53.2113 41.6403C52.8458 42.0574 52.6631 42.7195 52.6631 43.6268C52.6631 44.547 52.8394 45.2156 53.192 45.6327C53.5445 46.0498 54.0046 46.2584 54.5722 46.2584C55.028 46.2584 55.4086 46.1186 55.7138 45.8391C56.0191 45.5596 56.2126 45.1296 56.2943 44.5492Z" fill="#9F9F9A"/>
<path d="M68.5233 49.6832V40.2084H69.581V41.0985C69.8304 40.7502 70.1121 40.49 70.426 40.318C70.7399 40.1417 71.1204 40.0536 71.5676 40.0536C72.1524 40.0536 72.6684 40.2041 73.1156 40.5051C73.5627 40.8061 73.9003 41.2318 74.1282 41.7821C74.3561 42.3282 74.47 42.9281 74.47 43.5817C74.47 44.2825 74.3432 44.9146 74.0895 45.4779C73.8401 46.0369 73.4746 46.4669 72.993 46.7679C72.5157 47.0646 72.0126 47.2129 71.4837 47.2129C71.0967 47.2129 70.7485 47.1312 70.4389 46.9678C70.1336 46.8044 69.882 46.598 69.6842 46.3486V49.6832H68.5233ZM69.5746 43.672C69.5746 44.5534 69.753 45.2049 70.1099 45.6263C70.4668 46.0477 70.899 46.2583 71.4063 46.2583C71.9223 46.2583 72.3631 46.0412 72.7286 45.6069C73.0984 45.1683 73.2832 44.4911 73.2832 43.5752C73.2832 42.7023 73.1027 42.0487 72.7415 41.6145C72.3846 41.1802 71.9567 40.963 71.4579 40.963C70.9634 40.963 70.5249 41.1952 70.1422 41.6596C69.7638 42.1197 69.5746 42.7905 69.5746 43.672Z" fill="#9F9F9A"/>
<path d="M80.3458 46.2132C79.9158 46.5787 79.5009 46.8367 79.101 46.9872C78.7054 47.1377 78.2797 47.2129 77.8239 47.2129C77.0715 47.2129 76.4931 47.0302 76.0889 46.6647C75.6847 46.2949 75.4826 45.8241 75.4826 45.2522C75.4826 44.9168 75.5579 44.6115 75.7084 44.3363C75.8632 44.0568 76.0631 43.8332 76.3082 43.6655C76.5576 43.4978 76.8371 43.371 77.1467 43.285C77.3746 43.2248 77.7186 43.1667 78.1787 43.1108C79.1161 42.999 79.8062 42.8657 80.2491 42.7109C80.2534 42.5518 80.2555 42.4508 80.2555 42.4078C80.2555 41.9348 80.1459 41.6016 79.9266 41.4081C79.6299 41.1458 79.1892 41.0146 78.6044 41.0146C78.0583 41.0146 77.6541 41.1114 77.3918 41.3049C77.1338 41.4941 76.9425 41.8316 76.8178 42.3175L75.6826 42.1627C75.7858 41.6768 75.9556 41.2855 76.1921 40.9888C76.4286 40.6878 76.7705 40.4578 77.2177 40.2987C77.6648 40.1353 78.183 40.0536 78.7721 40.0536C79.3569 40.0536 79.832 40.1224 80.1975 40.26C80.563 40.3976 80.8317 40.5717 81.0037 40.7824C81.1757 40.9888 81.2961 41.2511 81.3649 41.5693C81.4036 41.7671 81.423 42.124 81.423 42.64V44.1879C81.423 45.2672 81.4466 45.9509 81.4939 46.239C81.5455 46.5228 81.6444 46.7958 81.7906 47.0581H80.578C80.4576 46.8173 80.3802 46.5357 80.3458 46.2132ZM80.2491 43.6204C79.8277 43.7924 79.1956 43.9386 78.3528 44.0589C77.8755 44.1277 77.538 44.2051 77.3402 44.2911C77.1424 44.3771 76.9898 44.504 76.8823 44.6717C76.7748 44.8351 76.721 45.0178 76.721 45.2199C76.721 45.5295 76.8371 45.7875 77.0693 45.9939C77.3058 46.2003 77.6498 46.3035 78.1013 46.3035C78.5485 46.3035 78.9462 46.2068 79.2945 46.0133C79.6428 45.8155 79.8986 45.5467 80.062 45.207C80.1867 44.9447 80.2491 44.5577 80.2491 44.046V43.6204Z" fill="#9F9F9A"/>
<path d="M84.5898 43.9622V43.0528C85.08 43.0485 85.4133 43.0291 85.5896 42.9947C85.7702 42.9603 85.94 42.8571 86.0991 42.6851C86.2582 42.5131 86.3378 42.2981 86.3378 42.0401C86.3378 41.7263 86.2324 41.4769 86.0217 41.292C85.8153 41.1028 85.5466 41.0082 85.2155 41.0082C84.5619 41.0082 84.104 41.393 83.8417 42.1627L82.7387 41.9821C83.0827 40.6964 83.9126 40.0536 85.2284 40.0536C85.9594 40.0536 86.5312 40.2535 86.944 40.6534C87.3611 41.0533 87.5697 41.5306 87.5697 42.0853C87.5697 42.6443 87.2988 43.0893 86.757 43.4204C87.101 43.6053 87.359 43.8418 87.531 44.1299C87.703 44.4137 87.789 44.7512 87.789 45.1425C87.789 45.7574 87.5654 46.2562 87.1182 46.6389C86.671 47.0216 86.0454 47.2129 85.2413 47.2129C83.6804 47.2129 82.7753 46.5185 82.5259 45.1296L83.6159 44.8974C83.7148 45.336 83.9148 45.6757 84.2158 45.9165C84.521 46.1573 84.8693 46.2777 85.2606 46.2777C85.6519 46.2777 85.9766 46.1681 86.2346 45.9488C86.4969 45.7252 86.628 45.4414 86.628 45.0974C86.628 44.8308 86.5463 44.5986 86.3829 44.4008C86.2195 44.203 86.0454 44.0804 85.8605 44.0331C85.6756 43.9816 85.3402 43.9558 84.8543 43.9558C84.8156 43.9558 84.7274 43.9579 84.5898 43.9622Z" fill="#9F9F9A"/>
<path d="M89.7562 40.2084H94.5291V46.1036H95.2708V48.9995H94.3162V47.0581H88.9241V48.9995H87.9696V46.1036H88.5823C89.3993 44.9942 89.7906 43.0291 89.7562 40.2084ZM90.7237 41.1694C90.6377 43.3925 90.2937 45.0372 89.6917 46.1036H93.3745V41.1694H90.7237Z" fill="#9F9F9A"/>
<path d="M101.243 44.8523L102.443 45.0006C102.254 45.7015 101.903 46.2454 101.392 46.6324C100.88 47.0194 100.226 47.2129 99.431 47.2129C98.4291 47.2129 97.6336 46.9055 97.0445 46.2906C96.4597 45.6714 96.1673 44.805 96.1673 43.6913C96.1673 42.5389 96.464 41.6446 97.0574 41.0082C97.6508 40.3718 98.4205 40.0536 99.3665 40.0536C100.282 40.0536 101.031 40.3653 101.611 40.9888C102.191 41.6123 102.482 42.4895 102.482 43.6204C102.482 43.6892 102.48 43.7924 102.475 43.93H97.367C97.41 44.6824 97.6228 45.2586 98.0055 45.6585C98.3882 46.0584 98.8655 46.2583 99.4374 46.2583C99.8631 46.2583 100.226 46.1466 100.527 45.923C100.828 45.6994 101.067 45.3425 101.243 44.8523ZM97.4315 42.9754H101.256C101.205 42.3992 101.058 41.967 100.818 41.679C100.448 41.2318 99.9684 41.0082 99.3794 41.0082C98.8462 41.0082 98.3968 41.1866 98.0313 41.5435C97.6701 41.9004 97.4702 42.3777 97.4315 42.9754Z" fill="#9F9F9A"/>
<path d="M104.036 40.2084H109.428V47.0581H108.274V41.1694H105.197V44.5814C105.197 45.3769 105.171 45.9015 105.12 46.1552C105.068 46.4088 104.926 46.6303 104.694 46.8195C104.462 47.0087 104.126 47.1033 103.688 47.1033C103.417 47.1033 103.105 47.0861 102.753 47.0517V46.0842H103.262C103.503 46.0842 103.675 46.0606 103.778 46.0133C103.881 45.9617 103.95 45.8821 103.985 45.7746C104.019 45.6671 104.036 45.3167 104.036 44.7233V40.2084Z" fill="#9F9F9A"/>
<path d="M111.183 40.2084H112.344V45.4328L115.562 40.2084H116.813V47.0581H115.652V41.866L112.434 47.0581H111.183V40.2084Z" fill="#9F9F9A"/>
<path d="M117.936 40.2084H123.502V41.1694H121.296V47.0581H120.141V41.1694H117.936V40.2084Z" fill="#9F9F9A"/>
<path d="M129.145 44.8523L130.345 45.0006C130.156 45.7015 129.805 46.2454 129.294 46.6324C128.782 47.0194 128.129 47.2129 127.333 47.2129C126.331 47.2129 125.536 46.9055 124.947 46.2906C124.362 45.6714 124.069 44.805 124.069 43.6913C124.069 42.5389 124.366 41.6446 124.959 41.0082C125.553 40.3718 126.323 40.0536 127.269 40.0536C128.184 40.0536 128.933 40.3653 129.513 40.9888C130.094 41.6123 130.384 42.4895 130.384 43.6204C130.384 43.6892 130.382 43.7924 130.377 43.93H125.269C125.312 44.6824 125.525 45.2586 125.908 45.6585C126.29 46.0584 126.768 46.2583 127.339 46.2583C127.765 46.2583 128.129 46.1466 128.43 45.923C128.731 45.6994 128.969 45.3425 129.145 44.8523ZM125.334 42.9754H129.158C129.107 42.3992 128.961 41.967 128.72 41.679C128.35 41.2318 127.871 41.0082 127.281 41.0082C126.748 41.0082 126.299 41.1866 125.933 41.5435C125.572 41.9004 125.372 42.3777 125.334 42.9754Z" fill="#9F9F9A"/>
<path d="M131.938 40.2084H137.33V47.0581H136.176V41.1694H133.099V44.5814C133.099 45.3769 133.073 45.9015 133.022 46.1552C132.97 46.4088 132.828 46.6303 132.596 46.8195C132.364 47.0087 132.029 47.1033 131.59 47.1033C131.319 47.1033 131.007 47.0861 130.655 47.0517V46.0842H131.164C131.405 46.0842 131.577 46.0606 131.68 46.0133C131.783 45.9617 131.852 45.8821 131.887 45.7746C131.921 45.6671 131.938 45.3167 131.938 44.7233V40.2084Z" fill="#9F9F9A"/>
<path d="M139.065 40.2084H140.226V42.8851H141.697C142.656 42.8851 143.393 43.0721 143.909 43.4462C144.429 43.816 144.69 44.3277 144.69 44.9813C144.69 45.5532 144.472 46.0434 144.038 46.4518C143.608 46.856 142.918 47.0581 141.968 47.0581H139.065V40.2084ZM140.226 46.1036H141.445C142.181 46.1036 142.705 46.0133 143.019 45.8327C143.333 45.6521 143.49 45.3704 143.49 44.9877C143.49 44.691 143.374 44.4266 143.142 44.1944C142.909 43.9622 142.396 43.8461 141.6 43.8461H140.226V46.1036Z" fill="#9F9F9A"/>
<path d="M163.465 40.2084H164.626V43.0592H167.845V40.2084H169.006V47.0581H167.845V44.0202H164.626V47.0581H163.465V40.2084Z" fill="#9F9F9A"/>
<path d="M170.328 43.6333C170.328 42.3648 170.68 41.4253 171.386 40.8147C171.975 40.3073 172.693 40.0536 173.54 40.0536C174.481 40.0536 175.251 40.3632 175.849 40.9824C176.447 41.5973 176.745 42.4486 176.745 43.5365C176.745 44.418 176.612 45.1124 176.345 45.6198C176.083 46.1229 175.698 46.5142 175.191 46.7937C174.688 47.0732 174.137 47.2129 173.54 47.2129C172.581 47.2129 171.805 46.9055 171.211 46.2906C170.622 45.6757 170.328 44.7899 170.328 43.6333ZM171.521 43.6333C171.521 44.5104 171.712 45.1683 172.095 45.6069C172.478 46.0412 172.959 46.2583 173.54 46.2583C174.116 46.2583 174.595 46.0391 174.978 45.6005C175.361 45.1619 175.552 44.4932 175.552 43.5946C175.552 42.7475 175.359 42.1068 174.972 41.6725C174.589 41.2339 174.112 41.0146 173.54 41.0146C172.959 41.0146 172.478 41.2318 172.095 41.6661C171.712 42.1003 171.521 42.7561 171.521 43.6333Z" fill="#9F9F9A"/>
<path d="M178.145 40.2084H179.951L181.75 45.6908L183.75 40.2084H185.42V47.0581H184.259V41.5435L182.234 47.0581H181.196L179.28 41.2791V47.0581H178.145V40.2084Z" fill="#9F9F9A"/>
<path d="M191.883 44.8523L193.083 45.0006C192.894 45.7015 192.543 46.2454 192.032 46.6324C191.52 47.0194 190.866 47.2129 190.071 47.2129C189.069 47.2129 188.273 46.9055 187.684 46.2906C187.1 45.6714 186.807 44.805 186.807 43.6913C186.807 42.5389 187.104 41.6446 187.697 41.0082C188.291 40.3718 189.06 40.0536 190.006 40.0536C190.922 40.0536 191.67 40.3653 192.251 40.9888C192.831 41.6123 193.122 42.4895 193.122 43.6204C193.122 43.6892 193.119 43.7924 193.115 43.93H188.007C188.05 44.6824 188.263 45.2586 188.645 45.6585C189.028 46.0584 189.505 46.2583 190.077 46.2583C190.503 46.2583 190.866 46.1466 191.167 45.923C191.468 45.6994 191.707 45.3425 191.883 44.8523ZM188.071 42.9754H191.896C191.844 42.3992 191.698 41.967 191.457 41.679C191.088 41.2318 190.608 41.0082 190.019 41.0082C189.486 41.0082 189.037 41.1866 188.671 41.5435C188.31 41.9004 188.11 42.3777 188.071 42.9754Z" fill="#9F9F9A"/>
<path d="M194.547 49.6832V40.2084H195.605V41.0985C195.854 40.7502 196.136 40.49 196.45 40.318C196.764 40.1417 197.144 40.0536 197.591 40.0536C198.176 40.0536 198.692 40.2041 199.139 40.5051C199.586 40.8061 199.924 41.2318 200.152 41.7821C200.38 42.3282 200.494 42.9281 200.494 43.5817C200.494 44.2825 200.367 44.9146 200.113 45.4779C199.864 46.0369 199.498 46.4669 199.017 46.7679C198.539 47.0646 198.036 47.2129 197.507 47.2129C197.12 47.2129 196.772 47.1312 196.463 46.9678C196.157 46.8044 195.906 46.598 195.708 46.3486V49.6832H194.547ZM195.598 43.672C195.598 44.5534 195.777 45.2049 196.134 45.6263C196.491 46.0477 196.923 46.2583 197.43 46.2583C197.946 46.2583 198.387 46.0412 198.752 45.6069C199.122 45.1683 199.307 44.4911 199.307 43.5752C199.307 42.7023 199.126 42.0487 198.765 41.6145C198.408 41.1802 197.98 40.963 197.482 40.963C196.987 40.963 196.549 41.1952 196.166 41.6596C195.787 42.1197 195.598 42.7905 195.598 43.672Z" fill="#9F9F9A"/>
<path d="M181.186 18.4192V19.814H173.373C173.363 19.4646 173.419 19.1287 173.543 18.8062C173.742 18.274 174.059 17.75 174.494 17.234C174.935 16.718 175.569 16.1214 176.397 15.4442C177.681 14.3907 178.549 13.5576 179.001 12.9449C179.452 12.3267 179.678 11.7436 179.678 11.1953C179.678 10.6202 179.471 10.1365 179.057 9.74412C178.649 9.34638 178.114 9.14751 177.453 9.14751C176.754 9.14751 176.195 9.35713 175.776 9.77637C175.357 10.1956 175.144 10.7761 175.139 11.5178L173.647 11.3646C173.75 10.252 174.134 9.4055 174.8 8.82501C175.467 8.23915 176.362 7.94622 177.485 7.94622C178.619 7.94622 179.517 8.26065 180.178 8.88951C180.839 9.51837 181.17 10.2977 181.17 11.2276C181.17 11.7006 181.073 12.1655 180.879 12.6224C180.686 13.0792 180.363 13.5603 179.912 14.0655C179.466 14.5708 178.721 15.2641 177.679 16.1456C176.808 16.8766 176.249 17.3738 176.002 17.6371C175.754 17.8951 175.55 18.1558 175.389 18.4192H181.186Z" fill="black"/>
<path d="M182.758 16.6938L184.209 16.5003C184.376 17.3227 184.658 17.9166 185.056 18.2821C185.459 18.6422 185.948 18.8223 186.523 18.8223C187.206 18.8223 187.781 18.5858 188.248 18.1128C188.721 17.6398 188.958 17.054 188.958 16.3552C188.958 15.6887 188.74 15.1405 188.305 14.7105C187.869 14.2751 187.316 14.0575 186.644 14.0575C186.37 14.0575 186.029 14.1112 185.62 14.2187L185.781 12.9449C185.878 12.9556 185.956 12.961 186.015 12.961C186.633 12.961 187.19 12.7997 187.684 12.4772C188.178 12.1548 188.426 11.6576 188.426 10.9857C188.426 10.4536 188.246 10.0129 187.886 9.66349C187.525 9.31413 187.061 9.13944 186.491 9.13944C185.926 9.13944 185.456 9.31681 185.08 9.67156C184.704 10.0263 184.462 10.5584 184.354 11.2679L182.903 11.0099C183.08 10.037 183.484 9.28457 184.112 8.75245C184.741 8.21496 185.523 7.94622 186.459 7.94622C187.104 7.94622 187.697 8.08597 188.24 8.36546C188.783 8.63958 189.197 9.01582 189.482 9.49419C189.772 9.97255 189.917 10.4805 189.917 11.018C189.917 11.5286 189.78 11.9935 189.506 12.4127C189.232 12.832 188.826 13.1652 188.289 13.4125C188.987 13.5737 189.53 13.9096 189.917 14.4203C190.304 14.9255 190.498 15.5597 190.498 16.323C190.498 17.3549 190.121 18.2311 189.369 18.9513C188.617 19.6661 187.665 20.0236 186.515 20.0236C185.478 20.0236 184.615 19.7145 183.927 19.0964C183.244 18.4783 182.855 17.6774 182.758 16.6938Z" fill="black"/>
<path d="M104.023 16.2665V14.8073H108.482V16.2665H104.023Z" fill="black"/>
<path d="M5.77907 70.6744H56.9651C59.8807 70.6744 62.2442 73.0379 62.2442 75.9535V93.2907C62.2442 96.2062 59.8807 98.5698 56.9651 98.5698H5.77907C2.86352 98.5698 0.5 96.2062 0.5 93.2907V75.9535C0.5 73.0379 2.86352 70.6744 5.77907 70.6744Z" stroke="#B3B3B2"/>
<path d="M156.035 70.6744H207.221C210.136 70.6744 212.5 73.0379 212.5 75.9535V93.2907C212.5 96.2062 210.136 98.5698 207.221 98.5698H156.035C153.119 98.5698 150.756 96.2062 150.756 93.2907V75.9535C150.756 73.0379 153.119 70.6744 156.035 70.6744Z" stroke="#B3B3B2"/>
<path d="M30.9299 88.5936V89.9884H23.1176C23.1068 89.639 23.1632 89.3031 23.2869 88.9806C23.4857 88.4485 23.8029 87.9244 24.2382 87.4084C24.679 86.8924 25.3132 86.2958 26.1409 85.6186C27.4255 84.5651 28.2936 83.732 28.7451 83.1193C29.1965 82.5012 29.4223 81.918 29.4223 81.3698C29.4223 80.7946 29.2154 80.3109 28.8015 79.9185C28.393 79.5208 27.8582 79.3219 27.1971 79.3219C26.4984 79.3219 25.9394 79.5315 25.5201 79.9508C25.1009 80.37 24.8886 80.9505 24.8832 81.6922L23.3917 81.5391C23.4938 80.4265 23.8781 79.5799 24.5446 78.9994C25.2111 78.4136 26.106 78.1206 27.2293 78.1206C28.3634 78.1206 29.261 78.4351 29.9222 79.0639C30.5833 79.6928 30.9138 80.4721 30.9138 81.402C30.9138 81.875 30.8171 82.3399 30.6236 82.7968C30.4301 83.2536 30.1076 83.7347 29.6561 84.2399C29.21 84.7452 28.4656 85.4385 27.4228 86.32C26.5521 87.051 25.9931 87.5482 25.7459 87.8115C25.4986 88.0695 25.2944 88.3302 25.1331 88.5936H30.9299Z" fill="black"/>
<path d="M40.121 88.5936V89.9884H32.3086C32.2979 89.639 32.3543 89.3031 32.4779 88.9806C32.6768 88.4485 32.9939 87.9244 33.4293 87.4084C33.87 86.8924 34.5042 86.2958 35.332 85.6186C36.6166 84.5651 37.4846 83.732 37.9361 83.1193C38.3876 82.5012 38.6133 81.918 38.6133 81.3698C38.6133 80.7946 38.4064 80.3109 37.9925 79.9185C37.584 79.5208 37.0492 79.3219 36.3881 79.3219C35.6894 79.3219 35.1304 79.5315 34.7112 79.9508C34.2919 80.37 34.0796 80.9505 34.0743 81.6922L32.5827 81.5391C32.6848 80.4265 33.0691 79.5799 33.7356 78.9994C34.4021 78.4136 35.297 78.1206 36.4204 78.1206C37.5545 78.1206 38.4521 78.4351 39.1132 79.0639C39.7743 79.6928 40.1049 80.4721 40.1049 81.402C40.1049 81.875 40.0081 82.3399 39.8146 82.7968C39.6211 83.2536 39.2986 83.7347 38.8471 84.2399C38.401 84.7452 37.6566 85.4385 36.6139 86.32C35.7432 87.051 35.1842 87.5482 34.9369 87.8115C34.6897 88.0695 34.4854 88.3302 34.3242 88.5936H40.121Z" fill="black"/>
<path d="M5.77907 110.383H11.184V117.233H10.0231V111.344H6.94004V117.233H5.77907V110.383Z" fill="#9F9F9A"/>
<path d="M12.932 119.858V110.383H13.9897V111.273C14.2391 110.925 14.5208 110.664 14.8347 110.492C15.1486 110.316 15.5291 110.228 15.9763 110.228C16.5611 110.228 17.0771 110.379 17.5243 110.68C17.9714 110.98 18.309 111.406 18.5369 111.957C18.7648 112.503 18.8787 113.102 18.8787 113.756C18.8787 114.457 18.7519 115.089 18.4982 115.652C18.2488 116.211 17.8833 116.641 17.4017 116.942C16.9244 117.239 16.4213 117.387 15.8924 117.387C15.5054 117.387 15.1572 117.306 14.8476 117.142C14.5423 116.979 14.2907 116.772 14.0929 116.523V119.858H12.932ZM13.9833 113.846C13.9833 114.728 14.1617 115.379 14.5186 115.801C14.8755 116.222 15.3077 116.433 15.815 116.433C16.331 116.433 16.7718 116.216 17.1373 115.781C17.5071 115.343 17.692 114.666 17.692 113.75C17.692 112.877 17.5114 112.223 17.1502 111.789C16.7933 111.355 16.3654 111.137 15.8666 111.137C15.3722 111.137 14.9336 111.37 14.5509 111.834C14.1725 112.294 13.9833 112.965 13.9833 113.846Z" fill="#9F9F9A"/>
<path d="M24.9738 115.027L26.1735 115.175C25.9843 115.876 25.6339 116.42 25.1222 116.807C24.6105 117.194 23.9569 117.387 23.1614 117.387C22.1595 117.387 21.3641 117.08 20.775 116.465C20.1902 115.846 19.8978 114.979 19.8978 113.866C19.8978 112.713 20.1945 111.819 20.7879 111.183C21.3813 110.546 22.1509 110.228 23.0969 110.228C24.0128 110.228 24.761 110.54 25.3415 111.163C25.922 111.787 26.2122 112.664 26.2122 113.795C26.2122 113.864 26.2101 113.967 26.2058 114.104H21.0975C21.1405 114.857 21.3533 115.433 21.736 115.833C22.1187 116.233 22.596 116.433 23.1679 116.433C23.5936 116.433 23.9569 116.321 24.2579 116.097C24.5589 115.874 24.7975 115.517 24.9738 115.027ZM21.162 113.15H24.9867C24.9351 112.574 24.7889 112.141 24.5481 111.853C24.1784 111.406 23.6989 111.183 23.1098 111.183C22.5766 111.183 22.1273 111.361 21.7618 111.718C21.4006 112.075 21.2007 112.552 21.162 113.15Z" fill="#9F9F9A"/>
<path d="M31.6236 107.777H32.7846V111.047C33.0254 110.772 33.2898 110.568 33.5779 110.434C33.866 110.297 34.1756 110.228 34.5067 110.228C35.3194 110.228 35.9622 110.568 36.4352 111.247C36.9125 111.922 37.1512 112.774 37.1512 113.801C37.1512 114.872 36.8953 115.738 36.3836 116.401C35.8719 117.058 35.2356 117.387 34.4745 117.387C34.2251 117.387 33.9714 117.349 33.7134 117.271C33.4554 117.194 33.1458 116.983 32.7846 116.639V119.858H31.6236V116.639C31.3914 116.889 31.1334 117.076 30.8497 117.2C30.5702 117.325 30.267 117.387 29.9402 117.387C29.2221 117.387 28.5944 117.073 28.0569 116.446C27.5194 115.814 27.2506 114.911 27.2506 113.737C27.2506 112.743 27.4936 111.911 27.9795 111.241C28.4654 110.566 29.1189 110.228 29.9402 110.228C30.2842 110.228 30.596 110.297 30.8755 110.434C31.1549 110.568 31.4043 110.772 31.6236 111.047V107.777ZM32.7782 113.833C32.7782 114.865 32.9201 115.56 33.2039 115.917C33.4876 116.269 33.8424 116.446 34.2681 116.446C34.7411 116.446 35.1431 116.229 35.4742 115.794C35.8096 115.356 35.9773 114.676 35.9773 113.756C35.9773 112.888 35.8225 112.24 35.5129 111.815C35.2076 111.389 34.8142 111.176 34.3326 111.176C33.8166 111.176 33.4274 111.398 33.1652 111.84C32.9072 112.283 32.7782 112.948 32.7782 113.833ZM28.431 113.704C28.431 114.672 28.5922 115.369 28.9147 115.794C29.2415 116.22 29.6457 116.433 30.1273 116.433C30.6304 116.433 31.0066 116.222 31.256 115.801C31.5054 115.375 31.6301 114.739 31.6301 113.892C31.6301 112.989 31.4989 112.311 31.2366 111.86C30.9744 111.408 30.5788 111.183 30.0499 111.183C29.5726 111.183 29.1834 111.404 28.8824 111.847C28.5815 112.286 28.431 112.905 28.431 113.704Z" fill="#9F9F9A"/>
<path d="M38.5121 110.383H39.6731V115.607L42.8915 110.383H44.1428V117.233H42.9818V112.04L39.7634 117.233H38.5121V110.383Z" fill="#9F9F9A"/>
<path d="M45.8843 110.383H47.0452V113.343C47.415 113.343 47.673 113.272 47.8192 113.13C47.9697 112.989 48.189 112.576 48.4771 111.892C48.705 111.35 48.8899 110.993 49.0318 110.821C49.1737 110.649 49.3371 110.533 49.522 110.473C49.7069 110.413 50.0036 110.383 50.4121 110.383H50.6443V111.344L50.3218 111.337C50.0165 111.337 49.8208 111.383 49.7348 111.473C49.6445 111.567 49.5069 111.849 49.322 112.318C49.1457 112.765 48.9845 113.075 48.8383 113.247C48.6921 113.419 48.4664 113.575 48.1611 113.717C48.6599 113.851 49.15 114.315 49.6316 115.111L50.9023 117.233H49.6252L48.3868 115.111C48.1331 114.685 47.9117 114.405 47.7225 114.272C47.5333 114.134 47.3075 114.066 47.0452 114.066V117.233H45.8843V110.383Z" fill="#9F9F9A"/>
<path d="M56.2943 114.724L57.436 114.872C57.3113 115.659 56.9909 116.276 56.4749 116.723C55.9632 117.166 55.3333 117.387 54.5851 117.387C53.6477 117.387 52.8931 117.082 52.3212 116.471C51.7536 115.857 51.4698 114.977 51.4698 113.833C51.4698 113.094 51.5924 112.447 51.8375 111.892C52.0826 111.337 52.4545 110.922 52.9533 110.647C53.4564 110.368 54.0025 110.228 54.5916 110.228C55.3355 110.228 55.9439 110.417 56.4169 110.796C56.8899 111.17 57.193 111.703 57.3263 112.395L56.1976 112.569C56.0901 112.109 55.8987 111.763 55.6235 111.531C55.3527 111.299 55.0237 111.183 54.6367 111.183C54.0519 111.183 53.5768 111.393 53.2113 111.815C52.8458 112.232 52.6631 112.894 52.6631 113.801C52.6631 114.721 52.8394 115.39 53.192 115.807C53.5445 116.224 54.0046 116.433 54.5722 116.433C55.028 116.433 55.4086 116.293 55.7138 116.014C56.0191 115.734 56.2126 115.304 56.2943 114.724Z" fill="#9F9F9A"/>
<path d="M68.5233 119.858V110.383H69.581V111.273C69.8304 110.925 70.1121 110.664 70.426 110.492C70.7399 110.316 71.1204 110.228 71.5676 110.228C72.1524 110.228 72.6684 110.379 73.1156 110.68C73.5627 110.981 73.9003 111.406 74.1282 111.957C74.3561 112.503 74.47 113.103 74.47 113.756C74.47 114.457 74.3432 115.089 74.0895 115.652C73.8401 116.211 73.4746 116.641 72.993 116.942C72.5157 117.239 72.0126 117.387 71.4837 117.387C71.0967 117.387 70.7485 117.306 70.4389 117.142C70.1336 116.979 69.882 116.772 69.6842 116.523V119.858H68.5233ZM69.5746 113.846C69.5746 114.728 69.753 115.379 70.1099 115.801C70.4668 116.222 70.899 116.433 71.4063 116.433C71.9223 116.433 72.3631 116.216 72.7286 115.781C73.0984 115.343 73.2832 114.666 73.2832 113.75C73.2832 112.877 73.1027 112.223 72.7415 111.789C72.3846 111.355 71.9567 111.137 71.4579 111.137C70.9634 111.137 70.5249 111.37 70.1422 111.834C69.7638 112.294 69.5746 112.965 69.5746 113.846Z" fill="#9F9F9A"/>
<path d="M80.3458 116.388C79.9158 116.753 79.5009 117.011 79.101 117.162C78.7054 117.312 78.2797 117.387 77.8239 117.387C77.0715 117.387 76.4931 117.205 76.0889 116.839C75.6847 116.469 75.4826 115.998 75.4826 115.427C75.4826 115.091 75.5579 114.786 75.7084 114.511C75.8632 114.231 76.0631 114.008 76.3082 113.84C76.5576 113.672 76.8371 113.545 77.1467 113.459C77.3746 113.399 77.7186 113.341 78.1787 113.285C79.1161 113.173 79.8062 113.04 80.2491 112.885C80.2534 112.726 80.2555 112.625 80.2555 112.582C80.2555 112.109 80.1459 111.776 79.9266 111.582C79.6299 111.32 79.1892 111.189 78.6044 111.189C78.0583 111.189 77.6541 111.286 77.3918 111.479C77.1338 111.668 76.9425 112.006 76.8178 112.492L75.6826 112.337C75.7858 111.851 75.9556 111.46 76.1921 111.163C76.4286 110.862 76.7705 110.632 77.2177 110.473C77.6648 110.31 78.183 110.228 78.7721 110.228C79.3569 110.228 79.832 110.297 80.1975 110.434C80.563 110.572 80.8317 110.746 81.0037 110.957C81.1757 111.163 81.2961 111.426 81.3649 111.744C81.4036 111.942 81.423 112.298 81.423 112.814V114.362C81.423 115.442 81.4466 116.125 81.4939 116.413C81.5455 116.697 81.6444 116.97 81.7906 117.233H80.578C80.4576 116.992 80.3802 116.71 80.3458 116.388ZM80.2491 113.795C79.8277 113.967 79.1956 114.113 78.3528 114.233C77.8755 114.302 77.538 114.38 77.3402 114.466C77.1424 114.552 76.9898 114.678 76.8823 114.846C76.7748 115.01 76.721 115.192 76.721 115.394C76.721 115.704 76.8371 115.962 77.0693 116.168C77.3058 116.375 77.6498 116.478 78.1013 116.478C78.5485 116.478 78.9462 116.381 79.2945 116.188C79.6428 115.99 79.8986 115.721 80.062 115.381C80.1867 115.119 80.2491 114.732 80.2491 114.22V113.795Z" fill="#9F9F9A"/>
<path d="M84.5898 114.137V113.227C85.08 113.223 85.4133 113.204 85.5896 113.169C85.7702 113.135 85.94 113.032 86.0991 112.86C86.2582 112.688 86.3378 112.473 86.3378 112.215C86.3378 111.901 86.2324 111.651 86.0217 111.466C85.8153 111.277 85.5466 111.183 85.2155 111.183C84.5619 111.183 84.104 111.567 83.8417 112.337L82.7387 112.157C83.0827 110.871 83.9126 110.228 85.2284 110.228C85.9594 110.228 86.5312 110.428 86.944 110.828C87.3611 111.228 87.5697 111.705 87.5697 112.26C87.5697 112.819 87.2988 113.264 86.757 113.595C87.101 113.78 87.359 114.016 87.531 114.304C87.703 114.588 87.789 114.926 87.789 115.317C87.789 115.932 87.5654 116.431 87.1182 116.813C86.671 117.196 86.0454 117.387 85.2413 117.387C83.6804 117.387 82.7753 116.693 82.5259 115.304L83.6159 115.072C83.7148 115.51 83.9148 115.85 84.2158 116.091C84.521 116.332 84.8693 116.452 85.2606 116.452C85.6519 116.452 85.9766 116.342 86.2346 116.123C86.4969 115.9 86.628 115.616 86.628 115.272C86.628 115.005 86.5463 114.773 86.3829 114.575C86.2195 114.377 86.0454 114.255 85.8605 114.208C85.6756 114.156 85.3402 114.13 84.8543 114.13C84.8156 114.13 84.7274 114.132 84.5898 114.137Z" fill="#9F9F9A"/>
<path d="M89.7562 110.383H94.5291V116.278H95.2708V119.174H94.3162V117.233H88.9241V119.174H87.9696V116.278H88.5823C89.3993 115.169 89.7906 113.204 89.7562 110.383ZM90.7237 111.344C90.6377 113.567 90.2937 115.212 89.6917 116.278H93.3745V111.344H90.7237Z" fill="#9F9F9A"/>
<path d="M101.243 115.027L102.443 115.175C102.254 115.876 101.903 116.42 101.392 116.807C100.88 117.194 100.226 117.387 99.431 117.387C98.4291 117.387 97.6336 117.08 97.0445 116.465C96.4597 115.846 96.1673 114.979 96.1673 113.866C96.1673 112.713 96.464 111.819 97.0574 111.183C97.6508 110.546 98.4205 110.228 99.3665 110.228C100.282 110.228 101.031 110.54 101.611 111.163C102.191 111.787 102.482 112.664 102.482 113.795C102.482 113.864 102.48 113.967 102.475 114.104H97.367C97.41 114.857 97.6228 115.433 98.0055 115.833C98.3882 116.233 98.8655 116.433 99.4374 116.433C99.8631 116.433 100.226 116.321 100.527 116.097C100.828 115.874 101.067 115.517 101.243 115.027ZM97.4315 113.15H101.256C101.205 112.574 101.058 112.141 100.818 111.853C100.448 111.406 99.9684 111.183 99.3794 111.183C98.8462 111.183 98.3968 111.361 98.0313 111.718C97.6701 112.075 97.4702 112.552 97.4315 113.15Z" fill="#9F9F9A"/>
<path d="M104.036 110.383H109.428V117.233H108.274V111.344H105.197V114.756C105.197 115.551 105.171 116.076 105.12 116.33C105.068 116.583 104.926 116.805 104.694 116.994C104.462 117.183 104.126 117.278 103.688 117.278C103.417 117.278 103.105 117.261 102.753 117.226V116.259H103.262C103.503 116.259 103.675 116.235 103.778 116.188C103.881 116.136 103.95 116.057 103.985 115.949C104.019 115.842 104.036 115.491 104.036 114.898V110.383Z" fill="#9F9F9A"/>
<path d="M111.183 110.383H112.344V115.607L115.562 110.383H116.813V117.233H115.652V112.04L112.434 117.233H111.183V110.383Z" fill="#9F9F9A"/>
<path d="M117.936 110.383H123.502V111.344H121.296V117.233H120.141V111.344H117.936V110.383Z" fill="#9F9F9A"/>
<path d="M129.145 115.027L130.345 115.175C130.156 115.876 129.805 116.42 129.294 116.807C128.782 117.194 128.129 117.387 127.333 117.387C126.331 117.387 125.536 117.08 124.947 116.465C124.362 115.846 124.069 114.979 124.069 113.866C124.069 112.713 124.366 111.819 124.959 111.183C125.553 110.546 126.323 110.228 127.269 110.228C128.184 110.228 128.933 110.54 129.513 111.163C130.094 111.787 130.384 112.664 130.384 113.795C130.384 113.864 130.382 113.967 130.377 114.104H125.269C125.312 114.857 125.525 115.433 125.908 115.833C126.29 116.233 126.768 116.433 127.339 116.433C127.765 116.433 128.129 116.321 128.43 116.097C128.731 115.874 128.969 115.517 129.145 115.027ZM125.334 113.15H129.158C129.107 112.574 128.961 112.141 128.72 111.853C128.35 111.406 127.871 111.183 127.281 111.183C126.748 111.183 126.299 111.361 125.933 111.718C125.572 112.075 125.372 112.552 125.334 113.15Z" fill="#9F9F9A"/>
<path d="M131.938 110.383H137.33V117.233H136.176V111.344H133.099V114.756C133.099 115.551 133.073 116.076 133.022 116.33C132.97 116.583 132.828 116.805 132.596 116.994C132.364 117.183 132.029 117.278 131.59 117.278C131.319 117.278 131.007 117.261 130.655 117.226V116.259H131.164C131.405 116.259 131.577 116.235 131.68 116.188C131.783 116.136 131.852 116.057 131.887 115.949C131.921 115.842 131.938 115.491 131.938 114.898V110.383Z" fill="#9F9F9A"/>
<path d="M139.065 110.383H140.226V113.06H141.697C142.656 113.06 143.393 113.247 143.909 113.621C144.429 113.99 144.69 114.502 144.69 115.156C144.69 115.728 144.472 116.218 144.038 116.626C143.608 117.03 142.918 117.233 141.968 117.233H139.065V110.383ZM140.226 116.278H141.445C142.181 116.278 142.705 116.188 143.019 116.007C143.333 115.827 143.49 115.545 143.49 115.162C143.49 114.865 143.374 114.601 143.142 114.369C142.909 114.137 142.396 114.021 141.6 114.021H140.226V116.278Z" fill="#9F9F9A"/>
<path d="M163.465 110.383H164.626V113.234H167.845V110.383H169.006V117.233H167.845V114.195H164.626V117.233H163.465V110.383Z" fill="#9F9F9A"/>
<path d="M170.328 113.808C170.328 112.539 170.68 111.6 171.386 110.989C171.975 110.482 172.693 110.228 173.54 110.228C174.481 110.228 175.251 110.538 175.849 111.157C176.447 111.772 176.745 112.623 176.745 113.711C176.745 114.592 176.612 115.287 176.345 115.794C176.083 116.297 175.698 116.689 175.191 116.968C174.688 117.248 174.137 117.387 173.54 117.387C172.581 117.387 171.805 117.08 171.211 116.465C170.622 115.85 170.328 114.964 170.328 113.808ZM171.521 113.808C171.521 114.685 171.712 115.343 172.095 115.781C172.478 116.216 172.959 116.433 173.54 116.433C174.116 116.433 174.595 116.213 174.978 115.775C175.361 115.336 175.552 114.668 175.552 113.769C175.552 112.922 175.359 112.281 174.972 111.847C174.589 111.408 174.112 111.189 173.54 111.189C172.959 111.189 172.478 111.406 172.095 111.84C171.712 112.275 171.521 112.931 171.521 113.808Z" fill="#9F9F9A"/>
<path d="M178.145 110.383H179.951L181.75 115.865L183.75 110.383H185.42V117.233H184.259V111.718L182.234 117.233H181.196L179.28 111.453V117.233H178.145V110.383Z" fill="#9F9F9A"/>
<path d="M191.883 115.027L193.083 115.175C192.894 115.876 192.543 116.42 192.032 116.807C191.52 117.194 190.866 117.387 190.071 117.387C189.069 117.387 188.273 117.08 187.684 116.465C187.1 115.846 186.807 114.979 186.807 113.866C186.807 112.713 187.104 111.819 187.697 111.183C188.291 110.546 189.06 110.228 190.006 110.228C190.922 110.228 191.67 110.54 192.251 111.163C192.831 111.787 193.122 112.664 193.122 113.795C193.122 113.864 193.119 113.967 193.115 114.104H188.007C188.05 114.857 188.263 115.433 188.645 115.833C189.028 116.233 189.505 116.433 190.077 116.433C190.503 116.433 190.866 116.321 191.167 116.097C191.468 115.874 191.707 115.517 191.883 115.027ZM188.071 113.15H191.896C191.844 112.574 191.698 112.141 191.457 111.853C191.088 111.406 190.608 111.183 190.019 111.183C189.486 111.183 189.037 111.361 188.671 111.718C188.31 112.075 188.11 112.552 188.071 113.15Z" fill="#9F9F9A"/>
<path d="M194.547 119.858V110.383H195.605V111.273C195.854 110.925 196.136 110.664 196.45 110.492C196.764 110.316 197.144 110.228 197.591 110.228C198.176 110.228 198.692 110.379 199.139 110.68C199.586 110.981 199.924 111.406 200.152 111.957C200.38 112.503 200.494 113.103 200.494 113.756C200.494 114.457 200.367 115.089 200.113 115.652C199.864 116.211 199.498 116.641 199.017 116.942C198.539 117.239 198.036 117.387 197.507 117.387C197.12 117.387 196.772 117.306 196.463 117.142C196.157 116.979 195.906 116.772 195.708 116.523V119.858H194.547ZM195.598 113.846C195.598 114.728 195.777 115.379 196.134 115.801C196.491 116.222 196.923 116.433 197.43 116.433C197.946 116.433 198.387 116.216 198.752 115.781C199.122 115.343 199.307 114.666 199.307 113.75C199.307 112.877 199.126 112.223 198.765 111.789C198.408 111.355 197.98 111.137 197.482 111.137C196.987 111.137 196.549 111.37 196.166 111.834C195.787 112.294 195.598 112.965 195.598 113.846Z" fill="#9F9F9A"/>
<path d="M183.505 89.9884H182.054V80.7409C181.704 81.0741 181.245 81.4074 180.675 81.7406C180.111 82.0739 179.603 82.3238 179.151 82.4904V81.0876C179.963 80.706 180.672 80.2437 181.28 79.7009C181.887 79.158 182.317 78.6312 182.57 78.1206H183.505V89.9884Z" fill="black"/>
<path d="M104.023 90.1899L107.45 77.9675H108.611L105.192 90.1899H104.023Z" fill="black"/>
</svg>
