<svg width="256" height="16" viewBox="0 0 256 16" fill="none" xmlns="http://www.w3.org/2000/svg">
<g clip-path="url(#clip0_139_179)">
<path opacity="0.8" d="M13 2H3V15H13V2Z" fill="#5C5D60"/>
<path d="M12 3H4V14H12V3Z" fill="#E7EEF9"/>
<path d="M10.5 1.5H5.5V3.5H10.5V1.5Z" fill="#EBC803" stroke="#BD9730"/>
<path opacity="0.6" d="M11 10H5V11H11V10Z" fill="#6C6F74"/>
<path opacity="0.6" d="M11 6H5V7H11V6Z" fill="#6C6F74"/>
<path opacity="0.6" d="M11 12H5V13H11V12Z" fill="#6C6F74"/>
<path opacity="0.6" d="M11 8H5V9H11V8Z" fill="#6C6F74"/>
<path opacity="0.8" d="M29 2H19V15H29V2Z" fill="#5C5D60"/>
<path d="M28 3H20V14H28V3Z" fill="#E7EEF9"/>
<path d="M26.5 1.5H21.5V3.5H26.5V1.5Z" fill="#EBC803" stroke="#BD9730"/>
<path opacity="0.6" d="M27 10H21V11H27V10Z" fill="#6C6F74"/>
<path opacity="0.6" d="M27 6H21V7H27V6Z" fill="#6C6F74"/>
<path opacity="0.6" d="M27 12H21V13H27V12Z" fill="#6C6F74"/>
<path opacity="0.6" d="M27 8H21V9H27V8Z" fill="#6C6F74"/>
<path d="M28 1.6665L31 5.6665H25L28 1.6665Z" fill="#2562B5"/>
<path fill-rule="evenodd" clip-rule="evenodd" d="M28 0L31.8 5.06667C32.2944 5.7259 31.824 6.66667 31 6.66667H30V8.66667C30 9.77124 29.1046 10.6667 28 10.6667C26.8954 10.6667 26 9.77124 26 8.66667V6.66667H25C24.176 6.66667 23.7056 5.7259 24.2 5.06667L28 0ZM27 5.66667V8.66667C27 9.21895 27.4477 9.66667 28 9.66667C28.5523 9.66667 29 9.21895 29 8.66667V5.66667H31L28 1.66667L25 5.66667H27Z" fill="white"/>
<path opacity="0.8" d="M45 2H35V15H45V2Z" fill="#5C5D60"/>
<path d="M44 3H36V14H44V3Z" fill="#E7EEF9"/>
<path d="M42.5 1.5H37.5V3.5H42.5V1.5Z" fill="#EBC803" stroke="#BD9730"/>
<path opacity="0.6" d="M43 10H37V11H43V10Z" fill="#6C6F74"/>
<path opacity="0.6" d="M43 6H37V7H43V6Z" fill="#6C6F74"/>
<path opacity="0.6" d="M43 12H37V13H43V12Z" fill="#6C6F74"/>
<path opacity="0.6" d="M43 8H37V9H43V8Z" fill="#6C6F74"/>
<path d="M44 9L47 5H41L44 9Z" fill="#489D1A"/>
<rect x="43" y="1" width="2" height="6" rx="1" fill="#489D1A"/>
<path fill-rule="evenodd" clip-rule="evenodd" d="M44 10.6664L47.8 5.59976C48.2944 4.94052 47.824 3.99976 47 3.99976H46V1.99976C46 0.895186 45.1046 -0.000244141 44 -0.000244141C42.8954 -0.000244141 42 0.895186 42 1.99976V3.99976H41C40.176 3.99976 39.7056 4.94052 40.2 5.59976L44 10.6664ZM43 4.99976V1.99976C43 1.44747 43.4477 0.999756 44 0.999756C44.5523 0.999756 45 1.44747 45 1.99976V4.99976H47L44 8.99976L41 4.99976H43Z" fill="white"/>
<path opacity="0.8" d="M61 2H51V15H61V2Z" fill="#5C5D60"/>
<path d="M60 3H52V14H60V3Z" fill="#E7EEF9"/>
<path d="M58.5 1.5H53.5V3.5H58.5V1.5Z" fill="#EBC803" stroke="#BD9730"/>
<path opacity="0.6" d="M59 10H53V11H59V10Z" fill="#6C6F74"/>
<path opacity="0.6" d="M59 6H53V7H59V6Z" fill="#6C6F74"/>
<path opacity="0.6" d="M59 12H53V13H59V12Z" fill="#6C6F74"/>
<path opacity="0.6" d="M59 8H53V9H59V8Z" fill="#6C6F74"/>
<path opacity="0.5" d="M55 9H51V15H55V9Z" fill="white"/>
<path d="M54.7442 9.2558C54.5804 9.09201 54.3582 9 54.1265 9C53.8948 9 53.6727 9.09201 53.5088 9.2558L51.5055 11.2592L49.5021 9.2558C49.3373 9.09665 49.1166 9.00859 48.8876 9.01058C48.6585 9.01257 48.4394 9.10446 48.2774 9.26644C48.1154 9.42843 48.0235 9.64756 48.0215 9.87664C48.0195 10.1057 48.1076 10.3264 48.2667 10.4912L50.2701 12.4945L48.2667 14.4979C48.1833 14.5785 48.1167 14.6749 48.0709 14.7815C48.0251 14.8881 48.001 15.0027 48 15.1187C47.999 15.2347 48.0211 15.3498 48.0651 15.4572C48.109 15.5645 48.1739 15.6621 48.2559 15.7441C48.3379 15.8261 48.4355 15.891 48.5428 15.9349C48.6502 15.9789 48.7653 16.001 48.8813 16C48.9973 15.999 49.1119 15.9749 49.2185 15.9291C49.3251 15.8833 49.4215 15.8167 49.5021 15.7333L51.5055 13.7299L53.5088 15.7333C53.6736 15.8924 53.8943 15.9805 54.1234 15.9785C54.3524 15.9765 54.5716 15.8846 54.7336 15.7226C54.8955 15.5606 54.9874 15.3415 54.9894 15.1124C54.9914 14.8834 54.9033 14.6627 54.7442 14.4979L52.7408 12.4945L54.7442 10.4912C54.908 10.3273 55 10.1052 55 9.87349C55 9.64183 54.908 9.41964 54.7442 9.2558Z" fill="#DA2F2F"/>
<path d="M66.7163 9.7324L69.0446 8.69782C69.2865 8.58961 69.5574 8.56456 69.8151 8.62658C70.0727 8.68861 70.3026 8.83422 70.4688 9.04068L71.1398 9.87983C72.2399 9.17377 73.1763 8.24062 73.8863 7.14296L73.0474 6.47181C72.8411 6.30562 72.6957 6.07584 72.6337 5.81831C72.5717 5.56078 72.5966 5.28996 72.7046 5.04808L73.7329 2.71321C73.8483 2.45322 74.0522 2.24267 74.3084 2.11912C74.5645 1.99556 74.8562 1.96704 75.1315 2.03863L77.1024 2.55292C77.3881 2.62728 77.6363 2.80433 77.7996 3.05023C77.9629 3.29613 78.0299 3.59361 77.9877 3.88579C77.6204 6.43556 76.4374 8.79779 74.6158 10.6189C72.7942 12.44 70.4319 13.6221 67.8826 13.9881C67.5904 14.0295 67.2932 13.9617 67.0479 13.7978C66.8025 13.6338 66.6262 13.3851 66.5526 13.0993L66.0384 11.1278C65.9669 10.8526 65.9959 10.5609 66.1201 10.3051C66.2444 10.0493 66.4557 9.84627 66.7163 9.7324Z" fill="#05984A"/>
<path d="M82.7163 9.7324L85.0446 8.69782C85.2865 8.58961 85.5574 8.56456 85.8151 8.62658C86.0727 8.68861 86.3026 8.83422 86.4688 9.04068L87.1398 9.87983C88.2399 9.17377 89.1763 8.24062 89.8863 7.14296L89.0474 6.47181C88.8411 6.30562 88.6957 6.07584 88.6337 5.81831C88.5717 5.56078 88.5966 5.28996 88.7046 5.04808L89.7329 2.71321C89.8483 2.45322 90.0522 2.24267 90.3084 2.11912C90.5645 1.99556 90.8562 1.96704 91.1315 2.03863L93.1024 2.55292C93.3881 2.62728 93.6363 2.80433 93.7996 3.05023C93.9629 3.29613 94.0299 3.59361 93.9877 3.88579C93.6204 6.43556 92.4374 8.79779 90.6158 10.6189C88.7942 12.44 86.4319 13.6221 83.8826 13.9881C83.5904 14.0295 83.2932 13.9617 83.0479 13.7978C82.8025 13.6338 82.6262 13.3851 82.5526 13.0993L82.0384 11.1278C81.9669 10.8526 81.9959 10.5609 82.1201 10.3051C82.2444 10.0493 82.4557 9.84627 82.7163 9.7324Z" fill="#05984A"/>
<path d="M84 6.6665L87 10.6665H81L84 6.6665Z" fill="#2562B5"/>
<rect x="83" y="9" width="2" height="6" rx="1" fill="#2562B5"/>
<path fill-rule="evenodd" clip-rule="evenodd" d="M84 5L87.8 10.0667C88.2944 10.7259 87.824 11.6667 87 11.6667H86V13.6667C86 14.7712 85.1046 15.6667 84 15.6667C82.8954 15.6667 82 14.7712 82 13.6667V11.6667H81C80.176 11.6667 79.7056 10.7259 80.2 10.0667L84 5ZM83 10.6667V13.6667C83 14.219 83.4477 14.6667 84 14.6667C84.5523 14.6667 85 14.219 85 13.6667V10.6667H87L84 6.66667L81 10.6667H83Z" fill="white"/>
<path d="M98.7163 9.7324L101.045 8.69782C101.286 8.58961 101.557 8.56456 101.815 8.62658C102.073 8.68861 102.303 8.83422 102.469 9.04068L103.14 9.87983C104.24 9.17377 105.176 8.24062 105.886 7.14296L105.047 6.47181C104.841 6.30562 104.696 6.07584 104.634 5.81831C104.572 5.56078 104.597 5.28996 104.705 5.04808L105.733 2.71321C105.848 2.45322 106.052 2.24267 106.308 2.11912C106.565 1.99556 106.856 1.96704 107.131 2.03863L109.102 2.55292C109.388 2.62728 109.636 2.80433 109.8 3.05023C109.963 3.29613 110.03 3.59361 109.988 3.88579C109.62 6.43556 108.437 8.79779 106.616 10.6189C104.794 12.44 102.432 13.6221 99.8826 13.9881C99.5904 14.0295 99.2932 13.9617 99.0479 13.7978C98.8025 13.6338 98.6262 13.3851 98.5526 13.0993L98.0384 11.1278C97.9669 10.8526 97.9959 10.5609 98.1201 10.3051C98.2444 10.0493 98.4557 9.84627 98.7163 9.7324Z" fill="#05984A"/>
<path d="M100 15L103 11H97L100 15Z" fill="#489D1A"/>
<rect x="99" y="7" width="2" height="6" rx="1" fill="#489D1A"/>
<path fill-rule="evenodd" clip-rule="evenodd" d="M99.2 15.5997C99.6 16.1331 100.4 16.1331 100.8 15.5997L103.8 11.5997C104.294 10.9405 103.824 9.99976 103 9.99976H102V7.99976C102 6.89519 101.105 5.99976 100 5.99976C98.8954 5.99976 98 6.89519 98 7.99976V9.99976H97C96.176 9.99976 95.7056 10.9405 96.2 11.5997L99.2 15.5997ZM99 10.9997V7.99976C99 7.44747 99.4477 6.99976 100 6.99976C100.552 6.99976 101 7.44747 101 7.99976V10.9997H103L100 14.9997L97 10.9997H99Z" fill="white"/>
<path d="M114.716 9.7324L117.045 8.69782C117.286 8.58961 117.557 8.56456 117.815 8.62658C118.073 8.68861 118.303 8.83422 118.469 9.04068L119.14 9.87983C120.24 9.17377 121.176 8.24062 121.886 7.14296L121.047 6.47181C120.841 6.30562 120.696 6.07584 120.634 5.81831C120.572 5.56078 120.597 5.28996 120.705 5.04808L121.733 2.71321C121.848 2.45322 122.052 2.24267 122.308 2.11912C122.565 1.99556 122.856 1.96704 123.131 2.03863L125.102 2.55292C125.388 2.62728 125.636 2.80433 125.8 3.05023C125.963 3.29613 126.03 3.59361 125.988 3.88579C125.62 6.43556 124.437 8.79779 122.616 10.6189C120.794 12.44 118.432 13.6221 115.883 13.9881C115.59 14.0295 115.293 13.9617 115.048 13.7978C114.803 13.6338 114.626 13.3851 114.553 13.0993L114.038 11.1278C113.967 10.8526 113.996 10.5609 114.12 10.3051C114.244 10.0493 114.456 9.84627 114.716 9.7324Z" fill="#05984A"/>
<path opacity="0.5" fill-rule="evenodd" clip-rule="evenodd" d="M117.045 8.69782L114.716 9.7324C114.456 9.84627 114.244 10.0493 114.12 10.3051C114.04 10.469 114 10.6477 114 10.8273C114 10.928 114.013 11.029 114.038 11.1278L114.553 13.0993C114.626 13.3851 114.803 13.6338 115.048 13.7978C115.293 13.9617 115.59 14.0295 115.883 13.9881C116.964 13.8328 118.013 13.5305 119 13.0948V9.70498L118.469 9.04068C118.303 8.83421 118.073 8.6886 117.815 8.62658C117.557 8.56455 117.286 8.5896 117.045 8.69782Z" fill="white"/>
<path d="M118.744 9.2558C118.58 9.09201 118.358 9 118.127 9C117.895 9 117.673 9.09201 117.509 9.2558L115.505 11.2592L113.502 9.2558C113.337 9.09665 113.117 9.00859 112.888 9.01058C112.658 9.01257 112.439 9.10446 112.277 9.26644C112.115 9.42843 112.023 9.64756 112.022 9.87664C112.02 10.1057 112.108 10.3264 112.267 10.4912L114.27 12.4945L112.267 14.4979C112.183 14.5785 112.117 14.6749 112.071 14.7815C112.025 14.8881 112.001 15.0027 112 15.1187C111.999 15.2347 112.021 15.3498 112.065 15.4572C112.109 15.5645 112.174 15.6621 112.256 15.7441C112.338 15.8261 112.435 15.891 112.543 15.9349C112.65 15.9789 112.765 16.001 112.881 16C112.997 15.999 113.112 15.9749 113.219 15.9291C113.325 15.8833 113.422 15.8167 113.502 15.7333L115.505 13.7299L117.509 15.7333C117.674 15.8924 117.894 15.9805 118.123 15.9785C118.352 15.9765 118.572 15.8846 118.734 15.7226C118.896 15.5606 118.987 15.3415 118.989 15.1124C118.991 14.8834 118.903 14.6627 118.744 14.4979L116.741 12.4945L118.744 10.4912C118.908 10.3273 119 10.1052 119 9.87349C119 9.64183 118.908 9.41964 118.744 9.2558Z" fill="#DA2F2F"/>
<path opacity="0.5" d="M134 5H131V8H134V5Z" fill="#D6A156"/>
<path d="M133 5H132V8H133V5Z" fill="#D6A156"/>
<path d="M129 10C129 8.34315 130.343 7 132 7H133C134.657 7 136 8.34315 136 10H129Z" fill="#3785B1"/>
<path d="M131.474 7.07697C131.241 7.77705 131.762 8.5 132.5 8.5C133.238 8.5 133.759 7.77705 133.526 7.07697L133.5 7H131.5L131.474 7.07697Z" fill="#CDE4F1"/>
<path d="M132.5 6C133.881 6 135 4.88071 135 3.5C135 2.11929 133.881 1 132.5 1C131.119 1 130 2.11929 130 3.5C130 4.88071 131.119 6 132.5 6Z" fill="#ECB968"/>
<path fill-rule="evenodd" clip-rule="evenodd" d="M134.95 3.99958C134.983 3.83815 135 3.67108 135 3.5C135 2.11929 133.881 1 132.5 1C131.119 1 130 2.11929 130 3.5C130 3.67108 130.017 3.83815 130.05 3.99958C131.078 3.98195 131.285 3.41724 131.477 2.89249C131.646 2.43078 131.804 2 132.5 2C133.196 2 133.354 2.43078 133.523 2.89249C133.715 3.41724 133.922 3.98195 134.95 3.99958Z" fill="#DB9F48"/>
<mask id="mask0_139_179" style="mask-type:luminance" maskUnits="userSpaceOnUse" x="130" y="1" width="5" height="3">
<path fill-rule="evenodd" clip-rule="evenodd" d="M134.95 3.99958C134.983 3.83815 135 3.67108 135 3.5C135 2.11929 133.881 1 132.5 1C131.119 1 130 2.11929 130 3.5C130 3.67108 130.017 3.83815 130.05 3.99958C131.078 3.98195 131.285 3.41724 131.477 2.89249C131.646 2.43078 131.804 2 132.5 2C133.196 2 133.354 2.43078 133.523 2.89249C133.715 3.41724 133.922 3.98195 134.95 3.99958Z" fill="white"/>
</mask>
<g mask="url(#mask0_139_179)">
<path d="M134.95 3.99958L134.933 4.99943L135.765 5.01369L135.93 4.19834L134.95 3.99958ZM130.05 3.99958L129.07 4.19834L129.235 5.01369L130.067 4.99943L130.05 3.99958ZM134 3.5C134 3.60396 133.99 3.70444 133.97 3.80081L135.93 4.19834C135.976 3.97186 136 3.73821 136 3.5H134ZM132.5 2C133.328 2 134 2.67157 134 3.5H136C136 1.567 134.433 0 132.5 0V2ZM131 3.5C131 2.67157 131.672 2 132.5 2V0C130.567 0 129 1.567 129 3.5H131ZM131.03 3.80081C131.01 3.70444 131 3.60395 131 3.5H129C129 3.73821 129.024 3.97186 129.07 4.19834L131.03 3.80081ZM130.067 4.99943C130.779 4.98722 131.363 4.77443 131.792 4.33517C132.171 3.94757 132.333 3.46373 132.416 3.23621L130.538 2.54877C130.487 2.68832 130.456 2.77169 130.42 2.84309C130.389 2.90761 130.369 2.93063 130.362 2.93724C130.36 2.93903 130.354 2.94685 130.324 2.95846C130.287 2.97238 130.2 2.99685 130.033 2.99972L130.067 4.99943ZM132.416 3.23621C132.462 3.11251 132.488 3.04154 132.516 2.98311C132.541 2.92922 132.55 2.92463 132.537 2.93881C132.518 2.95998 132.486 2.98457 132.452 2.99888C132.423 3.0109 132.429 3 132.5 3V1C131.912 1 131.41 1.19799 131.045 1.6074C130.746 1.94205 130.607 2.36164 130.538 2.54877L132.416 3.23621ZM132.5 3C132.571 3 132.577 3.0109 132.548 2.99888C132.514 2.98457 132.482 2.95998 132.463 2.93881C132.45 2.92463 132.459 2.92922 132.484 2.98311C132.512 3.04154 132.538 3.11251 132.584 3.23621L134.462 2.54877C134.393 2.36164 134.254 1.94205 133.955 1.6074C133.59 1.19799 133.088 1 132.5 1V3ZM132.584 3.23621C132.667 3.46373 132.829 3.94757 133.208 4.33517C133.637 4.77443 134.221 4.98722 134.933 4.99943L134.967 2.99972C134.8 2.99685 134.713 2.97238 134.676 2.95846C134.646 2.94685 134.64 2.93903 134.638 2.93724C134.631 2.93062 134.611 2.90761 134.58 2.84308C134.544 2.77169 134.513 2.68832 134.462 2.54877L132.584 3.23621Z" fill="black" fill-opacity="0.5"/>
</g>
<path opacity="0.5" d="M141 10H138V13H141V10Z" fill="#D6A156"/>
<path d="M140 10H139V13H140V10Z" fill="#D6A156"/>
<path d="M136 15C136 13.3431 137.343 12 139 12H140C141.657 12 143 13.3431 143 15H136Z" fill="#3785B1"/>
<path d="M138.474 12.077C138.241 12.777 138.762 13.5 139.5 13.5C140.238 13.5 140.759 12.777 140.526 12.077L140.5 12H138.5L138.474 12.077Z" fill="#CDE4F1"/>
<path d="M140 12H139V14H140V12Z" fill="white"/>
<path d="M139.5 11C140.881 11 142 9.88071 142 8.5C142 7.11929 140.881 6 139.5 6C138.119 6 137 7.11929 137 8.5C137 9.88071 138.119 11 139.5 11Z" fill="#ECB968"/>
<path fill-rule="evenodd" clip-rule="evenodd" d="M141.95 8.99958C141.983 8.83815 142 8.67108 142 8.5C142 7.11929 140.881 6 139.5 6C138.119 6 137 7.11929 137 8.5C137 8.67108 137.017 8.83815 137.05 8.99958C138.078 8.98195 138.285 8.41724 138.477 7.89249C138.646 7.43078 138.804 7 139.5 7C140.196 7 140.354 7.43078 140.523 7.89249C140.715 8.41724 140.922 8.98195 141.95 8.99958Z" fill="#DB9F48"/>
<mask id="mask1_139_179" style="mask-type:luminance" maskUnits="userSpaceOnUse" x="137" y="6" width="5" height="3">
<path fill-rule="evenodd" clip-rule="evenodd" d="M141.95 8.99958C141.983 8.83815 142 8.67108 142 8.5C142 7.11929 140.881 6 139.5 6C138.119 6 137 7.11929 137 8.5C137 8.67108 137.017 8.83815 137.05 8.99958C138.078 8.98195 138.285 8.41724 138.477 7.89249C138.646 7.43078 138.804 7 139.5 7C140.196 7 140.354 7.43078 140.523 7.89249C140.715 8.41724 140.922 8.98195 141.95 8.99958Z" fill="white"/>
</mask>
<g mask="url(#mask1_139_179)">
<path d="M141.95 8.99958L141.933 9.99943L142.765 10.0137L142.93 9.19834L141.95 8.99958ZM137.05 8.99958L136.07 9.19834L136.235 10.0137L137.067 9.99943L137.05 8.99958ZM141 8.5C141 8.60396 140.99 8.70444 140.97 8.80081L142.93 9.19834C142.976 8.97186 143 8.73821 143 8.5H141ZM139.5 7C140.328 7 141 7.67157 141 8.5H143C143 6.567 141.433 5 139.5 5V7ZM138 8.5C138 7.67157 138.672 7 139.5 7V5C137.567 5 136 6.567 136 8.5H138ZM138.03 8.80081C138.01 8.70444 138 8.60395 138 8.5H136C136 8.73821 136.024 8.97186 136.07 9.19834L138.03 8.80081ZM137.067 9.99943C137.779 9.98722 138.363 9.77443 138.792 9.33517C139.171 8.94757 139.333 8.46373 139.416 8.23621L137.538 7.54877C137.487 7.68832 137.456 7.77169 137.42 7.84309C137.389 7.90761 137.369 7.93063 137.362 7.93724C137.36 7.93903 137.354 7.94685 137.324 7.95846C137.287 7.97238 137.2 7.99685 137.033 7.99972L137.067 9.99943ZM139.416 8.23621C139.462 8.11251 139.488 8.04154 139.516 7.98311C139.541 7.92922 139.55 7.92463 139.537 7.93881C139.518 7.95998 139.486 7.98457 139.452 7.99888C139.423 8.0109 139.429 8 139.5 8V6C138.912 6 138.41 6.19799 138.045 6.6074C137.746 6.94205 137.607 7.36164 137.538 7.54877L139.416 8.23621ZM139.5 8C139.571 8 139.577 8.0109 139.548 7.99888C139.514 7.98457 139.482 7.95998 139.463 7.93881C139.45 7.92463 139.459 7.92922 139.484 7.98311C139.512 8.04154 139.538 8.11251 139.584 8.23621L141.462 7.54877C141.393 7.36164 141.254 6.94205 140.955 6.6074C140.59 6.19799 140.088 6 139.5 6V8ZM139.584 8.23621C139.667 8.46373 139.829 8.94757 140.208 9.33517C140.637 9.77443 141.221 9.98722 141.933 9.99943L141.967 7.99972C141.8 7.99685 141.713 7.97238 141.676 7.95846C141.646 7.94685 141.64 7.93903 141.638 7.93724C141.631 7.93062 141.611 7.90761 141.58 7.84308C141.544 7.77169 141.513 7.68832 141.462 7.54877L139.584 8.23621Z" fill="black" fill-opacity="0.5"/>
</g>
<path d="M133 7H132V9H133V7Z" fill="white"/>
<path opacity="0.5" d="M150 5H147V8H150V5Z" fill="#D6A156"/>
<path d="M149 5H148V8H149V5Z" fill="#D6A156"/>
<path d="M145 10C145 8.34315 146.343 7 148 7H149C150.657 7 152 8.34315 152 10H145Z" fill="#3785B1"/>
<path d="M147.474 7.07697C147.241 7.77705 147.762 8.5 148.5 8.5C149.238 8.5 149.759 7.77705 149.526 7.07697L149.5 7H147.5L147.474 7.07697Z" fill="#CDE4F1"/>
<path d="M148.5 6C149.881 6 151 4.88071 151 3.5C151 2.11929 149.881 1 148.5 1C147.119 1 146 2.11929 146 3.5C146 4.88071 147.119 6 148.5 6Z" fill="#ECB968"/>
<path fill-rule="evenodd" clip-rule="evenodd" d="M150.95 3.99958C150.983 3.83815 151 3.67108 151 3.5C151 2.11929 149.881 1 148.5 1C147.119 1 146 2.11929 146 3.5C146 3.67108 146.017 3.83815 146.05 3.99958C147.078 3.98195 147.285 3.41724 147.477 2.89249C147.646 2.43078 147.804 2 148.5 2C149.196 2 149.354 2.43078 149.523 2.89249C149.715 3.41724 149.922 3.98195 150.95 3.99958Z" fill="#DB9F48"/>
<mask id="mask2_139_179" style="mask-type:luminance" maskUnits="userSpaceOnUse" x="146" y="1" width="5" height="3">
<path fill-rule="evenodd" clip-rule="evenodd" d="M150.95 3.99958C150.983 3.83815 151 3.67108 151 3.5C151 2.11929 149.881 1 148.5 1C147.119 1 146 2.11929 146 3.5C146 3.67108 146.017 3.83815 146.05 3.99958C147.078 3.98195 147.285 3.41724 147.477 2.89249C147.646 2.43078 147.804 2 148.5 2C149.196 2 149.354 2.43078 149.523 2.89249C149.715 3.41724 149.922 3.98195 150.95 3.99958Z" fill="white"/>
</mask>
<g mask="url(#mask2_139_179)">
<path d="M150.95 3.99958L150.933 4.99943L151.765 5.01369L151.93 4.19834L150.95 3.99958ZM146.05 3.99958L145.07 4.19834L145.235 5.01369L146.067 4.99943L146.05 3.99958ZM150 3.5C150 3.60396 149.99 3.70444 149.97 3.80081L151.93 4.19834C151.976 3.97186 152 3.73821 152 3.5H150ZM148.5 2C149.328 2 150 2.67157 150 3.5H152C152 1.567 150.433 0 148.5 0V2ZM147 3.5C147 2.67157 147.672 2 148.5 2V0C146.567 0 145 1.567 145 3.5H147ZM147.03 3.80081C147.01 3.70444 147 3.60395 147 3.5H145C145 3.73821 145.024 3.97186 145.07 4.19834L147.03 3.80081ZM146.067 4.99943C146.779 4.98722 147.363 4.77443 147.792 4.33517C148.171 3.94757 148.333 3.46373 148.416 3.23621L146.538 2.54877C146.487 2.68832 146.456 2.77169 146.42 2.84309C146.389 2.90761 146.369 2.93063 146.362 2.93724C146.36 2.93903 146.354 2.94685 146.324 2.95846C146.287 2.97238 146.2 2.99685 146.033 2.99972L146.067 4.99943ZM148.416 3.23621C148.462 3.11251 148.488 3.04154 148.516 2.98311C148.541 2.92922 148.55 2.92463 148.537 2.93881C148.518 2.95998 148.486 2.98457 148.452 2.99888C148.423 3.0109 148.429 3 148.5 3V1C147.912 1 147.41 1.19799 147.045 1.6074C146.746 1.94205 146.607 2.36164 146.538 2.54877L148.416 3.23621ZM148.5 3C148.571 3 148.577 3.0109 148.548 2.99888C148.514 2.98457 148.482 2.95998 148.463 2.93881C148.45 2.92463 148.459 2.92922 148.484 2.98311C148.512 3.04154 148.538 3.11251 148.584 3.23621L150.462 2.54877C150.393 2.36164 150.254 1.94205 149.955 1.6074C149.59 1.19799 149.088 1 148.5 1V3ZM148.584 3.23621C148.667 3.46373 148.829 3.94757 149.208 4.33517C149.637 4.77443 150.221 4.98722 150.933 4.99943L150.967 2.99972C150.8 2.99685 150.713 2.97238 150.676 2.95846C150.646 2.94685 150.64 2.93903 150.638 2.93724C150.631 2.93062 150.611 2.90761 150.58 2.84308C150.544 2.77169 150.513 2.68832 150.462 2.54877L148.584 3.23621Z" fill="black" fill-opacity="0.5"/>
</g>
<path opacity="0.5" d="M157 10H154V13H157V10Z" fill="#D6A156"/>
<path d="M156 10H155V13H156V10Z" fill="#D6A156"/>
<path d="M152 15C152 13.3431 153.343 12 155 12H156C157.657 12 159 13.3431 159 15H152Z" fill="#3785B1"/>
<path d="M154.474 12.077C154.241 12.777 154.762 13.5 155.5 13.5C156.238 13.5 156.759 12.777 156.526 12.077L156.5 12H154.5L154.474 12.077Z" fill="#CDE4F1"/>
<path d="M156 12H155V14H156V12Z" fill="white"/>
<path d="M155.5 11C156.881 11 158 9.88071 158 8.5C158 7.11929 156.881 6 155.5 6C154.119 6 153 7.11929 153 8.5C153 9.88071 154.119 11 155.5 11Z" fill="#ECB968"/>
<path fill-rule="evenodd" clip-rule="evenodd" d="M157.95 8.99958C157.983 8.83815 158 8.67108 158 8.5C158 7.11929 156.881 6 155.5 6C154.119 6 153 7.11929 153 8.5C153 8.67108 153.017 8.83815 153.05 8.99958C154.078 8.98195 154.285 8.41724 154.477 7.89249C154.646 7.43078 154.804 7 155.5 7C156.196 7 156.354 7.43078 156.523 7.89249C156.715 8.41724 156.922 8.98195 157.95 8.99958Z" fill="#DB9F48"/>
<mask id="mask3_139_179" style="mask-type:luminance" maskUnits="userSpaceOnUse" x="153" y="6" width="5" height="3">
<path fill-rule="evenodd" clip-rule="evenodd" d="M157.95 8.99958C157.983 8.83815 158 8.67108 158 8.5C158 7.11929 156.881 6 155.5 6C154.119 6 153 7.11929 153 8.5C153 8.67108 153.017 8.83815 153.05 8.99958C154.078 8.98195 154.285 8.41724 154.477 7.89249C154.646 7.43078 154.804 7 155.5 7C156.196 7 156.354 7.43078 156.523 7.89249C156.715 8.41724 156.922 8.98195 157.95 8.99958Z" fill="white"/>
</mask>
<g mask="url(#mask3_139_179)">
<path d="M157.95 8.99958L157.933 9.99943L158.765 10.0137L158.93 9.19834L157.95 8.99958ZM153.05 8.99958L152.07 9.19834L152.235 10.0137L153.067 9.99943L153.05 8.99958ZM157 8.5C157 8.60396 156.99 8.70444 156.97 8.80081L158.93 9.19834C158.976 8.97186 159 8.73821 159 8.5H157ZM155.5 7C156.328 7 157 7.67157 157 8.5H159C159 6.567 157.433 5 155.5 5V7ZM154 8.5C154 7.67157 154.672 7 155.5 7V5C153.567 5 152 6.567 152 8.5H154ZM154.03 8.80081C154.01 8.70444 154 8.60395 154 8.5H152C152 8.73821 152.024 8.97186 152.07 9.19834L154.03 8.80081ZM153.067 9.99943C153.779 9.98722 154.363 9.77443 154.792 9.33517C155.171 8.94757 155.333 8.46373 155.416 8.23621L153.538 7.54877C153.487 7.68832 153.456 7.77169 153.42 7.84309C153.389 7.90761 153.369 7.93063 153.362 7.93724C153.36 7.93903 153.354 7.94685 153.324 7.95846C153.287 7.97238 153.2 7.99685 153.033 7.99972L153.067 9.99943ZM155.416 8.23621C155.462 8.11251 155.488 8.04154 155.516 7.98311C155.541 7.92922 155.55 7.92463 155.537 7.93881C155.518 7.95998 155.486 7.98457 155.452 7.99888C155.423 8.0109 155.429 8 155.5 8V6C154.912 6 154.41 6.19799 154.045 6.6074C153.746 6.94205 153.607 7.36164 153.538 7.54877L155.416 8.23621ZM155.5 8C155.571 8 155.577 8.0109 155.548 7.99888C155.514 7.98457 155.482 7.95998 155.463 7.93881C155.45 7.92463 155.459 7.92922 155.484 7.98311C155.512 8.04154 155.538 8.11251 155.584 8.23621L157.462 7.54877C157.393 7.36164 157.254 6.94205 156.955 6.6074C156.59 6.19799 156.088 6 155.5 6V8ZM155.584 8.23621C155.667 8.46373 155.829 8.94757 156.208 9.33517C156.637 9.77443 157.221 9.98722 157.933 9.99943L157.967 7.99972C157.8 7.99685 157.713 7.97238 157.676 7.95846C157.646 7.94685 157.64 7.93903 157.638 7.93724C157.631 7.93062 157.611 7.90761 157.58 7.84308C157.544 7.77169 157.513 7.68832 157.462 7.54877L155.584 8.23621Z" fill="black" fill-opacity="0.5"/>
</g>
<path d="M149 7H148V9H149V7Z" fill="white"/>
<path d="M148 6.6665L151 10.6665H145L148 6.6665Z" fill="#2562B5"/>
<rect x="147" y="9" width="2" height="6" rx="1" fill="#2562B5"/>
<path fill-rule="evenodd" clip-rule="evenodd" d="M148 5L151.8 10.0667C152.294 10.7259 151.824 11.6667 151 11.6667H150V13.6667C150 14.7712 149.105 15.6667 148 15.6667C146.895 15.6667 146 14.7712 146 13.6667V11.6667H145C144.176 11.6667 143.706 10.7259 144.2 10.0667L148 5ZM147 10.6667V13.6667C147 14.219 147.448 14.6667 148 14.6667C148.552 14.6667 149 14.219 149 13.6667V10.6667H151L148 6.66667L145 10.6667H147Z" fill="white"/>
<path opacity="0.5" d="M166 5H163V8H166V5Z" fill="#D6A156"/>
<path d="M165 5H164V8H165V5Z" fill="#D6A156"/>
<path d="M161 10C161 8.34315 162.343 7 164 7H165C166.657 7 168 8.34315 168 10H161Z" fill="#3785B1"/>
<path d="M163.474 7.07697C163.241 7.77705 163.762 8.5 164.5 8.5C165.238 8.5 165.759 7.77705 165.526 7.07697L165.5 7H163.5L163.474 7.07697Z" fill="#CDE4F1"/>
<path d="M164.5 6C165.881 6 167 4.88071 167 3.5C167 2.11929 165.881 1 164.5 1C163.119 1 162 2.11929 162 3.5C162 4.88071 163.119 6 164.5 6Z" fill="#ECB968"/>
<path fill-rule="evenodd" clip-rule="evenodd" d="M166.95 3.99958C166.983 3.83815 167 3.67108 167 3.5C167 2.11929 165.881 1 164.5 1C163.119 1 162 2.11929 162 3.5C162 3.67108 162.017 3.83815 162.05 3.99958C163.078 3.98195 163.285 3.41724 163.477 2.89249C163.646 2.43078 163.804 2 164.5 2C165.196 2 165.354 2.43078 165.523 2.89249C165.715 3.41724 165.922 3.98195 166.95 3.99958Z" fill="#DB9F48"/>
<mask id="mask4_139_179" style="mask-type:luminance" maskUnits="userSpaceOnUse" x="162" y="1" width="5" height="3">
<path fill-rule="evenodd" clip-rule="evenodd" d="M166.95 3.99958C166.983 3.83815 167 3.67108 167 3.5C167 2.11929 165.881 1 164.5 1C163.119 1 162 2.11929 162 3.5C162 3.67108 162.017 3.83815 162.05 3.99958C163.078 3.98195 163.285 3.41724 163.477 2.89249C163.646 2.43078 163.804 2 164.5 2C165.196 2 165.354 2.43078 165.523 2.89249C165.715 3.41724 165.922 3.98195 166.95 3.99958Z" fill="white"/>
</mask>
<g mask="url(#mask4_139_179)">
<path d="M166.95 3.99958L166.933 4.99943L167.765 5.01369L167.93 4.19834L166.95 3.99958ZM162.05 3.99958L161.07 4.19834L161.235 5.01369L162.067 4.99943L162.05 3.99958ZM166 3.5C166 3.60396 165.99 3.70444 165.97 3.80081L167.93 4.19834C167.976 3.97186 168 3.73821 168 3.5H166ZM164.5 2C165.328 2 166 2.67157 166 3.5H168C168 1.567 166.433 0 164.5 0V2ZM163 3.5C163 2.67157 163.672 2 164.5 2V0C162.567 0 161 1.567 161 3.5H163ZM163.03 3.80081C163.01 3.70444 163 3.60395 163 3.5H161C161 3.73821 161.024 3.97186 161.07 4.19834L163.03 3.80081ZM162.067 4.99943C162.779 4.98722 163.363 4.77443 163.792 4.33517C164.171 3.94757 164.333 3.46373 164.416 3.23621L162.538 2.54877C162.487 2.68832 162.456 2.77169 162.42 2.84309C162.389 2.90761 162.369 2.93063 162.362 2.93724C162.36 2.93903 162.354 2.94685 162.324 2.95846C162.287 2.97238 162.2 2.99685 162.033 2.99972L162.067 4.99943ZM164.416 3.23621C164.462 3.11251 164.488 3.04154 164.516 2.98311C164.541 2.92922 164.55 2.92463 164.537 2.93881C164.518 2.95998 164.486 2.98457 164.452 2.99888C164.423 3.0109 164.429 3 164.5 3V1C163.912 1 163.41 1.19799 163.045 1.6074C162.746 1.94205 162.607 2.36164 162.538 2.54877L164.416 3.23621ZM164.5 3C164.571 3 164.577 3.0109 164.548 2.99888C164.514 2.98457 164.482 2.95998 164.463 2.93881C164.45 2.92463 164.459 2.92922 164.484 2.98311C164.512 3.04154 164.538 3.11251 164.584 3.23621L166.462 2.54877C166.393 2.36164 166.254 1.94205 165.955 1.6074C165.59 1.19799 165.088 1 164.5 1V3ZM164.584 3.23621C164.667 3.46373 164.829 3.94757 165.208 4.33517C165.637 4.77443 166.221 4.98722 166.933 4.99943L166.967 2.99972C166.8 2.99685 166.713 2.97238 166.676 2.95846C166.646 2.94685 166.64 2.93903 166.638 2.93724C166.631 2.93062 166.611 2.90761 166.58 2.84308C166.544 2.77169 166.513 2.68832 166.462 2.54877L164.584 3.23621Z" fill="black" fill-opacity="0.5"/>
</g>
<path opacity="0.5" d="M173 10H170V13H173V10Z" fill="#D6A156"/>
<path d="M172 10H171V13H172V10Z" fill="#D6A156"/>
<path d="M168 15C168 13.3431 169.343 12 171 12H172C173.657 12 175 13.3431 175 15H168Z" fill="#3785B1"/>
<path d="M170.474 12.077C170.241 12.777 170.762 13.5 171.5 13.5C172.238 13.5 172.759 12.777 172.526 12.077L172.5 12H170.5L170.474 12.077Z" fill="#CDE4F1"/>
<path d="M172 12H171V14H172V12Z" fill="white"/>
<path d="M171.5 11C172.881 11 174 9.88071 174 8.5C174 7.11929 172.881 6 171.5 6C170.119 6 169 7.11929 169 8.5C169 9.88071 170.119 11 171.5 11Z" fill="#ECB968"/>
<path fill-rule="evenodd" clip-rule="evenodd" d="M173.95 8.99958C173.983 8.83815 174 8.67108 174 8.5C174 7.11929 172.881 6 171.5 6C170.119 6 169 7.11929 169 8.5C169 8.67108 169.017 8.83815 169.05 8.99958C170.078 8.98195 170.285 8.41724 170.477 7.89249C170.646 7.43078 170.804 7 171.5 7C172.196 7 172.354 7.43078 172.523 7.89249C172.715 8.41724 172.922 8.98195 173.95 8.99958Z" fill="#DB9F48"/>
<mask id="mask5_139_179" style="mask-type:luminance" maskUnits="userSpaceOnUse" x="169" y="6" width="5" height="3">
<path fill-rule="evenodd" clip-rule="evenodd" d="M173.95 8.99958C173.983 8.83815 174 8.67108 174 8.5C174 7.11929 172.881 6 171.5 6C170.119 6 169 7.11929 169 8.5C169 8.67108 169.017 8.83815 169.05 8.99958C170.078 8.98195 170.285 8.41724 170.477 7.89249C170.646 7.43078 170.804 7 171.5 7C172.196 7 172.354 7.43078 172.523 7.89249C172.715 8.41724 172.922 8.98195 173.95 8.99958Z" fill="white"/>
</mask>
<g mask="url(#mask5_139_179)">
<path d="M173.95 8.99958L173.933 9.99943L174.765 10.0137L174.93 9.19834L173.95 8.99958ZM169.05 8.99958L168.07 9.19834L168.235 10.0137L169.067 9.99943L169.05 8.99958ZM173 8.5C173 8.60396 172.99 8.70444 172.97 8.80081L174.93 9.19834C174.976 8.97186 175 8.73821 175 8.5H173ZM171.5 7C172.328 7 173 7.67157 173 8.5H175C175 6.567 173.433 5 171.5 5V7ZM170 8.5C170 7.67157 170.672 7 171.5 7V5C169.567 5 168 6.567 168 8.5H170ZM170.03 8.80081C170.01 8.70444 170 8.60395 170 8.5H168C168 8.73821 168.024 8.97186 168.07 9.19834L170.03 8.80081ZM169.067 9.99943C169.779 9.98722 170.363 9.77443 170.792 9.33517C171.171 8.94757 171.333 8.46373 171.416 8.23621L169.538 7.54877C169.487 7.68832 169.456 7.77169 169.42 7.84309C169.389 7.90761 169.369 7.93063 169.362 7.93724C169.36 7.93903 169.354 7.94685 169.324 7.95846C169.287 7.97238 169.2 7.99685 169.033 7.99972L169.067 9.99943ZM171.416 8.23621C171.462 8.11251 171.488 8.04154 171.516 7.98311C171.541 7.92922 171.55 7.92463 171.537 7.93881C171.518 7.95998 171.486 7.98457 171.452 7.99888C171.423 8.0109 171.429 8 171.5 8V6C170.912 6 170.41 6.19799 170.045 6.6074C169.746 6.94205 169.607 7.36164 169.538 7.54877L171.416 8.23621ZM171.5 8C171.571 8 171.577 8.0109 171.548 7.99888C171.514 7.98457 171.482 7.95998 171.463 7.93881C171.45 7.92463 171.459 7.92922 171.484 7.98311C171.512 8.04154 171.538 8.11251 171.584 8.23621L173.462 7.54877C173.393 7.36164 173.254 6.94205 172.955 6.6074C172.59 6.19799 172.088 6 171.5 6V8ZM171.584 8.23621C171.667 8.46373 171.829 8.94757 172.208 9.33517C172.637 9.77443 173.221 9.98722 173.933 9.99943L173.967 7.99972C173.8 7.99685 173.713 7.97238 173.676 7.95846C173.646 7.94685 173.64 7.93903 173.638 7.93724C173.631 7.93062 173.611 7.90761 173.58 7.84308C173.544 7.77169 173.513 7.68832 173.462 7.54877L171.584 8.23621Z" fill="black" fill-opacity="0.5"/>
</g>
<path d="M165 7H164V9H165V7Z" fill="white"/>
<path d="M164 15L167 11H161L164 15Z" fill="#489D1A"/>
<rect x="163" y="7" width="2" height="6" rx="1" fill="#489D1A"/>
<path fill-rule="evenodd" clip-rule="evenodd" d="M163.2 15.5997C163.6 16.1331 164.4 16.1331 164.8 15.5997L167.8 11.5997C168.294 10.9405 167.824 9.99976 167 9.99976H166V7.99976C166 6.89519 165.105 5.99976 164 5.99976C162.895 5.99976 162 6.89519 162 7.99976V9.99976H161C160.176 9.99976 159.706 10.9405 160.2 11.5997L163.2 15.5997ZM163 10.9997V7.99976C163 7.44747 163.448 6.99976 164 6.99976C164.552 6.99976 165 7.44747 165 7.99976V10.9997H167L164 14.9997L161 10.9997H163Z" fill="white"/>
<path opacity="0.5" d="M182 5H179V8H182V5Z" fill="#D6A156"/>
<path d="M181 5H180V8H181V5Z" fill="#D6A156"/>
<path d="M177 10C177 8.34315 178.343 7 180 7H181C182.657 7 184 8.34315 184 10H177Z" fill="#3785B1"/>
<path d="M179.474 7.07697C179.241 7.77705 179.762 8.5 180.5 8.5C181.238 8.5 181.759 7.77705 181.526 7.07697L181.5 7H179.5L179.474 7.07697Z" fill="#CDE4F1"/>
<path d="M180.5 6C181.881 6 183 4.88071 183 3.5C183 2.11929 181.881 1 180.5 1C179.119 1 178 2.11929 178 3.5C178 4.88071 179.119 6 180.5 6Z" fill="#ECB968"/>
<path fill-rule="evenodd" clip-rule="evenodd" d="M182.95 3.99958C182.983 3.83815 183 3.67108 183 3.5C183 2.11929 181.881 1 180.5 1C179.119 1 178 2.11929 178 3.5C178 3.67108 178.017 3.83815 178.05 3.99958C179.078 3.98195 179.285 3.41724 179.477 2.89249C179.646 2.43078 179.804 2 180.5 2C181.196 2 181.354 2.43078 181.523 2.89249C181.715 3.41724 181.922 3.98195 182.95 3.99958Z" fill="#DB9F48"/>
<mask id="mask6_139_179" style="mask-type:luminance" maskUnits="userSpaceOnUse" x="178" y="1" width="5" height="3">
<path fill-rule="evenodd" clip-rule="evenodd" d="M182.95 3.99958C182.983 3.83815 183 3.67108 183 3.5C183 2.11929 181.881 1 180.5 1C179.119 1 178 2.11929 178 3.5C178 3.67108 178.017 3.83815 178.05 3.99958C179.078 3.98195 179.285 3.41724 179.477 2.89249C179.646 2.43078 179.804 2 180.5 2C181.196 2 181.354 2.43078 181.523 2.89249C181.715 3.41724 181.922 3.98195 182.95 3.99958Z" fill="white"/>
</mask>
<g mask="url(#mask6_139_179)">
<path d="M182.95 3.99958L182.933 4.99943L183.765 5.01369L183.93 4.19834L182.95 3.99958ZM178.05 3.99958L177.07 4.19834L177.235 5.01369L178.067 4.99943L178.05 3.99958ZM182 3.5C182 3.60396 181.99 3.70444 181.97 3.80081L183.93 4.19834C183.976 3.97186 184 3.73821 184 3.5H182ZM180.5 2C181.328 2 182 2.67157 182 3.5H184C184 1.567 182.433 0 180.5 0V2ZM179 3.5C179 2.67157 179.672 2 180.5 2V0C178.567 0 177 1.567 177 3.5H179ZM179.03 3.80081C179.01 3.70444 179 3.60395 179 3.5H177C177 3.73821 177.024 3.97186 177.07 4.19834L179.03 3.80081ZM178.067 4.99943C178.779 4.98722 179.363 4.77443 179.792 4.33517C180.171 3.94757 180.333 3.46373 180.416 3.23621L178.538 2.54877C178.487 2.68832 178.456 2.77169 178.42 2.84309C178.389 2.90761 178.369 2.93063 178.362 2.93724C178.36 2.93903 178.354 2.94685 178.324 2.95846C178.287 2.97238 178.2 2.99685 178.033 2.99972L178.067 4.99943ZM180.416 3.23621C180.462 3.11251 180.488 3.04154 180.516 2.98311C180.541 2.92922 180.55 2.92463 180.537 2.93881C180.518 2.95998 180.486 2.98457 180.452 2.99888C180.423 3.0109 180.429 3 180.5 3V1C179.912 1 179.41 1.19799 179.045 1.6074C178.746 1.94205 178.607 2.36164 178.538 2.54877L180.416 3.23621ZM180.5 3C180.571 3 180.577 3.0109 180.548 2.99888C180.514 2.98457 180.482 2.95998 180.463 2.93881C180.45 2.92463 180.459 2.92922 180.484 2.98311C180.512 3.04154 180.538 3.11251 180.584 3.23621L182.462 2.54877C182.393 2.36164 182.254 1.94205 181.955 1.6074C181.59 1.19799 181.088 1 180.5 1V3ZM180.584 3.23621C180.667 3.46373 180.829 3.94757 181.208 4.33517C181.637 4.77443 182.221 4.98722 182.933 4.99943L182.967 2.99972C182.8 2.99685 182.713 2.97238 182.676 2.95846C182.646 2.94685 182.64 2.93903 182.638 2.93724C182.631 2.93062 182.611 2.90761 182.58 2.84308C182.544 2.77169 182.513 2.68832 182.462 2.54877L180.584 3.23621Z" fill="black" fill-opacity="0.5"/>
</g>
<path opacity="0.5" d="M189 10H186V13H189V10Z" fill="#D6A156"/>
<path d="M188 10H187V13H188V10Z" fill="#D6A156"/>
<path d="M184 15C184 13.3431 185.343 12 187 12H188C189.657 12 191 13.3431 191 15H184Z" fill="#3785B1"/>
<path d="M186.474 12.077C186.241 12.777 186.762 13.5 187.5 13.5C188.238 13.5 188.759 12.777 188.526 12.077L188.5 12H186.5L186.474 12.077Z" fill="#CDE4F1"/>
<path d="M188 12H187V14H188V12Z" fill="white"/>
<path d="M187.5 11C188.881 11 190 9.88071 190 8.5C190 7.11929 188.881 6 187.5 6C186.119 6 185 7.11929 185 8.5C185 9.88071 186.119 11 187.5 11Z" fill="#ECB968"/>
<path fill-rule="evenodd" clip-rule="evenodd" d="M189.95 8.99958C189.983 8.83815 190 8.67108 190 8.5C190 7.11929 188.881 6 187.5 6C186.119 6 185 7.11929 185 8.5C185 8.67108 185.017 8.83815 185.05 8.99958C186.078 8.98195 186.285 8.41724 186.477 7.89249C186.646 7.43078 186.804 7 187.5 7C188.196 7 188.354 7.43078 188.523 7.89249C188.715 8.41724 188.922 8.98195 189.95 8.99958Z" fill="#DB9F48"/>
<mask id="mask7_139_179" style="mask-type:luminance" maskUnits="userSpaceOnUse" x="185" y="6" width="5" height="3">
<path fill-rule="evenodd" clip-rule="evenodd" d="M189.95 8.99958C189.983 8.83815 190 8.67108 190 8.5C190 7.11929 188.881 6 187.5 6C186.119 6 185 7.11929 185 8.5C185 8.67108 185.017 8.83815 185.05 8.99958C186.078 8.98195 186.285 8.41724 186.477 7.89249C186.646 7.43078 186.804 7 187.5 7C188.196 7 188.354 7.43078 188.523 7.89249C188.715 8.41724 188.922 8.98195 189.95 8.99958Z" fill="white"/>
</mask>
<g mask="url(#mask7_139_179)">
<path d="M189.95 8.99958L189.933 9.99943L190.765 10.0137L190.93 9.19834L189.95 8.99958ZM185.05 8.99958L184.07 9.19834L184.235 10.0137L185.067 9.99943L185.05 8.99958ZM189 8.5C189 8.60396 188.99 8.70444 188.97 8.80081L190.93 9.19834C190.976 8.97186 191 8.73821 191 8.5H189ZM187.5 7C188.328 7 189 7.67157 189 8.5H191C191 6.567 189.433 5 187.5 5V7ZM186 8.5C186 7.67157 186.672 7 187.5 7V5C185.567 5 184 6.567 184 8.5H186ZM186.03 8.80081C186.01 8.70444 186 8.60395 186 8.5H184C184 8.73821 184.024 8.97186 184.07 9.19834L186.03 8.80081ZM185.067 9.99943C185.779 9.98722 186.363 9.77443 186.792 9.33517C187.171 8.94757 187.333 8.46373 187.416 8.23621L185.538 7.54877C185.487 7.68832 185.456 7.77169 185.42 7.84309C185.389 7.90761 185.369 7.93063 185.362 7.93724C185.36 7.93903 185.354 7.94685 185.324 7.95846C185.287 7.97238 185.2 7.99685 185.033 7.99972L185.067 9.99943ZM187.416 8.23621C187.462 8.11251 187.488 8.04154 187.516 7.98311C187.541 7.92922 187.55 7.92463 187.537 7.93881C187.518 7.95998 187.486 7.98457 187.452 7.99888C187.423 8.0109 187.429 8 187.5 8V6C186.912 6 186.41 6.19799 186.045 6.6074C185.746 6.94205 185.607 7.36164 185.538 7.54877L187.416 8.23621ZM187.5 8C187.571 8 187.577 8.0109 187.548 7.99888C187.514 7.98457 187.482 7.95998 187.463 7.93881C187.45 7.92463 187.459 7.92922 187.484 7.98311C187.512 8.04154 187.538 8.11251 187.584 8.23621L189.462 7.54877C189.393 7.36164 189.254 6.94205 188.955 6.6074C188.59 6.19799 188.088 6 187.5 6V8ZM187.584 8.23621C187.667 8.46373 187.829 8.94757 188.208 9.33517C188.637 9.77443 189.221 9.98722 189.933 9.99943L189.967 7.99972C189.8 7.99685 189.713 7.97238 189.676 7.95846C189.646 7.94685 189.64 7.93903 189.638 7.93724C189.631 7.93062 189.611 7.90761 189.58 7.84308C189.544 7.77169 189.513 7.68832 189.462 7.54877L187.584 8.23621Z" fill="black" fill-opacity="0.5"/>
</g>
<path d="M181 7H180V9H181V7Z" fill="white"/>
<path opacity="0.5" d="M182 9H177V10H182V9Z" fill="white"/>
<path d="M182.744 9.2558C182.58 9.09201 182.358 9 182.127 9C181.895 9 181.673 9.09201 181.509 9.2558L179.505 11.2592L177.502 9.2558C177.337 9.09665 177.117 9.00859 176.888 9.01058C176.658 9.01257 176.439 9.10446 176.277 9.26644C176.115 9.42843 176.023 9.64756 176.022 9.87664C176.02 10.1057 176.108 10.3264 176.267 10.4912L178.27 12.4945L176.267 14.4979C176.183 14.5785 176.117 14.6749 176.071 14.7815C176.025 14.8881 176.001 15.0027 176 15.1187C175.999 15.2347 176.021 15.3498 176.065 15.4572C176.109 15.5645 176.174 15.6621 176.256 15.7441C176.338 15.8261 176.435 15.891 176.543 15.9349C176.65 15.9789 176.765 16.001 176.881 16C176.997 15.999 177.112 15.9749 177.219 15.9291C177.325 15.8833 177.422 15.8167 177.502 15.7333L179.505 13.7299L181.509 15.7333C181.674 15.8924 181.894 15.9805 182.123 15.9785C182.352 15.9765 182.572 15.8846 182.734 15.7226C182.896 15.5606 182.987 15.3415 182.989 15.1124C182.991 14.8834 182.903 14.6627 182.744 14.4979L180.741 12.4945L182.744 10.4912C182.908 10.3273 183 10.1052 183 9.87349C183 9.64183 182.908 9.41964 182.744 9.2558Z" fill="#DA2F2F"/>
<path d="M205.633 3.5H194.367C193.888 3.5 193.5 3.836 193.5 4.25V11.75C193.5 12.5 194.367 12.5 194.367 12.5H200H205.633C205.633 12.5 206.5 12.5 206.5 11.75V4.25C206.5 3.836 206.112 3.5 205.633 3.5Z" fill="#F9EFB2"/>
<path d="M205.633 3.5H194.367C193.888 3.5 193.5 3.836 193.5 4.25V11.75C193.5 12.5 194.367 12.5 194.367 12.5H200H205.633C205.633 12.5 206.5 12.5 206.5 11.75V4.25C206.5 3.836 206.112 3.5 205.633 3.5Z" fill="url(#paint0_linear_139_179)"/>
<path d="M205.633 3.5H194.367C193.888 3.5 193.5 3.836 193.5 4.25V11.75C193.5 12.5 194.367 12.5 194.367 12.5H200H205.633C205.633 12.5 206.5 12.5 206.5 11.75V4.25C206.5 3.836 206.112 3.5 205.633 3.5Z" stroke="#BC822A" stroke-miterlimit="10" stroke-linecap="round" stroke-linejoin="round"/>
<path d="M194 4L200 8.44444L206 4M194 12L198 7.55556M206 12L201.5 7.55556" stroke="#BC822A" stroke-miterlimit="10" stroke-linecap="round" stroke-linejoin="round"/>
<path d="M221.633 3.5H210.367C209.888 3.5 209.5 3.836 209.5 4.25V11.75C209.5 12.5 210.367 12.5 210.367 12.5H216H221.633C221.633 12.5 222.5 12.5 222.5 11.75V4.25C222.5 3.836 222.112 3.5 221.633 3.5Z" fill="#F9EFB2"/>
<path d="M221.633 3.5H210.367C209.888 3.5 209.5 3.836 209.5 4.25V11.75C209.5 12.5 210.367 12.5 210.367 12.5H216H221.633C221.633 12.5 222.5 12.5 222.5 11.75V4.25C222.5 3.836 222.112 3.5 221.633 3.5Z" fill="url(#paint1_linear_139_179)"/>
<path d="M221.633 3.5H210.367C209.888 3.5 209.5 3.836 209.5 4.25V11.75C209.5 12.5 210.367 12.5 210.367 12.5H216H221.633C221.633 12.5 222.5 12.5 222.5 11.75V4.25C222.5 3.836 222.112 3.5 221.633 3.5Z" stroke="#BC822A" stroke-miterlimit="10" stroke-linecap="round" stroke-linejoin="round"/>
<path d="M210 4L216 8.44444L222 4M210 12L214 7.55556M222 12L217.5 7.55556" stroke="#BC822A" stroke-miterlimit="10" stroke-linecap="round" stroke-linejoin="round"/>
<path d="M220 1.6665L223 5.6665H217L220 1.6665Z" fill="#2562B5"/>
<rect x="219" y="4" width="2" height="6" rx="1" fill="#2562B5"/>
<path fill-rule="evenodd" clip-rule="evenodd" d="M220 0L223.8 5.06667C224.294 5.7259 223.824 6.66667 223 6.66667H222V8.66667C222 9.77124 221.105 10.6667 220 10.6667C218.895 10.6667 218 9.77124 218 8.66667V6.66667H217C216.176 6.66667 215.706 5.7259 216.2 5.06667L220 0ZM219 5.66667V8.66667C219 9.21895 219.448 9.66667 220 9.66667C220.552 9.66667 221 9.21895 221 8.66667V5.66667H223L220 1.66667L217 5.66667H219Z" fill="white"/>
<path d="M237.633 3.5H226.367C225.888 3.5 225.5 3.836 225.5 4.25V11.75C225.5 12.5 226.367 12.5 226.367 12.5H232H237.633C237.633 12.5 238.5 12.5 238.5 11.75V4.25C238.5 3.836 238.112 3.5 237.633 3.5Z" fill="#F9EFB2"/>
<path d="M237.633 3.5H226.367C225.888 3.5 225.5 3.836 225.5 4.25V11.75C225.5 12.5 226.367 12.5 226.367 12.5H232H237.633C237.633 12.5 238.5 12.5 238.5 11.75V4.25C238.5 3.836 238.112 3.5 237.633 3.5Z" fill="url(#paint2_linear_139_179)"/>
<path d="M237.633 3.5H226.367C225.888 3.5 225.5 3.836 225.5 4.25V11.75C225.5 12.5 226.367 12.5 226.367 12.5H232H237.633C237.633 12.5 238.5 12.5 238.5 11.75V4.25C238.5 3.836 238.112 3.5 237.633 3.5Z" stroke="#BC822A" stroke-miterlimit="10" stroke-linecap="round" stroke-linejoin="round"/>
<path d="M226 4L232 8.44444L238 4M226 12L230 7.55556M238 12L233.5 7.55556" stroke="#BC822A" stroke-miterlimit="10" stroke-linecap="round" stroke-linejoin="round"/>
<path d="M236 9L239 5H233L236 9Z" fill="#489D1A"/>
<rect x="235" y="1" width="2" height="6" rx="1" fill="#489D1A"/>
<path fill-rule="evenodd" clip-rule="evenodd" d="M236 10.6664L239.8 5.59976C240.294 4.94052 239.824 3.99976 239 3.99976H238V1.99976C238 0.895186 237.105 -0.000244141 236 -0.000244141C234.895 -0.000244141 234 0.895186 234 1.99976V3.99976H233C232.176 3.99976 231.706 4.94052 232.2 5.59976L236 10.6664ZM235 4.99976V1.99976C235 1.44747 235.448 0.999756 236 0.999756C236.552 0.999756 237 1.44747 237 1.99976V4.99976H239L236 8.99976L233 4.99976H235Z" fill="white"/>
<path d="M253.633 3.5H242.367C241.888 3.5 241.5 3.836 241.5 4.25V11.75C241.5 12.5 242.367 12.5 242.367 12.5H248H253.633C253.633 12.5 254.5 12.5 254.5 11.75V4.25C254.5 3.836 254.112 3.5 253.633 3.5Z" fill="#F9EFB2"/>
<path d="M253.633 3.5H242.367C241.888 3.5 241.5 3.836 241.5 4.25V11.75C241.5 12.5 242.367 12.5 242.367 12.5H248H253.633C253.633 12.5 254.5 12.5 254.5 11.75V4.25C254.5 3.836 254.112 3.5 253.633 3.5Z" fill="url(#paint3_linear_139_179)"/>
<path d="M253.633 3.5H242.367C241.888 3.5 241.5 3.836 241.5 4.25V11.75C241.5 12.5 242.367 12.5 242.367 12.5H248H253.633C253.633 12.5 254.5 12.5 254.5 11.75V4.25C254.5 3.836 254.112 3.5 253.633 3.5Z" stroke="#BC822A" stroke-miterlimit="10" stroke-linecap="round" stroke-linejoin="round"/>
<path d="M242 4L248 8.44444L254 4M242 12L246 7.55556M254 12L249.5 7.55556" stroke="#BC822A" stroke-miterlimit="10" stroke-linecap="round" stroke-linejoin="round"/>
<path opacity="0.5" d="M246 9H242C241.448 9 241 9.44772 241 10V12C241 12.5523 241.448 13 242 13H246C246.552 13 247 12.5523 247 12V10C247 9.44772 246.552 9 246 9Z" fill="white"/>
<path d="M246.744 9.2558C246.58 9.09201 246.358 9 246.127 9C245.895 9 245.673 9.09201 245.509 9.2558L243.505 11.2592L241.502 9.2558C241.337 9.09665 241.117 9.00859 240.888 9.01058C240.658 9.01257 240.439 9.10446 240.277 9.26644C240.115 9.42843 240.023 9.64756 240.022 9.87664C240.02 10.1057 240.108 10.3264 240.267 10.4912L242.27 12.4945L240.267 14.4979C240.183 14.5785 240.117 14.6749 240.071 14.7815C240.025 14.8881 240.001 15.0027 240 15.1187C239.999 15.2347 240.021 15.3498 240.065 15.4572C240.109 15.5645 240.174 15.6621 240.256 15.7441C240.338 15.8261 240.435 15.891 240.543 15.9349C240.65 15.9789 240.765 16.001 240.881 16C240.997 15.999 241.112 15.9749 241.219 15.9291C241.325 15.8833 241.422 15.8167 241.502 15.7333L243.505 13.7299L245.509 15.7333C245.674 15.8924 245.894 15.9805 246.123 15.9785C246.352 15.9765 246.572 15.8846 246.734 15.7226C246.896 15.5606 246.987 15.3415 246.989 15.1124C246.991 14.8834 246.903 14.6627 246.744 14.4979L244.741 12.4945L246.744 10.4912C246.908 10.3273 247 10.1052 247 9.87349C247 9.64183 246.908 9.41964 246.744 9.2558Z" fill="#DA2F2F"/>
<rect x="27" y="4" width="2" height="6" rx="1" fill="#2562B5"/>
</g>
<defs>
<linearGradient id="paint0_linear_139_179" x1="200" y1="12.05" x2="200" y2="3.5" gradientUnits="userSpaceOnUse">
<stop stop-color="#E8B652"/>
<stop offset="1" stop-color="#FFF1C2"/>
</linearGradient>
<linearGradient id="paint1_linear_139_179" x1="216" y1="12.05" x2="216" y2="3.5" gradientUnits="userSpaceOnUse">
<stop stop-color="#E8B652"/>
<stop offset="1" stop-color="#FFF1C2"/>
</linearGradient>
<linearGradient id="paint2_linear_139_179" x1="232" y1="12.05" x2="232" y2="3.5" gradientUnits="userSpaceOnUse">
<stop stop-color="#E8B652"/>
<stop offset="1" stop-color="#FFF1C2"/>
</linearGradient>
<linearGradient id="paint3_linear_139_179" x1="248" y1="12.05" x2="248" y2="3.5" gradientUnits="userSpaceOnUse">
<stop stop-color="#E8B652"/>
<stop offset="1" stop-color="#FFF1C2"/>
</linearGradient>
<clipPath id="clip0_139_179">
<rect width="256" height="16" fill="white"/>
</clipPath>
</defs>
</svg>
