<svg width="16" height="16" viewBox="0 0 16 16" fill="none" xmlns="http://www.w3.org/2000/svg">
<path d="M8.5 10.5C9.60457 10.5 10.5 9.60457 10.5 8.5C10.5 7.39543 9.60457 6.5 8.5 6.5C7.39543 6.5 6.5 7.39543 6.5 8.5C6.5 9.60457 7.39543 10.5 8.5 10.5Z" stroke="#4D4D4D" stroke-linecap="round" stroke-linejoin="round"/>
<path d="M8.5 13.5C11.2614 13.5 13.5 11.2614 13.5 8.5C13.5 5.73858 11.2614 3.5 8.5 3.5C5.73858 3.5 3.5 5.73858 3.5 8.5C3.5 11.2614 5.73858 13.5 8.5 13.5Z" stroke="#4D4D4D" stroke-linecap="round" stroke-linejoin="round"/>
<path d="M8.5 1.5V3.5" stroke="#4D4D4D" stroke-linecap="round" stroke-linejoin="round"/>
<path d="M13.45 3.54999L12.036 4.96399" stroke="#4D4D4D" stroke-linecap="round" stroke-linejoin="round"/>
<path d="M15.5 8.5H13.5" stroke="#4D4D4D" stroke-linecap="round" stroke-linejoin="round"/>
<path d="M13.45 13.45L12.036 12.036" stroke="#4D4D4D" stroke-linecap="round" stroke-linejoin="round"/>
<path d="M8.5 15.5V13.5" stroke="#4D4D4D" stroke-linecap="round" stroke-linejoin="round"/>
<path d="M3.54999 13.45L4.96399 12.036" stroke="#4D4D4D" stroke-linecap="round" stroke-linejoin="round"/>
<path d="M1.5 8.5H3.5" stroke="#4D4D4D" stroke-linecap="round" stroke-linejoin="round"/>
<path d="M3.54999 3.54999L4.96399 4.96399" stroke="#4D4D4D" stroke-linecap="round" stroke-linejoin="round"/>
</svg>
