<svg width="65" height="16" viewBox="0 0 65 16" fill="none" xmlns="http://www.w3.org/2000/svg">
<path d="M20 1C19.4477 1 19 1.44769 19 2V4H20V3C20 2.44769 20.4477 2 21 2H29C29.5523 2 30 2.44769 30 3V8H31V2C31 1.44769 30.5523 1 30 1H20Z" fill="#AFC899"/>
<path d="M31 12H30V13C30 13.5523 29.5523 14 29 14H21C20.4477 14 20 13.5523 20 13V8H19V14C19 14.5523 19.4477 15 20 15H30C30.5523 15 31 14.5523 31 14V12Z" fill="#AFC899"/>
<path d="M19.5 6L22 9H17L19.5 6Z" fill="#AFC899"/>
<path d="M30.5 10L28 7H33L30.5 10Z" fill="#AFC899"/>
<path d="M22 3H28V4H22V3Z" fill="#AFC899"/>
<path d="M22 5H28V6H22V5Z" fill="#AFC899"/>
<path d="M22 5H28V6H22V5Z" fill="#AFC899"/>
<path d="M23 7H27V8H23V7Z" fill="#AFC899"/>
<path d="M23 9H28V10H23V9Z" fill="#AFC899"/>
<path d="M22 11H28V12H22V11Z" fill="#AFC899"/>
<path d="M8.15125 9.11177L8.14797 9.11383L8.14483 9.11599C8.10302 9.14455 8.05224 9.15999 8 9.15999C7.94777 9.15999 7.89694 9.14455 7.85518 9.11599L7.85199 9.11383L7.84876 9.11177L3.02505 6.03425C2.9753 5.99927 2.94244 5.94792 2.93354 5.89116C2.92449 5.8334 2.94098 5.77473 2.97939 5.72805C3.0178 5.68138 3.07499 5.65052 3.13836 5.64227C3.20173 5.63401 3.26611 5.64905 3.31732 5.68405L3.32069 5.68636L3.32415 5.68855L7.86198 8.57049L8 8.65813L8.13797 8.57049L12.6758 5.68855L12.6793 5.68636L12.6827 5.68405C12.708 5.66672 12.7369 5.65411 12.7676 5.64693C12.7983 5.63977 12.8303 5.63818 12.8616 5.64227C12.893 5.64635 12.9232 5.65603 12.9505 5.67075C12.9777 5.68547 13.0016 5.70494 13.0206 5.72805C13.0396 5.75116 13.0535 5.77747 13.0613 5.80545C13.0692 5.83344 13.071 5.86256 13.0665 5.89116C13.062 5.91976 13.0514 5.94726 13.0352 5.97212C13.0196 5.99614 12.9992 6.01722 12.9749 6.03425L8.15125 9.11177ZM12.8262 3.0001H3.17377C2.88774 2.99742 2.60398 3.04675 2.3391 3.1452C2.0738 3.24382 1.83279 3.38973 1.6302 3.57438C1.4276 3.75903 1.26751 3.97869 1.15932 4.2205C1.05129 4.46191 0.997169 4.72053 1.00011 4.98123V12.0187C0.997169 12.2795 1.05129 12.5381 1.15932 12.7795C1.26751 13.0213 1.4276 13.241 1.6302 13.4256C1.83279 13.6103 2.0738 13.7562 2.3391 13.8548C2.60397 13.9533 2.88772 14.0026 3.17374 13.9999H12.8263C13.1123 14.0026 13.396 13.9533 13.6609 13.8548C13.9262 13.7562 14.1672 13.6103 14.3698 13.4256C14.5724 13.241 14.7325 13.0213 14.8407 12.7795C14.9487 12.5381 15.0028 12.2795 14.9999 12.0188V4.98121C15.0028 4.72051 14.9487 4.4619 14.8407 4.2205C14.7325 3.97869 14.5724 3.75903 14.3698 3.57438C14.1672 3.38973 13.9262 3.24382 13.6609 3.1452C13.396 3.04675 13.1123 2.99742 12.8262 3.0001Z" fill="url(#paint0_linear_81_90)" stroke="#BF985B"/>
<path fill-rule="evenodd" clip-rule="evenodd" d="M41.8682 2.51942C41.4843 1.84761 40.5157 1.84761 40.1318 2.51943L33.8549 13.5039C33.474 14.1705 33.9554 15 34.7232 15H47.2768C48.0446 15 48.526 14.1705 48.1451 13.5039L41.8682 2.51942Z" fill="#FF0000"/>
<path d="M41.6813 7.87659C41.6813 8.02633 41.6731 8.17444 41.6569 8.32092C41.6406 8.46415 41.6194 8.62203 41.5934 8.79456L41.2516 11.275H40.778L40.4606 8.98499C40.4313 8.75387 40.4036 8.5553 40.3776 8.38928C40.3515 8.22001 40.3385 8.04586 40.3385 7.86682C40.3385 7.47945 40.3971 7.19625 40.5143 7.01721C40.6347 6.83818 40.804 6.74866 41.0221 6.74866C41.2369 6.74866 41.3997 6.83004 41.5104 6.9928C41.6243 7.15556 41.6813 7.45015 41.6813 7.87659ZM41.7887 12.5055C41.7887 12.7203 41.7155 12.9026 41.569 13.0524C41.4225 13.2021 41.2435 13.277 41.0319 13.277C40.817 13.277 40.6347 13.2021 40.485 13.0524C40.3353 12.9026 40.2604 12.7203 40.2604 12.5055C40.2604 12.2939 40.3353 12.1149 40.485 11.9684C40.6347 11.8219 40.817 11.7487 41.0319 11.7487C41.2435 11.7487 41.4225 11.8219 41.569 11.9684C41.7155 12.1149 41.7887 12.2939 41.7887 12.5055Z" fill="white"/>
<path fill-rule="evenodd" clip-rule="evenodd" d="M57.8682 2.51942C57.4843 1.84761 56.5157 1.84761 56.1318 2.51943L49.8549 13.5039C49.474 14.1705 49.9554 15 50.7232 15H63.2768C64.0446 15 64.526 14.1705 64.1451 13.5039L57.8682 2.51942Z" fill="#FEE107"/>
<path d="M57.6813 7.87659C57.6813 8.02633 57.6731 8.17444 57.6569 8.32092C57.6406 8.46415 57.6194 8.62203 57.5934 8.79456L57.2516 11.275H56.778L56.4606 8.98499C56.4313 8.75387 56.4036 8.5553 56.3776 8.38928C56.3515 8.22001 56.3385 8.04586 56.3385 7.86682C56.3385 7.47945 56.3971 7.19625 56.5143 7.01721C56.6347 6.83818 56.804 6.74866 57.0221 6.74866C57.2369 6.74866 57.3997 6.83004 57.5104 6.9928C57.6243 7.15556 57.6813 7.45015 57.6813 7.87659ZM57.7887 12.5055C57.7887 12.7203 57.7155 12.9026 57.569 13.0524C57.4225 13.2021 57.2435 13.277 57.0319 13.277C56.817 13.277 56.6347 13.2021 56.485 13.0524C56.3353 12.9026 56.2604 12.7203 56.2604 12.5055C56.2604 12.2939 56.3353 12.1149 56.485 11.9684C56.6347 11.8219 56.817 11.7487 57.0319 11.7487C57.2435 11.7487 57.4225 11.8219 57.569 11.9684C57.7155 12.1149 57.7887 12.2939 57.7887 12.5055Z" fill="black"/>
<defs>
<linearGradient id="paint0_linear_81_90" x1="8" y1="3.65999" x2="8" y2="13.34" gradientUnits="userSpaceOnUse">
<stop stop-color="#FFE298"/>
<stop offset="1" stop-color="#FFCF52"/>
</linearGradient>
</defs>
</svg>
