<svg width="48" height="16" viewBox="0 0 48 16" fill="none" xmlns="http://www.w3.org/2000/svg">
<g clip-path="url(#clip0_215_64)">
<path d="M6.00008 15C5.73489 15 5.48057 14.8946 5.29308 14.707L0.293081 9.70701C0.197571 9.61476 0.121389 9.50441 0.0689798 9.38241C0.0165708 9.26041 -0.0110155 9.12919 -0.0121693 8.99641C-0.0133231 8.86363 0.0119786 8.73195 0.0622595 8.60905C0.11254 8.48616 0.186793 8.3745 0.280686 8.28061C0.374579 8.18672 0.486231 8.11247 0.609127 8.06219C0.732024 8.0119 0.863703 7.9866 0.996482 7.98776C1.12926 7.98891 1.26048 8.0165 1.38249 8.0689C1.50449 8.12131 1.61483 8.1975 1.70708 8.29301L5.86008 12.445L14.1781 0.431007C14.2513 0.319643 14.3461 0.224052 14.4569 0.149855C14.5676 0.0756581 14.6921 0.0243522 14.823 -0.00104572C14.9538 -0.0264436 15.0884 -0.0254208 15.2189 0.00196256C15.3494 0.0293459 15.473 0.082537 15.5826 0.158408C15.6923 0.23428 15.7856 0.3313 15.8572 0.443764C15.9287 0.556228 15.9771 0.681866 15.9994 0.813291C16.0217 0.944716 16.0175 1.07927 15.9871 1.20905C15.9566 1.33884 15.9005 1.46122 15.8221 1.56901L6.82208 14.569C6.73919 14.6902 6.63063 14.7916 6.50412 14.8661C6.37761 14.9406 6.23625 14.9863 6.09008 15C6.06008 15 6.03008 15 6.00008 15Z" fill="#009642"/>
<path d="M31.7999 12.526L25.4829 0.880001C25.3271 0.591065 25.0895 0.354523 24.7999 0.200001C24.4064 -0.010568 23.9457 -0.0572588 23.5179 0.0700845C23.0902 0.197428 22.7301 0.488504 22.5159 0.880001L16.1999 12.526C16.0617 12.7823 15.9927 13.0701 15.9995 13.3611C16.0063 13.6522 16.0887 13.9365 16.2386 14.186C16.3885 14.4356 16.6007 14.6419 16.8545 14.7846C17.1082 14.9273 17.3947 15.0015 17.6859 15H30.3139C30.5929 15 30.8676 14.9313 31.1139 14.8C31.3089 14.6965 31.4816 14.5553 31.6218 14.3847C31.762 14.2142 31.8671 14.0175 31.931 13.8061C31.9949 13.5947 32.0163 13.3727 31.9939 13.153C31.9716 12.9333 31.906 12.7202 31.8009 12.526H31.7999ZM23.9999 13C23.8021 13 23.6087 12.9414 23.4443 12.8315C23.2798 12.7216 23.1517 12.5654 23.076 12.3827C23.0003 12.2 22.9805 11.9989 23.0191 11.8049C23.0577 11.6109 23.1529 11.4327 23.2927 11.2929C23.4326 11.153 23.6108 11.0578 23.8048 11.0192C23.9987 10.9806 24.1998 11.0004 24.3825 11.0761C24.5653 11.1518 24.7214 11.28 24.8313 11.4444C24.9412 11.6089 24.9999 11.8022 24.9999 12C24.9999 12.2652 24.8945 12.5196 24.707 12.7071C24.5194 12.8946 24.2651 13 23.9999 13ZM24.9999 9.5C24.9999 9.63261 24.9472 9.75979 24.8534 9.85355C24.7596 9.94732 24.6325 10 24.4999 10H23.4999C23.3672 10 23.2401 9.94732 23.1463 9.85355C23.0525 9.75979 22.9999 9.63261 22.9999 9.5V5.5C22.9999 5.36739 23.0525 5.24022 23.1463 5.14645C23.2401 5.05268 23.3672 5 23.4999 5H24.4999C24.6325 5 24.7596 5.05268 24.8534 5.14645C24.9472 5.24022 24.9999 5.36739 24.9999 5.5V9.5Z" fill="#E86C60"/>
<path d="M46.0343 0.446007C45.9026 0.439421 45.7708 0.459365 45.6469 0.504656C45.523 0.549947 45.4095 0.619663 45.3131 0.709666C45.2166 0.799669 45.1392 0.908126 45.0855 1.0286C45.0318 1.14908 45.0028 1.27912 45.0003 1.41101L44.9443 3.05801C44.1097 2.22065 43.0763 1.60865 41.9409 1.27922C40.8054 0.949793 39.605 0.913705 38.4518 1.17433C37.2986 1.43496 36.2303 1.98379 35.3469 2.76949C34.4635 3.55519 33.7937 4.55211 33.4003 5.66701C33.3566 5.79091 33.3377 5.92221 33.3447 6.05342C33.3517 6.18462 33.3845 6.31316 33.4412 6.4317C33.5557 6.67109 33.7606 6.85519 34.0108 6.94351C34.261 7.03182 34.5361 7.01712 34.7755 6.90263C35.0149 6.78814 35.199 6.58324 35.2873 6.33301C35.5903 5.47382 36.1225 4.71388 36.8264 4.13547C37.5303 3.55706 38.379 3.18221 39.2806 3.05151C40.1822 2.92081 41.1024 3.03924 41.9415 3.39397C42.7807 3.7487 43.5068 4.32622 44.0413 5.06401L41.1223 4.30001C40.8657 4.23291 40.593 4.27049 40.3641 4.40448C40.1352 4.53848 39.9689 4.75791 39.9018 5.01451C39.8347 5.2711 39.8723 5.54385 40.0063 5.77274C40.1403 6.00162 40.3597 6.16791 40.6163 6.23501L45.5733 7.52901C45.718 7.56682 45.8694 7.57167 46.0163 7.54321C46.1632 7.51474 46.3018 7.45369 46.4219 7.36454C46.5421 7.2754 46.6407 7.16043 46.7105 7.02811C46.7803 6.89579 46.8195 6.7495 46.8253 6.60001L47.0003 1.47901C47.0047 1.34775 46.9832 1.21691 46.9371 1.09396C46.8909 0.971004 46.821 0.858349 46.7313 0.762424C46.6416 0.6665 46.5338 0.589184 46.4143 0.534893C46.2947 0.480602 46.1656 0.450398 46.0343 0.446007Z" fill="#515151"/>
<path d="M45.9911 9.05701C45.8672 9.01328 45.736 8.99436 45.6049 9.00134C45.4737 9.00833 45.3452 9.04108 45.2267 9.09772C45.1082 9.15437 45.0021 9.2338 44.9143 9.33148C44.8265 9.42916 44.7588 9.54317 44.7151 9.66701C44.4121 10.5262 43.8799 11.2861 43.176 11.8646C42.4721 12.443 41.6234 12.8178 40.7218 12.9485C39.8202 13.0792 38.9 12.9608 38.0608 12.6061C37.2217 12.2513 36.4956 11.6738 35.9611 10.936L38.8781 11.697C39.0051 11.7302 39.1375 11.7381 39.2676 11.7202C39.3977 11.7023 39.523 11.6589 39.6363 11.5925C39.7496 11.5262 39.8488 11.4382 39.9281 11.3335C40.0074 11.2288 40.0654 11.1096 40.0986 10.9825C40.1318 10.8555 40.1397 10.7231 40.1217 10.593C40.1038 10.4629 40.0604 10.3376 39.9941 10.2243C39.9278 10.111 39.8397 10.0118 39.7351 9.93248C39.6304 9.85316 39.5111 9.79524 39.3841 9.76201L34.4271 8.46802C34.2821 8.43016 34.1305 8.42537 33.9834 8.454C33.8363 8.48263 33.6975 8.54395 33.5773 8.63343C33.4571 8.72291 33.3586 8.83825 33.2889 8.97094C33.2193 9.10363 33.1804 9.25026 33.1751 9.40001L33.0001 14.521C32.9912 14.7859 33.0878 15.0436 33.2688 15.2373C33.4497 15.431 33.7002 15.5449 33.9651 15.554H34.0001C34.2595 15.5542 34.5088 15.4535 34.6954 15.2732C34.882 15.093 34.9913 14.8473 35.0001 14.588L35.0561 12.941C35.8906 13.7784 36.9239 14.3904 38.0593 14.7199C39.1947 15.0494 40.3951 15.0856 41.5483 14.8251C42.7015 14.5646 43.7698 14.0158 44.6532 13.2302C45.5367 12.4446 46.2065 11.4478 46.6001 10.333C46.6885 10.083 46.674 9.80821 46.5598 9.56893C46.4456 9.32965 46.241 9.14552 45.9911 9.05701Z" fill="#515151"/>
</g>
<defs>
<clipPath id="clip0_215_64">
<rect width="48" height="16" fill="white"/>
</clipPath>
</defs>
</svg>
