<svg width="33" height="33" viewBox="0 0 33 33" fill="none" xmlns="http://www.w3.org/2000/svg">
<rect x="0.5" y="0.5" width="32" height="32" rx="1.5" stroke="#BEB686"/>
<path d="M17.3098 18.304H9.80273V16.4432H17.2814C17.9254 16.4432 18.458 16.3366 18.8794 16.1236C19.3008 15.9058 19.6133 15.6075 19.8169 15.2287C20.0205 14.8452 20.1223 14.4048 20.1223 13.9077C20.1223 13.4152 20.0205 12.9749 19.8169 12.5866C19.6133 12.1984 19.3032 11.893 18.8865 11.6704C18.4699 11.4432 17.9443 11.3295 17.3098 11.3295H14.2132V24H12.0257V9.45453H17.3098C18.4131 9.45453 19.334 9.65339 20.0726 10.0511C20.816 10.4488 21.3723 10.9839 21.7417 11.6562C22.1157 12.3286 22.3027 13.0767 22.3027 13.9006C22.3027 14.7339 22.1133 15.4844 21.7346 16.152C21.3605 16.8149 20.8018 17.3404 20.0584 17.7287C19.3198 18.1122 18.4036 18.304 17.3098 18.304ZM17.4164 19.5256V21.3934H9.80273V19.5256H17.4164Z" fill="#4A4A4A"/>
</svg>
