<svg width="16" height="16" viewBox="0 0 16 16" fill="none" xmlns="http://www.w3.org/2000/svg">
<path fill-rule="evenodd" clip-rule="evenodd" d="M8.5 2C5.46243 2 3 4.46243 3 7.5C3 10.5376 5.46243 13 8.5 13C11.5376 13 14 10.5376 14 7.5C14 4.46243 11.5376 2 8.5 2ZM2 7.5C2 3.91015 4.91015 1 8.5 1C12.0899 1 15 3.91015 15 7.5C15 11.0899 12.0899 14 8.5 14C4.91015 14 2 11.0899 2 7.5Z" fill="#333333"/>
<path d="M8.67053 4.00326C7.73409 4.00174 6.81344 4.19812 6 4.57291L6.61494 5.57052C7.20572 5.30187 7.86626 5.1489 8.5435 5.1239C8.80989 5.11109 9.07464 5.16527 9.30135 5.27899C9.39008 5.32941 9.46148 5.39722 9.50883 5.47607C9.55618 5.55491 9.57792 5.64219 9.57201 5.7297C9.57355 5.90126 9.5073 6.06874 9.38291 6.2078C9.158 6.42317 8.89483 6.61042 8.60196 6.76346C8.2663 6.94501 7.97894 7.17893 7.75677 7.45147C7.59733 7.68397 7.51759 7.94664 7.52581 8.21236V8.55112H9.01986V8.27591C9.01142 8.12018 9.06176 7.96605 9.16421 7.83395C9.36374 7.64545 9.59447 7.48005 9.84989 7.34244C10.2662 7.12462 10.6291 6.84649 10.9203 6.52207C11.1142 6.26118 11.2121 5.96104 11.2025 5.65681C11.2123 5.42701 11.1553 5.19854 11.0363 4.98968C10.9172 4.78082 10.7393 4.59736 10.5168 4.45397C9.98541 4.13418 9.33222 3.97472 8.67053 4.00326V4.00326Z" fill="#333333"/>
<path d="M8.36304 11C8.96097 11 9.44569 10.6085 9.44569 10.1254C9.44569 9.64242 8.96097 9.25085 8.36304 9.25085C7.76511 9.25085 7.2804 9.64242 7.2804 10.1254C7.2804 10.6085 7.76511 11 8.36304 11Z" fill="#333333"/>
</svg>
