<svg width="24" height="24" viewBox="0 0 24 24" fill="none" xmlns="http://www.w3.org/2000/svg">
<path fill-rule="evenodd" clip-rule="evenodd" d="M10.0482 2.81057C10.7658 1.08583 13.2096 1.08603 13.9274 2.81057L15.7675 7.23439L20.5421 7.61697C22.4046 7.76629 23.1602 10.0908 21.7411 11.3064L18.103 14.4224L19.2148 19.0822C19.6484 20.8997 17.6708 22.3362 16.0762 21.3623L11.9878 18.8657L7.8994 21.3623C6.30484 22.3361 4.32724 20.8996 4.76078 19.0822L5.87263 14.4224L2.2345 11.3064C0.81624 10.0908 1.57152 7.76657 3.43353 7.61697L8.20813 7.23439L10.0482 2.81057ZM10.1477 8.04058C9.84519 8.76783 9.1615 9.26488 8.37635 9.32782L3.60072 9.71041L7.23885 12.8275C7.83691 13.3398 8.09827 14.1436 7.91581 14.9096L6.80396 19.5704L10.8924 17.0728C11.5644 16.6623 12.4111 16.6626 13.0832 17.0728L17.1717 19.5704L16.0598 14.9096C15.8774 14.1437 16.1388 13.3397 16.7368 12.8275L20.3749 9.71041L15.5993 9.32782C14.8143 9.26472 14.1304 8.76768 13.8279 8.04058L11.9878 3.61677L10.1477 8.04058Z" fill="#4D4D4D"/>
</svg>
