<svg width="16" height="16" viewBox="0 0 16 16" fill="none" xmlns="http://www.w3.org/2000/svg">
<path fill-rule="evenodd" clip-rule="evenodd" d="M7.66086 1.1326C7.85239 0.955801 8.14761 0.955801 8.33914 1.1326L14.8391 7.1326C15.0421 7.3199 15.0547 7.63623 14.8674 7.83914C14.6801 8.04205 14.3638 8.0547 14.1609 7.8674L8 2.18045L1.83914 7.8674C1.63623 8.0547 1.3199 8.04205 1.1326 7.83914C0.945299 7.63623 0.957952 7.3199 1.16086 7.1326L7.66086 1.1326Z" fill="#4D4D4D"/>
<path fill-rule="evenodd" clip-rule="evenodd" d="M3.5 5.5C3.77614 5.5 4 5.72386 4 6V14H6V10.5C6 10.2239 6.22386 10 6.5 10H9.5C9.77615 10 10 10.2239 10 10.5V14H12V6C12 5.72386 12.2239 5.5 12.5 5.5C12.7761 5.5 13 5.72386 13 6V14.5C13 14.7761 12.7761 15 12.5 15H9.5C9.22386 15 9 14.7761 9 14.5V11H7V14.5C7 14.7761 6.77614 15 6.5 15H3.5C3.22386 15 3 14.7761 3 14.5V6C3 5.72386 3.22386 5.5 3.5 5.5Z" fill="#4D4D4D"/>
</svg>
