<?xml version="1.0" encoding="UTF-8"?><svg id="Layer_2" xmlns="http://www.w3.org/2000/svg" viewBox="0 0 99.42 65.58"><defs><style>.cls-1{fill:#4f8a7e;stroke-width:0px;}</style></defs><g id="_1"><path class="cls-1" d="M9.62,65.58c-7.02,0-7.48-8.19-7.92-16.12-.07-1.17-.13-2.35-.22-3.52-.64-8.8,1.1-28.22,2.59-32.75C2.16,10.74.29,6.73.05,5.31l-.05-.32.27-.18c1.78-1.19,5.67-.67,8.4.5C14.84.5,23.39,1.53,26.94,2.88,31.46-1,36.58.14,36.8.2l.52.12-2.88,9.21c3.36,7.82,4.68,11.89,5.32,13.85l.02.15h-.52s-.46.15-.46.15c-.64-1.96-1.97-6.04-5.36-13.94l-.07-.17,2.65-8.5c-1.4-.17-5.29-.29-8.67,2.74l-.23.21-.29-.12c-2.08-.87-11.18-3-17.78,2.37l-.24.2-.28-.13c-2.31-1.06-5.78-1.62-7.42-.86.41,1.48,2.1,5.07,3.92,7.3l.18.22-.1.27c-1.32,3.45-3.3,23.32-2.63,32.6.09,1.17.15,2.35.22,3.54.43,7.8.84,15.17,6.93,15.17.04,0,.07,0,.11,0,2.95-.04,15.39-.27,29.76-.53,22.57-.41,50.66-.91,53.04-.91,1.63,0,2.94-.8,3.41-2.08.43-1.18.03-2.44-1.07-3.36-4.65-3.89-10.32-5.2-17.32-3.99-3.78.65-7.84,1.52-11.77,2.36-6,1.28-11.67,2.5-15.01,2.63l-.52.02v-.52c0-4.35-.49-8.78-1.43-12.83l.97-.22c.91,3.95,1.41,8.27,1.45,12.52,3.32-.23,8.67-1.37,14.32-2.58,3.94-.84,8.01-1.71,11.81-2.37,7.31-1.26,13.25.12,18.14,4.21,1.41,1.18,1.93,2.89,1.36,4.47-.61,1.69-2.28,2.74-4.34,2.74-2.38,0-30.46.51-53.02.91-14.38.26-26.82.48-29.77.53-.04,0-.09,0-.13,0Z"/><path class="cls-1" d="M20.22,62.22l-1-.02c.11-4.96-4.03-17.55-4.08-17.68l.95-.31c.17.52,4.24,12.89,4.13,18.01Z"/><path class="cls-1" d="M12.14,62.65c-.18-.79-.49-1.28-.78-1.22-.33.05-.76.6-.73,1.08l-1,.07c-.06-.97.7-2.01,1.58-2.14.42-.06,1.45.01,1.9,1.99l-.97.22Z"/><path class="cls-1" d="M19.18,62.65c-.34-1.47-.91-2.3-1.54-2.2-.72.1-1.46,1.23-1.41,2.11l-1,.07c-.09-1.42,1.02-2.99,2.26-3.17.71-.11,2.01.14,2.66,2.97l-.97.22Z"/><path class="cls-1" d="M15.3,62.76c-.26-1.15-.7-1.77-1.19-1.71-.55.08-1.12.92-1.08,1.57l-1,.07c-.08-1.19.86-2.47,1.93-2.63.5-.07,1.74.02,2.31,2.48l-.97.22Z"/><path class="cls-1" d="M17.06,19.97c.28-.94,4.54-4.32,7.26-1.66-.5.5-2.72,2.11-3.21,2.83-.94-.5-4.05-1.16-4.05-1.16Z"/><rect class="cls-1" x="20.89" y="20.66" width=".5" height="2.51" transform="translate(-4.69 5.79) rotate(-14.05)"/><path class="cls-1" d="M17.18,25.86l-.36-.35c3.39-3.45,7.6-2.71,9.4-2.39l.29.05-.08.49-.3-.05c-1.87-.33-5.75-1.01-8.96,2.25Z"/><path class="cls-1" d="M37.32,23.62c-1.55-1.97-5.38-4.97-13.6-2.9l-.12-.49c8.48-2.13,12.48,1.01,14.11,3.08l-.39.31Z"/><path class="cls-1" d="M35.18,26.9c-2.27-4.6-9.53-5.05-11.89-4.85l-.04-.5c2.46-.21,9.99.28,12.38,5.13l-.45.22Z"/><path class="cls-1" d="M8.72,34.3l-.5-.06c.67-5.14,6.41-9.54,11.56-11.94l.21.45c-5.03,2.35-10.63,6.62-11.28,11.56Z"/><path class="cls-1" d="M4.04,30.18l-.44-.24c2.35-4.22,10.43-7.32,14.84-8.49l.13.48c-4.33,1.15-12.27,4.17-14.53,8.25Z"/><path class="cls-1" d="M24.88,15.68c-1.94,0-3.52-1.58-3.52-3.52s1.58-3.52,3.52-3.52,3.52,1.58,3.52,3.52-1.58,3.52-3.52,3.52ZM24.88,9.14c-1.67,0-3.02,1.35-3.02,3.02s1.35,3.02,3.02,3.02,3.02-1.35,3.02-3.02-1.36-3.02-3.02-3.02Z"/><circle class="cls-1" cx="24.88" cy="12.16" r="1.96"/><path class="cls-1" d="M13.63,17.29c-1.94,0-3.52-1.58-3.52-3.52s1.58-3.52,3.52-3.52,3.52,1.58,3.52,3.52-1.58,3.52-3.52,3.52ZM13.63,10.75c-1.67,0-3.02,1.35-3.02,3.02s1.35,3.02,3.02,3.02,3.02-1.35,3.02-3.02-1.36-3.02-3.02-3.02Z"/><circle class="cls-1" cx="13.63" cy="13.77" r="1.96"/><path class="cls-1" d="M27.7,9.58c-.66-1.18-2.73-2.06-4.42-1.91l-.09-1c1.85-.17,4.46.76,5.39,2.42l-.87.49Z"/><path class="cls-1" d="M10.34,12.24l-.99-.16c.35-2.21,3.24-3.57,4.5-3.86l.22.98c-1.21.27-3.49,1.52-3.73,3.04Z"/><path class="cls-1" d="M32.91,8c.12-.12,1.83-5.28,1.83-5.28,0,0-2.87.29-4.53,2.24.46.58,2.7,3.03,2.7,3.03Z"/><path class="cls-1" d="M5.31,11.16s-2.41-2.2-2.95-4.24c1.12.42,4.45,1.66,4.45,1.66l-1.5,2.58Z"/><path class="cls-1" d="M75.36,21.55c3.4,5.17,3.07,11.57-.46,15.42.57-4.25-.42-8.93-3.14-13.05s-6.62-6.9-10.75-8.06c4.93-1.72,10.94.53,14.34,5.7Z"/><path class="cls-1" d="M60.78,50.27c-1.47,0-2.97-.21-4.48-.63-4.44-1.24-8.37-4.18-11.07-8.27-4.75-7.22-4.43-16.5.76-22.06l.73.68c-4.88,5.23-5.16,13.98-.66,20.82,2.56,3.89,6.29,6.69,10.5,7.86,4.19,1.17,8.34.59,11.71-1.62,3.38-2.23,5.55-5.83,6.13-10.15.58-4.32-.51-8.84-3.05-12.72-2.57-3.89-6.29-6.68-10.47-7.85-2.61-.74-5.27-.79-7.71-.16l-.25-.97c2.61-.68,5.46-.62,8.23.16,4.41,1.24,8.33,4.17,11.03,8.27,2.68,4.08,3.82,8.84,3.21,13.4-.62,4.61-2.95,8.46-6.57,10.85-2.39,1.57-5.16,2.38-8.05,2.38Z"/><path class="cls-1" d="M60.42,47.29c-4.83,0-9.83-2.66-12.95-7.4-4.65-7.07-3.39-16.13,2.81-20.2,6.19-4.07,15.01-1.64,19.66,5.43,4.65,7.07,3.39,16.13-2.81,20.2-2.03,1.34-4.35,1.97-6.71,1.97ZM57,18.71c-2.17,0-4.3.58-6.17,1.81-5.73,3.77-6.87,12.21-2.52,18.82,4.34,6.6,12.54,8.91,18.28,5.14,5.73-3.77,6.87-12.21,2.52-18.82h0c-2.93-4.45-7.61-6.95-12.11-6.95Z"/><path class="cls-1" d="M66.71,37.02c-2.8,0-5.83-1.7-7.78-4.66-1.34-2.04-1.98-4.37-1.8-6.56.18-2.24,1.19-4.07,2.84-5.15,1.19-.78,2.64-1.11,4.19-.94l-.11.99c-1.32-.14-2.54.13-3.53.78-1.39.91-2.24,2.48-2.4,4.4-.16,1.97.42,4.08,1.64,5.93,2.49,3.78,6.87,5.31,9.78,3.39.99-.65,1.73-1.67,2.12-2.93l.96.3c-.46,1.49-1.34,2.69-2.53,3.47-1.01.67-2.18.98-3.39.98Z"/><path class="cls-1" d="M38.23,30.9l-1-.08c.49-6.07,3.76-16.35,10.43-18.07,2.79-.72,4.63.13,5.82,2.69.58,1.25.04,2.69-1.4,3.75-1.92,1.41-5.01,1.85-6.87.16l.67-.74c1.48,1.35,4.01.94,5.61-.22.39-.29,1.64-1.33,1.08-2.52-.98-2.12-2.33-2.74-4.66-2.14-5.84,1.51-9.18,10.95-9.69,17.18Z"/><path class="cls-1" d="M50.54,15.23c.98.89,1.48,2.17,2.06,3.35,0,0-.96.28-.96.28-.25-1.22-.4-2.57-1.1-3.63h0Z"/><path class="cls-1" d="M48.38,17.06c.91.61,1.74,1.53,2,2.8l-1,.05c.12-.93-.3-2.01-1-2.85,0,0,.7.84,0,0Z"/><path class="cls-1" d="M93.94,59.71c1.77-.75,3.81-.4,5.49.5-1.9.47-3.69.12-5.49-.5h0Z"/><path class="cls-1" d="M91,56.66c1.45-.88,3.24-.87,4.85-.58,4.42,1.04-3.61.9-4.85.58h0Z"/><path class="cls-1" d="M87.78,54.78c.87-1.12,2.38-1.47,3.72-1.51,3.79.18-2.68,1.55-3.72,1.51h0Z"/></g></svg>