<svg width="16" height="16" viewBox="0 0 16 16" fill="none" xmlns="http://www.w3.org/2000/svg">
<path fill-rule="evenodd" clip-rule="evenodd" d="M7.97358 1.0007C7.98238 1.00023 7.99119 1 8 1C9.07083 1 10.0675 1.26867 10.8074 1.8592C11.5623 2.46169 12 3.36054 12 4.5C12 6.23053 10.9672 7.11545 10.1065 7.85301C10.0961 7.8619 10.0857 7.87077 10.0754 7.87963C9.19218 8.63667 8.01325 9.2514 8.01325 10.5C8.01325 10.7761 7.78939 11 7.51325 11C7.2371 11 7.01325 10.7761 7.01325 10.5C7.01325 8.76947 8.53276 7.88455 9.39354 7.14699C9.40392 7.1381 9.41428 7.12923 9.42461 7.12037C10.3078 6.36333 11 5.7486 11 4.5C11 3.63946 10.6817 3.03831 10.1836 2.6408C9.67301 2.2333 8.92443 2.00223 8.01325 2.00002C6.82888 2.06582 5.70586 2.54875 4.84334 3.36348C4.6426 3.5531 4.32614 3.54408 4.13652 3.34334C3.9469 3.14259 3.95592 2.82614 4.15666 2.63652C5.19477 1.65594 6.54756 1.07617 7.97358 1.0007Z" fill="#4D4D4D"/>
<path d="M8 15C8.55228 15 9 14.5523 9 14C9 13.4477 8.55228 13 8 13C7.44772 13 7 13.4477 7 14C7 14.5523 7.44772 15 8 15Z" fill="#4D4D4D"/>
</svg>
