<svg id="Слой_1" data-name="Слой 1" xmlns="http://www.w3.org/2000/svg" viewBox="0 0 600 400"><defs><style>.cls-1{fill:#2d3547;}.cls-2{fill:#f47119;}.cls-3{fill:#54d39c;}.cls-4{fill:#1875f0;}</style></defs><path class="cls-1" d="M150.21,272.85a12,12,0,0,0-3.29-9.18c-3.77-3.65-9.56-4.32-14.54-4.32H121.26v26h13.5c4.39,0,9-.76,12.13-4.09A12.58,12.58,0,0,0,150.21,272.85Zm-5-39.14a12.09,12.09,0,0,0-2.56-7.65,11.45,11.45,0,0,0-7-3.76,27.85,27.85,0,0,0-5.24-.4h-9.55v23.95h10.8a15.22,15.22,0,0,0,8.54-2.13c3.4-2.19,5-5.74,5-10Zm24.31,38.46A25.73,25.73,0,0,1,164.46,288c-8.28,10.83-23.3,11.88-35.84,11.93h-4.35l-14.08-.11c-2.18,0-4.63-.15-6.1-1.77-1.31-1.44-1.38-3.58-1.38-5.53V214.33a8,8,0,0,1,.39-3c1.45-3.57,6.3-3.29,9.41-3.33q7-.09,13.95,0c6.39.05,12.9-.15,19.16,1.34,5.45,1.3,10.74,4,14.09,8.5a21.54,21.54,0,0,1,4,11,23.29,23.29,0,0,1-2.53,13.34A18.7,18.7,0,0,1,151,251a16.6,16.6,0,0,1,4.5,1.18,22.51,22.51,0,0,1,4.06,2,20.38,20.38,0,0,1,5.65,5.1,21.38,21.38,0,0,1,4.31,13"/><path class="cls-1" d="M243.72,296.53a2.31,2.31,0,0,1-.34,1.35c-.92,1.36-3,1.62-4.46,1.8a37.38,37.38,0,0,1-6.69.14,20.38,20.38,0,0,1-3.29-.56,4.86,4.86,0,0,1-2.44-1.38c-.34-.34-.34-.68-.34-1.35V260.39c0-5.06-.58-11-5.24-14a10,10,0,0,0-6.87-1.48,12.85,12.85,0,0,0-5.12,2.1,27.61,27.61,0,0,0-4.64,4c-.49.51-2.75,2.85-2.75,3.25v42.27a1.93,1.93,0,0,1-.34,1.35,4,4,0,0,1-2.25,1.28,17.08,17.08,0,0,1-2.77.49,34.74,34.74,0,0,1-5,.21,17.29,17.29,0,0,1-4.74-.67,5.29,5.29,0,0,1-2.13-1.31c-.34-.34-.34-.67-.34-1.35V233.05a2,2,0,0,1,.34-1.35c.83-1.23,2.51-1.56,3.87-1.77a27,27,0,0,1,5-.19,11.9,11.9,0,0,1,4.6.9,2.11,2.11,0,0,1,1,.82,2.83,2.83,0,0,1,.36,1.59v7.48A34.91,34.91,0,0,1,210,232.1a22.62,22.62,0,0,1,11.13-2.7,25.61,25.61,0,0,1,10.8,2c5.46,2.39,9,7.63,10.74,13.17s1.78,11.06,1.68,16.66L244.08,274l-.22,14.3-.13,8v.21Z"/><path class="cls-1" d="M305.8,274.21a16.14,16.14,0,0,1-3.54,7.17,11.9,11.9,0,0,1-4.69,3.18,18.15,18.15,0,0,1-11.87,0,12.37,12.37,0,0,1-4.7-3.18,16.44,16.44,0,0,1-3.53-7.17,47.25,47.25,0,0,1,0-19.53,16.39,16.39,0,0,1,3.53-7.17,12.15,12.15,0,0,1,4.7-3.18,18.29,18.29,0,0,1,11.87,0,11.84,11.84,0,0,1,4.69,3.2,16.14,16.14,0,0,1,3.54,7.17,47.25,47.25,0,0,1,0,19.53ZM317,238c-6.51-6.89-16.12-8.92-25.32-9-9.19.1-18.81,2.13-25.31,9-6.7,7.11-8.12,17-8.08,26.42s1.38,19.3,8.08,26.41c6.5,6.9,16.12,8.92,25.31,9,9.2-.1,18.81-2.12,25.32-9,6.7-7.11,8.12-17,8.08-26.41S323.65,245.14,317,238Z"/><path class="cls-1" d="M450.63,274.21a16.4,16.4,0,0,1-3.54,7.17,11.9,11.9,0,0,1-4.69,3.18,18.15,18.15,0,0,1-11.87,0,12.37,12.37,0,0,1-4.7-3.18,16.44,16.44,0,0,1-3.53-7.17,47.25,47.25,0,0,1,0-19.53,16.37,16.37,0,0,1,3.56-7.15,12.15,12.15,0,0,1,4.7-3.18,18.29,18.29,0,0,1,11.87,0,11.9,11.9,0,0,1,4.69,3.18,16.3,16.3,0,0,1,3.54,7.17,47.25,47.25,0,0,1,0,19.53ZM461.78,238c-6.51-6.89-16.12-8.92-25.32-9-9.19.1-18.81,2.13-25.31,9-6.7,7.11-8.12,17-8.09,26.42s1.39,19.3,8.09,26.41c6.5,6.9,16.12,8.92,25.31,9,9.2-.1,18.81-2.12,25.32-9,6.7-7.11,8.12-17,8.08-26.41s-1.38-19.31-8.08-26.42Z"/><path class="cls-1" d="M398,231.88a2.9,2.9,0,0,0-2.18-1.9,11,11,0,0,0-2.44-.33,41.81,41.81,0,0,0-10.12.3,6.36,6.36,0,0,0-2.07.67,3.88,3.88,0,0,0-1.66,2.5l-14.68,48.19-14.67-48.19a3.79,3.79,0,0,0-1.67-2.5,6.23,6.23,0,0,0-2.06-.67,41.8,41.8,0,0,0-10.12-.3,11.2,11.2,0,0,0-2.44.33,2.92,2.92,0,0,0-2.18,1.9,6.65,6.65,0,0,0,.39,3.71l19.57,60.1a5,5,0,0,0,1.26,2.34,4.88,4.88,0,0,0,2.34.9c6.47,1.18,13.6,1.42,20-.19a3.46,3.46,0,0,0,1.48-.71,4.84,4.84,0,0,0,1.26-2.34l19.57-60.1A6.47,6.47,0,0,0,398,231.88Z"/><path class="cls-2" d="M230,88.91a67.32,67.32,0,0,1,22-21c7.63-4.57,17.59-9.15,26.64-9.37a6.61,6.61,0,0,1,6.88,4.78,66.8,66.8,0,0,1,4.89,23.73,77.81,77.81,0,0,1-6.14,31.57,1.82,1.82,0,0,1-1.71,1.24A66.35,66.35,0,0,0,253,127.2a85.11,85.11,0,0,0-22.92,17.28c-.87.91-1.71,1.84-2.54,2.79a5.19,5.19,0,0,1-2.44,1.89c-1.63.4-2.29-1.15-2.66-2.4a72.6,72.6,0,0,1-1.21-37.41,65.44,65.44,0,0,1,8.66-20.43"/><path class="cls-3" d="M283,192.23a67.39,67.39,0,0,1-29.27-8.43c-7.8-4.29-16.77-10.58-21.53-18.28a6.63,6.63,0,0,1,.65-8.35,67,67,0,0,1,18-16.19,77.8,77.8,0,0,1,30.36-10.63,1.84,1.84,0,0,1,1.93.85,66,66,0,0,0,19.38,20.55,83.86,83.86,0,0,0,24.66,11.35c2.42.68,4.88,1.26,7.35,1.73a5.09,5.09,0,0,1,2.86,1.15c1.18,1.21.17,2.56-.73,3.51A72.37,72.37,0,0,1,305,189.41a65.54,65.54,0,0,1-22,2.82"/><path class="cls-4" d="M345.22,94.2a67.09,67.09,0,0,1,7.57,29.49c.27,8.9-.6,19.82-4.83,27.83a6.64,6.64,0,0,1-7.53,3.67,67.19,67.19,0,0,1-23.09-7.32,77.89,77.89,0,0,1-24.56-20.78,1.81,1.81,0,0,1-.24-2.1,66.1,66.1,0,0,0,7.91-27.61,84.17,84.17,0,0,0-3.31-28.54c-.51-1.74-1.07-3.48-1.69-5.19a5.34,5.34,0,0,1-.45-3c.44-1.63,2.12-1.44,3.39-1.15a72.22,72.22,0,0,1,33.24,17.21A65.13,65.13,0,0,1,345.22,94.2"/></svg>