<svg width="48" height="48" viewBox="0 0 48 48" fill="none" xmlns="http://www.w3.org/2000/svg">
<path d="M3.363 39.509L21.356 5.60003C21.6083 5.11697 21.9882 4.71227 22.4543 4.42987C22.9204 4.14747 23.455 3.99817 24 3.99817C24.545 3.99817 25.0796 4.14747 25.5457 4.42987C26.0118 4.71227 26.3917 5.11697 26.644 5.60003L44.637 39.509C44.8856 39.9703 45.011 40.4878 45.0011 41.0117C44.9913 41.5356 44.8464 42.0481 44.5806 42.4996C44.3147 42.9511 43.9369 43.3265 43.4836 43.5893C43.0304 43.8521 42.5169 43.9936 41.993 44H6.007C5.48306 43.9936 4.96964 43.8521 4.51636 43.5893C4.06308 43.3265 3.68526 42.9511 3.41943 42.4996C3.1536 42.0481 3.00874 41.5356 2.99885 41.0117C2.98897 40.4878 3.11439 39.9703 3.363 39.509Z" stroke="#F38E00" stroke-width="2" stroke-miterlimit="10" stroke-linecap="square"/>
<path d="M24 16V30" stroke="#F38E00" stroke-width="2" stroke-miterlimit="10" stroke-linecap="square"/>
<path d="M24 37C24.5523 37 25 36.5523 25 36C25 35.4477 24.5523 35 24 35C23.4477 35 23 35.4477 23 36C23 36.5523 23.4477 37 24 37Z" stroke="#F38E00" stroke-width="2" stroke-miterlimit="10" stroke-linecap="square"/>
</svg>
