<svg width="16" height="16" viewBox="0 0 16 16" fill="none" xmlns="http://www.w3.org/2000/svg">
<rect opacity="0.5" x="3" y="5" width="3" height="3" fill="#D6A156"/>
<rect x="4" y="5" width="1" height="3" fill="#D6A156"/>
<path d="M1 10C1 8.34315 2.34315 7 4 7H5C6.65685 7 8 8.34315 8 10V10H1V10Z" fill="#3785B1"/>
<path d="M3.47434 7.07697C3.24098 7.77705 3.76206 8.5 4.5 8.5V8.5V8.5C5.23794 8.5 5.75902 7.77705 5.52566 7.07697L5.5 7H3.5L3.47434 7.07697Z" fill="#CDE4F1"/>
<circle cx="4.5" cy="3.5" r="2.5" fill="#ECB968"/>
<mask id="path-6-inside-1_38_16" fill="white">
<path fill-rule="evenodd" clip-rule="evenodd" d="M6.95008 3.99958C6.98282 3.83815 7 3.67108 7 3.5C7 2.11929 5.88071 1 4.5 1C3.11929 1 2 2.11929 2 3.5C2 3.67108 2.01719 3.83815 2.04992 3.99958C3.0784 3.98195 3.2851 3.41724 3.47717 2.89249C3.64617 2.43078 3.80385 2 4.5 2C5.19615 2 5.35383 2.43078 5.52283 2.89249C5.7149 3.41724 5.9216 3.98195 6.95008 3.99958Z"/>
</mask>
<path fill-rule="evenodd" clip-rule="evenodd" d="M6.95008 3.99958C6.98282 3.83815 7 3.67108 7 3.5C7 2.11929 5.88071 1 4.5 1C3.11929 1 2 2.11929 2 3.5C2 3.67108 2.01719 3.83815 2.04992 3.99958C3.0784 3.98195 3.2851 3.41724 3.47717 2.89249C3.64617 2.43078 3.80385 2 4.5 2C5.19615 2 5.35383 2.43078 5.52283 2.89249C5.7149 3.41724 5.9216 3.98195 6.95008 3.99958Z" fill="#DB9F48"/>
<path d="M6.95008 3.99958L6.93294 4.99943L7.76476 5.01369L7.93012 4.19834L6.95008 3.99958ZM2.04992 3.99958L1.06988 4.19834L1.23523 5.01369L2.06706 4.99943L2.04992 3.99958ZM3.47717 2.89249L4.41624 3.23621L4.41624 3.23621L3.47717 2.89249ZM5.52283 2.89249L6.4619 2.54877L6.4619 2.54877L5.52283 2.89249ZM6 3.5C6 3.60396 5.98957 3.70444 5.97003 3.80081L7.93012 4.19834C7.97606 3.97186 8 3.73821 8 3.5H6ZM4.5 2C5.32843 2 6 2.67157 6 3.5H8C8 1.567 6.433 0 4.5 0V2ZM3 3.5C3 2.67157 3.67157 2 4.5 2V0C2.567 0 1 1.567 1 3.5H3ZM3.02997 3.80081C3.01043 3.70444 3 3.60395 3 3.5H1C1 3.73821 1.02394 3.97186 1.06988 4.19834L3.02997 3.80081ZM2.06706 4.99943C2.77926 4.98722 3.36304 4.77443 3.79236 4.33517C4.17118 3.94757 4.33297 3.46373 4.41624 3.23621L2.5381 2.54877C2.48702 2.68832 2.45551 2.77169 2.4204 2.84309C2.38867 2.90761 2.36851 2.93063 2.36205 2.93724C2.3603 2.93903 2.3543 2.94685 2.32383 2.95846C2.28727 2.97238 2.20035 2.99685 2.03278 2.99972L2.06706 4.99943ZM4.41624 3.23621C4.46152 3.11251 4.48823 3.04154 4.51565 2.98311C4.54094 2.92922 4.54977 2.92463 4.53712 2.93881C4.51823 2.95998 4.48646 2.98457 4.4518 2.99888C4.42267 3.0109 4.42886 3 4.5 3V1C3.91176 1 3.40992 1.19799 3.04469 1.6074C2.74614 1.94205 2.6066 2.36164 2.5381 2.54877L4.41624 3.23621ZM4.5 3C4.57114 3 4.57733 3.0109 4.5482 2.99888C4.51354 2.98457 4.48177 2.95998 4.46288 2.93881C4.45023 2.92463 4.45906 2.92922 4.48435 2.98311C4.51177 3.04154 4.53848 3.11251 4.58376 3.23621L6.4619 2.54877C6.3934 2.36164 6.25386 1.94205 5.95531 1.6074C5.59008 1.19799 5.08824 1 4.5 1V3ZM4.58376 3.23621C4.66703 3.46373 4.82882 3.94757 5.20765 4.33517C5.63696 4.77443 6.22074 4.98722 6.93294 4.99943L6.96722 2.99972C6.79965 2.99685 6.71273 2.97238 6.67617 2.95846C6.6457 2.94685 6.6397 2.93903 6.63795 2.93724C6.63149 2.93062 6.61133 2.90761 6.5796 2.84308C6.54449 2.77169 6.51298 2.68832 6.4619 2.54877L4.58376 3.23621Z" fill="black" fill-opacity="0.5" mask="url(#path-6-inside-1_38_16)"/>
<rect opacity="0.5" x="10" y="10" width="3" height="3" fill="#D6A156"/>
<rect x="11" y="10" width="1" height="3" fill="#D6A156"/>
<path d="M8 15C8 13.3431 9.34315 12 11 12H12C13.6569 12 15 13.3431 15 15V15H8V15Z" fill="#3785B1"/>
<path d="M10.4743 12.077C10.241 12.777 10.7621 13.5 11.5 13.5V13.5V13.5C12.2379 13.5 12.759 12.777 12.5257 12.077L12.5 12H10.5L10.4743 12.077Z" fill="#CDE4F1"/>
<rect x="11" y="12" width="1" height="2" fill="white"/>
<circle cx="11.5" cy="8.5" r="2.5" fill="#ECB968"/>
<mask id="path-14-inside-2_38_16" fill="white">
<path fill-rule="evenodd" clip-rule="evenodd" d="M13.9501 8.99958C13.9828 8.83815 14 8.67108 14 8.5C14 7.11929 12.8807 6 11.5 6C10.1193 6 9 7.11929 9 8.5C9 8.67108 9.01719 8.83815 9.04992 8.99958C10.0784 8.98195 10.2851 8.41724 10.4772 7.89249C10.6462 7.43078 10.8038 7 11.5 7C12.1962 7 12.3538 7.43078 12.5228 7.89249C12.7149 8.41724 12.9216 8.98195 13.9501 8.99958Z"/>
</mask>
<path fill-rule="evenodd" clip-rule="evenodd" d="M13.9501 8.99958C13.9828 8.83815 14 8.67108 14 8.5C14 7.11929 12.8807 6 11.5 6C10.1193 6 9 7.11929 9 8.5C9 8.67108 9.01719 8.83815 9.04992 8.99958C10.0784 8.98195 10.2851 8.41724 10.4772 7.89249C10.6462 7.43078 10.8038 7 11.5 7C12.1962 7 12.3538 7.43078 12.5228 7.89249C12.7149 8.41724 12.9216 8.98195 13.9501 8.99958Z" fill="#DB9F48"/>
<path d="M13.9501 8.99958L13.9329 9.99943L14.7648 10.0137L14.9301 9.19834L13.9501 8.99958ZM9.04992 8.99958L8.06988 9.19834L8.23523 10.0137L9.06706 9.99943L9.04992 8.99958ZM10.4772 7.89249L11.4162 8.23621L11.4162 8.23621L10.4772 7.89249ZM12.5228 7.89249L13.4619 7.54877L13.4619 7.54877L12.5228 7.89249ZM13 8.5C13 8.60396 12.9896 8.70444 12.97 8.80081L14.9301 9.19834C14.9761 8.97186 15 8.73821 15 8.5H13ZM11.5 7C12.3284 7 13 7.67157 13 8.5H15C15 6.567 13.433 5 11.5 5V7ZM10 8.5C10 7.67157 10.6716 7 11.5 7V5C9.567 5 8 6.567 8 8.5H10ZM10.03 8.80081C10.0104 8.70444 10 8.60395 10 8.5H8C8 8.73821 8.02394 8.97186 8.06988 9.19834L10.03 8.80081ZM9.06706 9.99943C9.77926 9.98722 10.363 9.77443 10.7924 9.33517C11.1712 8.94757 11.333 8.46373 11.4162 8.23621L9.5381 7.54877C9.48702 7.68832 9.45551 7.77169 9.4204 7.84309C9.38867 7.90761 9.36851 7.93063 9.36205 7.93724C9.3603 7.93903 9.3543 7.94685 9.32383 7.95846C9.28727 7.97238 9.20035 7.99685 9.03278 7.99972L9.06706 9.99943ZM11.4162 8.23621C11.4615 8.11251 11.4882 8.04154 11.5157 7.98311C11.5409 7.92922 11.5498 7.92463 11.5371 7.93881C11.5182 7.95998 11.4865 7.98457 11.4518 7.99888C11.4227 8.0109 11.4289 8 11.5 8V6C10.9118 6 10.4099 6.19799 10.0447 6.6074C9.74614 6.94205 9.6066 7.36164 9.5381 7.54877L11.4162 8.23621ZM11.5 8C11.5711 8 11.5773 8.0109 11.5482 7.99888C11.5135 7.98457 11.4818 7.95998 11.4629 7.93881C11.4502 7.92463 11.4591 7.92922 11.4843 7.98311C11.5118 8.04154 11.5385 8.11251 11.5838 8.23621L13.4619 7.54877C13.3934 7.36164 13.2539 6.94205 12.9553 6.6074C12.5901 6.19799 12.0882 6 11.5 6V8ZM11.5838 8.23621C11.667 8.46373 11.8288 8.94757 12.2076 9.33517C12.637 9.77443 13.2207 9.98722 13.9329 9.99943L13.9672 7.99972C13.7996 7.99685 13.7127 7.97238 13.6762 7.95846C13.6457 7.94685 13.6397 7.93903 13.638 7.93724C13.6315 7.93062 13.6113 7.90761 13.5796 7.84308C13.5445 7.77169 13.513 7.68832 13.4619 7.54877L11.5838 8.23621Z" fill="black" fill-opacity="0.5" mask="url(#path-14-inside-2_38_16)"/>
<rect x="4" y="7" width="1" height="2" fill="white"/>
</svg>
