<svg width="16" height="16" viewBox="0 0 16 16" fill="none" xmlns="http://www.w3.org/2000/svg">
<path fill-rule="evenodd" clip-rule="evenodd" d="M6.01902 8.999H9V8H6.02256L6.04383 2H9V1H6C5.44772 1 5 1.44772 5 2V8H3.55576C3.24882 8 3 8.19306 3 8.5C3 8.80694 3.24882 8.999 3.55576 8.999H5V11H3.55576C3.24882 11 3 11.1931 3 11.5C3 11.8069 3.24882 12 3.55576 12H5V14.3651C5 14.7158 5.14937 15 5.5 15C5.85063 15 6 14.7158 6 14.3651L6.00838 12H8.44424C8.75118 12 9 11.8069 9 11.5C9 11.1931 8.75118 11 8.44424 11H6.01193L6.01902 8.999Z" fill="#4D4D4D"/>
<path fill-rule="evenodd" clip-rule="evenodd" d="M10.9775 2.4987C10.4933 2.12208 9.81207 2 9 2V1C9.90221 1 10.9353 1.12792 11.7368 1.7513C12.5498 2.38365 13 3.42545 13 5C13 6.62179 12.3744 7.65321 11.4998 8.26543C10.6501 8.86022 9.6495 9 9 9V8C9.49336 8 10.207 7.88978 10.7859 7.48457C11.3399 7.09679 12 6.37821 12 5C12 3.57455 11.4502 2.86635 10.9775 2.4987Z" fill="#4D4D4D"/>
</svg>
