<svg width="16" height="16" viewBox="0 0 16 16" fill="none" xmlns="http://www.w3.org/2000/svg">
<path fill-rule="evenodd" clip-rule="evenodd" d="M11 10C10.4477 10 10 10.4477 10 11C10 11.5523 10.4477 12 11 12C11.5523 12 12 11.5523 12 11C12 10.4477 11.5523 10 11 10ZM9 11C9 9.89543 9.89543 9 11 9C12.1046 9 13 9.89543 13 11C13 12.1046 12.1046 13 11 13C9.89543 13 9 12.1046 9 11Z" fill="#4D4D4D"/>
<path fill-rule="evenodd" clip-rule="evenodd" d="M3.5 2C3.10218 2 2.72064 2.15804 2.43934 2.43934C2.15804 2.72064 2 3.10218 2 3.5C2 3.89782 2.15804 4.27936 2.43934 4.56066C2.72064 4.84196 3.10218 5 3.5 5H14.5C14.7761 5 15 5.22386 15 5.5V14.5C15 14.7761 14.7761 15 14.5 15H3.5C2.83696 15 2.20107 14.7366 1.73223 14.2678C1.26339 13.7989 1 13.163 1 12.5V3.5C1 2.83696 1.26339 2.20107 1.73223 1.73223C2.20107 1.26339 2.83696 1 3.5 1H10.5C10.7761 1 11 1.22386 11 1.5V3.5C11 3.77614 10.7761 4 10.5 4C10.2239 4 10 3.77614 10 3.5V2H3.5ZM2 5.50001V12.5C2 12.8978 2.15804 13.2794 2.43934 13.5607C2.72064 13.842 3.10218 14 3.5 14H14V6H3.5C2.95596 6 2.4302 5.82267 2 5.50001Z" fill="#4D4D4D"/>
</svg>
