<?xml version="1.0" encoding="UTF-8"?><svg id="Layer_2" xmlns="http://www.w3.org/2000/svg" viewBox="0 0 89.13 68.53"><defs><style>.cls-1{fill:#b85757;stroke-width:0px;}</style></defs><g id="_1"><path class="cls-1" d="M30.29,59.29c-4.55,0-9.06-.55-11.88-1.65-6.94-2.7-11.76-7.68-14.31-14.8-2.73-3.42-5.26-9.01-3.52-13.64l.14-.36.38.04c1.04.11,3.15.75,4.21,1.08.09-2.07.49-7.13,2.14-8.08.72-.41,1.23-.3,1.54-.12.92.51,1.02,2.04,1.03,2.34,0,0-1.2-1.29-1.52-1.47-.15-.08-.39.02-.56.12-1.02.59-1.59,4.98-1.66,7.91l-.02.67-.64-.21s-2.78-.92-4.25-1.18c-1.33,4.19,1.04,9.24,3.55,12.35l.08.15c2.48,6.97,6.98,11.65,13.76,14.28,7.37,2.87,22.65,1.62,25.59-1.32l.21-.21.29.09s4.3,1.3,19.15,2.46c9.03.71,14.89-1.25,16.92-5.68,1.82-3.95.11-8.8-1.27-10.18l-.4-.4.44-.35c.09-.07,9.1-7.32,8.37-19.61-.71-12.05-5.18-16.2-7.77-17.6-2.08-1.12-3.83-.97-4.45-.62-1.7.98-3.51,3.16.36,10.71,3.79,7.39,2.26,12.94,2.2,13.17l-.34,1.19-.58-1.1c-.03-.06-3.42-6.34-11.04-9.16-10.38-3.85-14.36,1.47-15.59,3.93l-.11.22-.24.05c-8.8,1.66-24.53-.81-25.2-.91l-.43-.07v-.44c.01-.05.09-5.15-2.22-7.74-2.07.63-4.69,2.68-5.86,5.86l-.1.26-.27.06c-.73.16-3.29,1.58-4.84,2.5l-.51-.86c.38-.23,3.52-2.08,4.87-2.54,1.39-3.55,4.37-5.73,6.74-6.33l.27-.07.2.2c2.4,2.4,2.69,6.82,2.72,8.24,2.57.38,16.31,2.29,24.19.9,1.47-2.79,5.88-8.21,16.72-4.2,6.04,2.24,9.48,6.45,10.86,8.48.22-1.99.24-6.17-2.34-11.19-3.2-6.24-3.19-10.18.03-12.03,1-.58,3.12-.63,5.42.6,2.78,1.5,7.56,5.89,8.3,18.42.67,11.31-6.56,18.51-8.36,20.12,1.5,1.96,3.01,6.8,1.12,10.9-1.55,3.37-5.92,7.19-17.91,6.25-13.07-1.02-17.94-2.12-19.09-2.42-2.33,2.01-8.49,3-14.56,3Z"/><path class="cls-1" d="M11.35,24.39s.13-2.64,0-2.85c-.02-.03-.05-.07-.16-.06-.34.02-1,.47-1.44,1.59l-.93-.36c.5-1.29,1.41-2.16,2.3-2.23.47-.04.88.18,1.11.57.42.74.11,1.93-.88,3.34Z"/><path class="cls-1" d="M41.86,57.79l-.25-.97c1.44-.37,2.53-1.12,3.13-2.17.52-.91.67-2.04.39-3.03-.66-2.31-6.06-2.07-10.82-1.85-3.23.15-6.28.28-8.45-.21l.22-.97c2.04.46,5.16.32,8.18.19,5.63-.26,10.95-.5,11.82,2.58.36,1.26.18,2.65-.48,3.8-.52.9-1.59,2.09-3.76,2.64Z"/><path class="cls-1" d="M39.99,51.61c1.21,0,2.92-1.05,3.85-1.61.18-.11.34-.21.47-.28l.5.87c-.13.07-.28.17-.45.27-1.08.66-4.37.76-4.37.76Z"/><path class="cls-1" d="M40.9,54.02c1.71-.15,3.85-1.98,4.46-2.54l.67.74c-.86.78-5.14,1.8-5.14,1.8Z"/><path class="cls-1" d="M69.74,53.69c-3.65,0-6.82-.91-8.47-2.47-.92-.87-1.39-1.92-1.39-3.12,0-1.66.57-3.06,1.71-4.17,2.62-2.55,7.21-2.64,8.56-2.6,8.09.2,8.97,4.53,8.97,6.39s-2.45,5.63-8.12,5.95c-.42.02-.84.04-1.25.04ZM69.73,42.31c-2.52,0-5.68.6-7.45,2.33-.93.91-1.41,2.07-1.41,3.45,0,.91.36,1.72,1.08,2.4,1.64,1.55,5.08,2.37,8.98,2.17,5.11-.29,7.18-3.61,7.18-4.95,0-1.94-1.04-5.21-7.99-5.39h0c-.13,0-.26,0-.39,0Z"/><path class="cls-1" d="M54.73,37.7c-.29,0-.58-.01-.89-.04l.09-1c2.27.2,3.96-.44,5.02-1.92,1.94-2.7,1.27-7.37.69-8.69l.92-.4c.66,1.51,1.4,6.61-.79,9.67-1.13,1.58-2.82,2.37-5.03,2.37Z"/><path class="cls-1" d="M57.73,38.39c-1.53,0-3.22-.34-5.01-1.23l-.23-.11c-5.05-2.5-10.77-5.33-11.51-8.88-.26-1.22.1-2.43,1.06-3.58,1.15-1.38,2.96-1.94,5.25-1.62,3.69.51,7.66,3.16,8.49,5.01l-.91.41c-.63-1.41-4.22-3.94-7.71-4.42-1.35-.19-3.19-.12-4.35,1.27-.77.92-1.05,1.82-.85,2.73.65,3.07,6.38,5.91,10.98,8.19l.23.11c6.2,3.07,12.22-1.99,13.51-3.28l-.63,1.81c-.74.74-3.89,3.6-8.31,3.6Z"/><path class="cls-1" d="M70.91,53.65c-3.33-.33-7.35-2-7.71-5.65-.16-1.63.23-3.01,1.17-4.1,1.29-1.5,3.49-2.36,6.56-2.54l.06,1c-2.75.16-4.78.92-5.86,2.19-.75.88-1.06,2-.93,3.35.3,3.05,3.85,4.47,6.81,4.76l-.1,1Z"/><polygon class="cls-1" points="60.8 45.99 60.92 44.99 65.31 45.53 60.8 45.99"/><polygon class="cls-1" points="60.7 50.16 60.56 49.17 64.74 48.58 60.7 50.16"/><ellipse class="cls-1" cx="70.16" cy="44.46" rx="1.05" ry="1.4" transform="translate(-11.63 29.99) rotate(-22.33)"/><ellipse class="cls-1" cx="67.75" cy="46.2" rx="1.05" ry="1.4" transform="translate(-3.56 86.69) rotate(-63.88)"/><ellipse class="cls-1" cx="67.16" cy="48.98" rx="1.4" ry="1.05" transform="translate(-11.83 23.1) rotate(-17.96)"/><ellipse class="cls-1" cx="69.81" cy="50.8" rx="1.4" ry="1.05" transform="translate(-12.26 24) rotate(-17.96)"/><circle class="cls-1" cx="72.49" cy="47.76" r="1.78"/><ellipse class="cls-1" cx="46.93" cy="26.28" rx="1.05" ry="1.4" transform="translate(-4.84 40.89) rotate(-45)"/><ellipse class="cls-1" cx="43.53" cy="27.52" rx="1.05" ry="1.4" transform="translate(-.34 54.49) rotate(-63.88)"/><ellipse class="cls-1" cx="43.94" cy="30.58" rx="1.05" ry="1.4" transform="translate(-3.39 55.59) rotate(-62.69)"/><circle class="cls-1" cx="47.94" cy="30.63" r="1.78"/><path class="cls-1" d="M20.64,36.05s-2.94,1.39-2.72,4.6c1.61-.5,3.1-1.39,3.1-1.39l-.39-3.21Z"/><path class="cls-1" d="M23.51,45.27l-.43-.26c.37-.6.71-1.92.78-2.24-.63-1.71-3.61-3.61-3.64-3.63l.27-.42c.13.08,3.24,2.06,3.87,3.96l.02.07-.02.07c-.02.07-.4,1.71-.86,2.46Z"/><rect class="cls-1" x="23.99" y="42.03" width="1.72" height=".5" transform="translate(-19.07 20.46) rotate(-33.13)"/><path class="cls-1" d="M22.24,37.66c-.34-2.88,1.88-11.33,4.81-13.48l.29.4c-2.82,2.06-4.94,10.22-4.61,13.02l-.5.06Z"/><path class="cls-1" d="M23.87,38.48l-.49-.1c.02-.11,2.49-10.84,6.91-14.39l.31.39c-4.28,3.44-6.71,14-6.73,14.1Z"/><path class="cls-1" d="M24.97,38.57l-.47-.17c.56-1.58,4.91-8.33,7.05-10.19l.33.38c-2.05,1.78-6.38,8.48-6.91,9.98Z"/><path class="cls-1" d="M8.56,52.56l-.45-.21c2.35-4.93,9.08-9.62,11.29-10.27l.14.48c-2.09.62-8.73,5.28-10.99,10.01Z"/><path class="cls-1" d="M10.73,54.08l-.48-.15c.96-2.99,9.83-11.19,11.12-11.69l.18.47c-1.09.42-9.9,8.49-10.82,11.37Z"/><polygon class="cls-1" points="14.97 53.7 14.55 53.42 20.76 44.33 21.17 44.61 14.97 53.7"/><path class="cls-1" d="M13.13,39.82c-.7,0-1.45-.36-2.18-1.05-.9-.86-1.65-2.13-2.13-3.59-1.02-3.12-.45-6,1.29-6.57,1.74-.57,3.9,1.43,4.91,4.55,1.02,3.12.45,6-1.29,6.57-.2.06-.4.1-.6.1ZM10.71,29.01c-.15,0-.3.02-.44.07-1.42.46-1.87,3.18-.97,5.94.45,1.38,1.16,2.59,2,3.39.8.76,1.61,1.06,2.28.84,1.42-.46,1.87-3.18.97-5.94-.81-2.48-2.48-4.3-3.84-4.3Z"/><ellipse class="cls-1" cx="12.5" cy="35.36" rx="1.36" ry="2.48" transform="translate(-10.34 5.61) rotate(-18.05)"/><path class="cls-1" d="M18.25,33.59c-.41,0-.86-.08-1.34-.25-1.13-.39-2.31-1.21-3.32-2.3-2.15-2.33-2.81-5.09-1.51-6.29.64-.59,1.65-.69,2.83-.28,1.13.39,2.31,1.21,3.32,2.3h0c1.01,1.09,1.72,2.33,2.02,3.49.31,1.21.13,2.21-.51,2.8-.38.35-.89.53-1.49.53ZM13.58,24.73c-.47,0-.87.13-1.16.4-1.06.98-.35,3.53,1.54,5.58.95,1.03,2.06,1.8,3.11,2.16,1,.35,1.83.28,2.33-.18.5-.46.63-1.28.36-2.31-.28-1.08-.96-2.25-1.91-3.28h0c-.95-1.03-2.06-1.8-3.11-2.16-.43-.15-.82-.22-1.17-.22Z"/><ellipse class="cls-1" cx="16.65" cy="29.71" rx="1.36" ry="2.48" transform="translate(-16.13 20.48) rotate(-45)"/><path class="cls-1" d="M5.98,34.01c-.81.05-1.8.28-2.48,1.01.44.18,1.11.41,1.7.6-.48.35-.92.81-1.18,1.42.36.01.84.01,1.32,0-.2.88-.41,1.74-.6,2.39-3.33-2.54-2.87-7.98-2.87-7.98l4.33,1.45s-.08.44-.22,1.11Z"/><path class="cls-1" d="M23.45,20.97c-.56-.07-1.14-.16-1.7-.26.07-.56.13-.96.2-1.44-.42.17-.84.45-1.23.78.09-.68.16-1.11.23-1.65-.77.31-1.56,1.02-2.17,1.67-.63-.15-1.03-.26-1.03-.26,0,0,1.5-4.12,4.16-5.2.45.75,1.83,3.04,1.54,6.36Z"/><path class="cls-1" d="M14.36,61c-.19,0-.37-.01-.52-.03-2.39-.29-4.6-2.49-5.78-5.74-2-5.55,2.04-12.17,4.63-15.63.71-.94,2.11-3.2,3.74-5.82,2.9-4.65,6.51-10.44,8.77-13.03,2.45-2.8,4.47-2.63,5.45-2.28,1.56.56,2.31,2.07,2.34,3.24l-2,.06c-.02-.52-.4-1.2-1.02-1.42-.85-.3-2.05.32-3.27,1.72-2.16,2.47-5.72,8.18-8.58,12.77-1.65,2.65-3.08,4.95-3.84,5.96-1.89,2.52-6.1,8.9-4.35,13.75.9,2.5,2.53,4.24,4.14,4.43,1.61.2,2.89-1.18,3.68-2.37l1.67,1.11c-1.82,2.74-3.8,3.28-5.06,3.28Z"/><path class="cls-1" d="M31.39,49.3l-2-.12c1.54-24.42,10.01-32.04,11.69-33.32,1.2-.91,1.8-.92,2.15-.85.34.07.82.28,1.18.86.89,1.45.38,4.32-.2,6.47l-1.93-.52c.76-2.82.64-4.23.5-4.73-2.12,1.14-9.95,9.25-11.39,32.21Z"/><path class="cls-1" d="M38.81,31.53l-1.72-.64c.56-6.48,4.96-8.66,7.48-10.09.55-.31,1.11-.63,1.28-.8.81-.85,1.94-1.18,3.02-.87,1.06.3,1.87,1.15,2.11,2.24l-1.95.43c-.08-.36-.35-.64-.7-.74-.21-.06-.63-.1-1.04.33-.37.39-.94.71-1.74,1.16-2.35,1.33-6.27,3.55-6.75,8.99Z"/><path class="cls-1" d="M41.67,42.53c-2.78,0-6.69-1.04-11.84-4.69l.58-.82c7.93,5.62,12.63,4.78,14.72,3.78,1.97-.94,2.93-2.61,3-3.85.05-.84-.3-1.72-.95-2.36-.64-.64-1.87-1.36-4.12-1.21-4.46.3-6.87-2.75-7.36-3.84l.91-.41c.42.93,2.5,3.52,6.38,3.25,2.62-.18,4.1.72,4.89,1.5.86.85,1.31,2,1.24,3.13-.09,1.42-1.08,3.5-3.57,4.69-.88.42-2.16.82-3.89.82Z"/><path class="cls-1" d="M46.74,36.92c-.82,0-1.67-.06-2.05-.25l.45-.89c.38.19,2.42.18,3.19.06l.15.99c-.31.05-1.01.1-1.74.1Z"/><path class="cls-1" d="M46.15,38.53c-.52,0-.96-.03-1.26-.12l.27-.96c.5.14,1.92.06,2.68.01.3-.02.55-.03.68-.03v1c-.12,0-.34.01-.62.03-.62.04-1.22.07-1.75.07Z"/><path class="cls-1" d="M39.45,49.52c-3.11-13.11,3.1-25.99,5.13-28.47l1.55,1.27c-1.82,2.22-7.62,14.54-4.73,26.74l-1.95.46Z"/><path class="cls-1" d="M37.47,58.61c-3.87-5.02-2.52-15.85-1.55-17.89l1.81.85c-.8,1.69-1.95,11.56,1.33,15.81l-1.58,1.22Z"/><path class="cls-1" d="M46.14,51.82l-1.79-1.45c0-1.94.21-4.83.49-7.58.12-1.16.16-1.3.18-1.65l2.05-.77c-.02.4-.11,1.33-.24,2.62-.26,2.55-.69,7-.69,8.83Z"/><path class="cls-1" d="M54.53,26.63l-1.84-.78c.69-1.63,3.4-3.72,7.14-6.5,1.27-.94,2.47-1.83,3.15-2.44.63-.57.75-.93.75-1.01-.02-.02-.26-.14-.66-.13-.57.02-1.35.31-1.86,1.06l-1.66-1.12c1.07-1.59,2.84-2.1,4.12-1.9,1,.15,1.73.72,1.97,1.53.2.68.13,1.75-1.33,3.06-.75.67-1.92,1.54-3.29,2.56-2.37,1.76-5.96,4.42-6.49,5.68Z"/><path class="cls-1" d="M56.66,53.12l-1.99-.23c.05-.4,1.17-9.93,4.08-13.69,2.48-3.19,3.53-6.42,4.65-9.83.55-1.67,1.12-3.41,1.87-5.19,1.43-3.37,4.19-5.44,6.29-6.24,1.04-.4,1.86-.47,2.42-.2.77.36,1.4,1.11,1.67,2,.23.75.33,1.95-.51,3.4l-1.73-1.01c.38-.65.49-1.27.33-1.8-.12-.39-.36-.64-.56-.75,0,0-.01,0-.02,0-.84,0-4.45,1.59-6.06,5.39-.72,1.71-1.28,3.4-1.81,5.04-1.17,3.58-2.28,6.96-4.97,10.43-2.58,3.32-3.67,12.6-3.68,12.69Z"/><path class="cls-1" d="M64.76,42.5c-1.47-3.87-.01-6.48,1.68-9.49,1.39-2.49,2.97-5.3,3.36-9.63.43-4.7-.4-6.19-.89-6.32-.38-.1-1.09.42-1.36.99l-1.82-.84c.61-1.32,2.19-2.49,3.69-2.09,2.03.54,2.83,3.38,2.37,8.43-.43,4.75-2.19,7.9-3.61,10.43-1.56,2.79-2.69,4.8-1.55,7.81l-1.87.71Z"/><path class="cls-1" d="M73.78,63.65c-5.05,0-7.46-2.55-8.6-4.94-2.83-5.94-5.64-8.1-9.11-7.01l-.6-1.91c5.98-1.88,9.43,3.7,11.51,8.06,1.58,3.32,5,4.47,10.15,3.44,1.97-.39,3.23-1.59,3.22-1.97h0s-.54-.75-4.04-.65c-2.2.05-3.57-.38-4.32-1.4-1.11-1.51-.39-3.63.44-6.1.72-2.11,1.53-4.51,1.2-6.66-.33-2.19-1.14-3.55-2.22-3.74-.88-.15-1.93.45-2.46,1.41l-2.04-.37c.93-1.71,3.14-3.32,4.85-3.01,1.16.21,3.21,1.18,3.84,5.41.4,2.63-.5,5.27-1.29,7.59-.6,1.77-1.22,3.6-.72,4.27.31.42,1.26.63,2.66.59,3.85-.11,5.89.71,6.09,2.43.22,1.93-2.33,3.66-4.81,4.15-1.39.28-2.64.4-3.75.4Z"/><path class="cls-1" d="M54.94,52.45h-2c0-4.38-2.5-14.78-3.35-17.1l2.29.58c.91,2.48,3.06,11.85,3.06,16.52Z"/><path class="cls-1" d="M26.86,67.58c-1.15,0-2.36-.05-3.66-.16-2.31-.2-3.74-.99-4.26-2.36-.9-2.37.92-4.91,3.01-7.11l1.94.8c-2.26,2.38-3.47,4.58-3.09,5.61.29.77,1.73,1.01,2.56,1.08,7.75.67,12.45-.93,16.6-2.35,3.31-1.13,6.17-2.1,9.77-1.64l-.26,1.98c-3.13-.41-5.66.46-8.87,1.55-3.47,1.18-7.65,2.61-13.76,2.61Z"/><path class="cls-1" d="M27.23,65c-1.22,0-3.23-.2-3.82-1.73-.88-2.32,1.39-3.98,2.49-4.88l2.52.11c-2.01,1.64-3.34,3.53-3.14,4.06.05.13.62.5,2.52.43,3.45-.14,5.25-1.97,6.98-3.74,1.44-1.47,5.49-1.31,5.49-1.31-1.62.22-2.75,1.38-4.07,2.71-1.82,1.85-4.09,4.16-8.33,4.33-.17,0-.39.02-.66.02Z"/><ellipse class="cls-1" cx="54.61" cy="59.27" rx="9.14" ry="9.26"/><path class="cls-1" d="M73.7.44c1.75.64,3.63,2.38,3.74,4.32-1.41-1.37-2.79-2.54-3.74-4.32h0Z"/><path class="cls-1" d="M72.62,2.17c1.8.47,3.83,2.03,4.12,3.96-1.53-1.23-3.01-2.27-4.12-3.96h0Z"/><path class="cls-1" d="M76.33,0c1.59.97,3.08,3.05,2.81,4.98-1.11-1.62-2.24-3.04-2.81-4.98h0Z"/></g></svg>