<svg width="16" height="16" viewBox="0 0 16 16" fill="none" xmlns="http://www.w3.org/2000/svg">
<path fill-rule="evenodd" clip-rule="evenodd" d="M2 3.5C2 3.22386 2.22386 3 2.5 3H11.5C11.7761 3 12 3.22386 12 3.5V14.5C12 14.7761 11.7761 15 11.5 15H2.5C2.22386 15 2 14.7761 2 14.5V3.5ZM3 4V14H11V4H3Z" fill="#4D4D4D"/>
<path fill-rule="evenodd" clip-rule="evenodd" d="M4 1.5C4 1.22386 4.22386 1 4.5 1H13.5C13.7761 1 14 1.22386 14 1.5V12.5C14 12.7761 13.7761 13 13.5 13C13.2239 13 13 12.7761 13 12.5V2H4.5C4.22386 2 4 1.77614 4 1.5Z" fill="#4D4D4D"/>
<path fill-rule="evenodd" clip-rule="evenodd" d="M5 6.5C5 6.22386 5.22386 6 5.5 6H8.5C8.77614 6 9 6.22386 9 6.5C9 6.77614 8.77614 7 8.5 7H5.5C5.22386 7 5 6.77614 5 6.5Z" fill="#4D4D4D"/>
<path fill-rule="evenodd" clip-rule="evenodd" d="M5 9.5C5 9.22386 5.22386 9 5.5 9H8.5C8.77614 9 9 9.22386 9 9.5C9 9.77614 8.77614 10 8.5 10H5.5C5.22386 10 5 9.77614 5 9.5Z" fill="#4D4D4D"/>
</svg>
