<svg width="16" height="16" viewBox="0 0 16 16" fill="none" xmlns="http://www.w3.org/2000/svg">
<path fill-rule="evenodd" clip-rule="evenodd" d="M0 14.5C0 14.2239 0.223858 14 0.5 14H15.5C15.7761 14 16 14.2239 16 14.5C16 14.7761 15.7761 15 15.5 15H0.5C0.223858 15 0 14.7761 0 14.5Z" fill="#4D4D4D"/>
<path fill-rule="evenodd" clip-rule="evenodd" d="M6 1.5C6 1.22386 6.22386 1 6.5 1H9.5C9.77614 1 10 1.22386 10 1.5V11.5C10 11.7761 9.77614 12 9.5 12H6.5C6.22386 12 6 11.7761 6 11.5V1.5ZM7 2V11H9V2H7Z" fill="#4D4D4D"/>
<path fill-rule="evenodd" clip-rule="evenodd" d="M15 6.5C15 6.22386 14.7761 6 14.5 6H11.5C11.2239 6 11 6.22386 11 6.5V11.5C11 11.7761 11.2239 12 11.5 12H14.5C14.7761 12 15 11.7761 15 11.5V6.5ZM14 7V11H12V7H14Z" fill="#4D4D4D"/>
<path fill-rule="evenodd" clip-rule="evenodd" d="M5 8.5C5 8.22386 4.77614 8 4.5 8H1.5C1.22386 8 1 8.22386 1 8.5V11.5C1 11.7761 1.22386 12 1.5 12H4.5C4.77614 12 5 11.7761 5 11.5V8.5ZM4 9V11H2V9H4Z" fill="#4D4D4D"/>
</svg>
