<svg width="11" height="12" viewBox="0 0 11 12" fill="none" xmlns="http://www.w3.org/2000/svg">
<path d="M9 11C8.44772 11 8 10.5523 8 10C8 9.44772 8.44772 9 9 9C9.55228 9 10 9.44772 10 10C10 10.5523 9.55228 11 9 11Z" fill="#7E7E7E"/>
<path d="M5 11C4.44772 11 4 10.5523 4 10C4 9.44771 4.44772 9 5 9C5.55228 9 6 9.44772 6 10C6 10.5523 5.55228 11 5 11Z" fill="#7E7E7E"/>
<path d="M1 11C0.447715 11 -6.78525e-08 10.5523 -4.37114e-08 10C-1.95703e-08 9.44771 0.447715 9 1 9C1.55229 9 2 9.44771 2 10C2 10.5523 1.55229 11 1 11Z" fill="#7E7E7E"/>
</svg>
