<svg width="112" height="16" viewBox="0 0 112 16" fill="none" xmlns="http://www.w3.org/2000/svg">
<path d="M8 15C11.866 15 15 11.866 15 8C15 4.13401 11.866 1 8 1C4.13401 1 1 4.13401 1 8C1 11.866 4.13401 15 8 15Z" fill="#EBEBEB"/>
<path d="M8 14.5C11.5899 14.5 14.5 11.5899 14.5 8C14.5 4.41015 11.5899 1.5 8 1.5C4.41015 1.5 1.5 4.41015 1.5 8C1.5 11.5899 4.41015 14.5 8 14.5Z" stroke="black" stroke-opacity="0.3"/>
<path d="M24 15C27.866 15 31 11.866 31 8C31 4.13401 27.866 1 24 1C20.134 1 17 4.13401 17 8C17 11.866 20.134 15 24 15Z" fill="#FEE107"/>
<path d="M24 14.5C27.5899 14.5 30.5 11.5899 30.5 8C30.5 4.41015 27.5899 1.5 24 1.5C20.4101 1.5 17.5 4.41015 17.5 8C17.5 11.5899 20.4101 14.5 24 14.5Z" stroke="black" stroke-opacity="0.2"/>
<path d="M47 8C47 11.866 43.866 15 40 15C36.134 15 33 11.866 33 8C33 4.13401 36.134 1 40 1C43.866 1 47 4.13401 47 8Z" fill="#EB6163"/>
<path d="M46.5 8C46.5 11.5899 43.5899 14.5 40 14.5C36.4101 14.5 33.5 11.5899 33.5 8C33.5 4.41015 36.4101 1.5 40 1.5C43.5899 1.5 46.5 4.41015 46.5 8Z" stroke="black" stroke-opacity="0.2"/>
<path d="M63 8C63 11.866 59.866 15 56 15C52.134 15 49 11.866 49 8C49 4.13401 52.134 1 56 1C59.866 1 63 4.13401 63 8Z" fill="#3BC855"/>
<path d="M62.5 8C62.5 11.5899 59.5899 14.5 56 14.5C52.4101 14.5 49.5 11.5899 49.5 8C49.5 4.41015 52.4101 1.5 56 1.5C59.5899 1.5 62.5 4.41015 62.5 8Z" stroke="black" stroke-opacity="0.2"/>
<path d="M70.9998 12.0002C70.7438 12.0002 70.4878 11.9022 70.2928 11.7072L66.2928 7.70725C65.9018 7.31625 65.9018 6.68425 66.2928 6.29325C66.6838 5.90225 67.3158 5.90225 67.7068 6.29325L70.9998 9.58625L77.2928 3.29325C77.6838 2.90225 78.3158 2.90225 78.7068 3.29325C79.0978 3.68425 79.0978 4.31625 78.7068 4.70725L71.7068 11.7072C71.5118 11.9022 71.2558 12.0002 70.9998 12.0002Z" fill="#35B44C"/>
<path d="M98.5 7.5L103.5 2.5V5.5C106.656 5.5 109.5 7.354 109.5 12.5C107.941 9.977 106 9.5 103.5 9.5V12.5L98.5 7.5Z" stroke="#6B6B6B" stroke-miterlimit="10" stroke-linecap="round" stroke-linejoin="round"/>
<path d="M85.3638 8.0931L81.5 6.31034L94 2L89.6897 14.5L87.1034 8.89655L89.6897 6.31034" stroke="#6B6B6B" stroke-miterlimit="10" stroke-linecap="round" stroke-linejoin="round"/>
</svg>
