<?xml version="1.0" encoding="UTF-8"?><svg id="Layer_1" xmlns="http://www.w3.org/2000/svg" viewBox="0 0 80 76"><path d="M17,54h-.45C7.4,54,0,46.64,0,37.59c0-7.07,4.63-13.34,11.25-15.56,0-.19-.01-.38-.01-.57,0-6.85,5.6-12.42,12.48-12.42,1.92,0,3.78.43,5.48,1.25C33.01,3.98,39.96,0,47.47,0c11.63,0,21.12,9.32,21.3,20.85,6.69,2.45,11.24,8.84,11.24,16.05,0,8.44-6.32,15.71-14.71,16.92-1.08.16-2.11-.6-2.26-1.69-.16-1.09.6-2.11,1.69-2.26,6.43-.93,11.28-6.5,11.28-12.96,0-5.93-4.02-11.13-9.78-12.66-.92-.24-1.54-1.1-1.48-2.05.02-.33.03-.67.03-1.01,0-9.48-7.76-17.18-17.3-17.18-6.7,0-12.87,3.9-15.69,9.95-.25.54-.74.94-1.32,1.09-.58.15-1.2.03-1.68-.33-1.47-1.09-3.22-1.66-5.06-1.66-4.68,0-8.48,3.78-8.48,8.42,0,.55.05,1.11.16,1.65.22,1.07-.47,2.12-1.54,2.35-5.71,1.22-9.85,6.32-9.85,12.13,0,6.84,5.6,12.41,12.49,12.41h.51c1.1,0,2,.9,2,2,0,1.1-.9,2-2,2Z" style="fill:#1d1d1b;"/><path d="M46.67,76c-.54,0-1.09-.16-1.55-.49l-4.12-2.93-4.12,2.93c-.93.66-2.17.66-3.1,0l-4.12-2.93-3.44,2.44c-.82.58-1.88.66-2.78.2-.9-.46-1.45-1.38-1.45-2.39V30.17c0-1.01.56-1.92,1.45-2.39.89-.46,1.96-.39,2.78.2l3.44,2.44,4.12-2.92c.93-.66,2.17-.66,3.1,0l4.12,2.92,4.12-2.92c.93-.66,2.17-.66,3.1,0l4.12,2.92,3.44-2.44c.82-.58,1.88-.66,2.78-.2.9.46,1.45,1.38,1.45,2.39v42.66c0,1.01-.56,1.92-1.45,2.39-.89.46-1.96.38-2.78-.2l-3.44-2.44-4.12,2.93c-.46.33-1.01.49-1.55.49ZM41,68.28c.54,0,1.09.16,1.55.49l4.12,2.93,4.12-2.93c.93-.66,2.17-.66,3.1,0l2.12,1.5v-37.56l-2.12,1.5c-.93.66-2.17.66-3.1,0l-4.11-2.92-4.12,2.92c-.93.66-2.17.66-3.11,0l-4.11-2.92-4.12,2.92c-.92.66-2.17.66-3.1,0l-2.11-1.5v37.56l2.12-1.5c.93-.66,2.17-.66,3.1,0l4.12,2.93,4.12-2.93c.46-.33,1.01-.49,1.55-.49ZM51.57,30.96s0,0,0,0h0ZM40.23,30.96s0,0,0,0h0ZM28.9,30.96s0,0,0,0h0ZM30.43,30.96h0s0,0,0,0ZM41.76,30.96h0s0,0,0,0ZM53.1,30.96h0s0,0,0,0Z" style="fill:#1d1d1b;"/><path d="M43.27,43h-11.27c-1.1,0-2-.9-2-2s.9-2,2-2h11.27c1.1,0,2,.9,2,2s-.9,2-2,2Z" style="fill:#1d1d1b;"/><path d="M41.18,50h-9.18c-1.1,0-2-.9-2-2s.9-2,2-2h9.18c1.1,0,2,.9,2,2s-.9,2-2,2Z" style="fill:#1d1d1b;"/><path d="M42.55,57h-10.55c-1.1,0-2-.9-2-2s.9-2,2-2h10.55c1.1,0,2,.9,2,2s-.9,2-2,2Z" style="fill:#1d1d1b;"/><path d="M51,43h-.36c-1.1,0-2-.9-2-2s.9-2,2-2h.36c1.1,0,2,.9,2,2s-.9,2-2,2Z" style="fill:#1d1d1b;"/><path d="M51,50h-.91c-1.1,0-2-.9-2-2s.9-2,2-2h.91c1.1,0,2,.9,2,2s-.9,2-2,2Z" style="fill:#1d1d1b;"/><path d="M41.18,64h-9.18c-1.1,0-2-.9-2-2s.9-2,2-2h9.18c1.1,0,2,.9,2,2s-.9,2-2,2Z" style="fill:#1d1d1b;"/><path d="M51,64h-.91c-1.1,0-2-.9-2-2s.9-2,2-2h.91c1.1,0,2,.9,2,2s-.9,2-2,2Z" style="fill:#1d1d1b;"/><path d="M51,57h-.91c-1.1,0-2-.9-2-2s.9-2,2-2h.91c1.1,0,2,.9,2,2s-.9,2-2,2Z" style="fill:#1d1d1b;"/></svg>