<svg width="16" height="16" viewBox="0 0 16 16" fill="none" xmlns="http://www.w3.org/2000/svg">
<path d="M2.71625 9.7324L5.04458 8.69782C5.2865 8.58961 5.55744 8.56456 5.81509 8.62658C6.07275 8.68861 6.30262 8.83422 6.46882 9.04068L7.13981 9.87983C8.23988 9.17377 9.17631 8.24062 9.88633 7.14296L9.04738 6.47181C8.84115 6.30562 8.6957 6.07584 8.63369 5.81831C8.57169 5.56078 8.59662 5.28996 8.7046 5.04808L9.73293 2.71321C9.8483 2.45322 10.0522 2.24267 10.3084 2.11912C10.5645 1.99556 10.8562 1.96704 11.1315 2.03863L13.1024 2.55292C13.3881 2.62728 13.6363 2.80433 13.7996 3.05023C13.9629 3.29613 14.0299 3.59361 13.9877 3.88579C13.6204 6.43556 12.4374 8.79779 10.6158 10.6189C8.79418 12.44 6.43191 13.6221 3.88256 13.9881C3.59039 14.0295 3.29322 13.9617 3.04786 13.7978C2.80251 13.6338 2.62617 13.3851 2.55258 13.0993L2.03841 11.1278C1.9669 10.8526 1.99587 10.5609 2.12011 10.3051C2.24436 10.0493 2.45574 9.84627 2.71625 9.7324Z" fill="#05984A"/>
</svg>
