<svg width="13" height="14" viewBox="0 0 13 14" fill="none" xmlns="http://www.w3.org/2000/svg">
<path d="M1.70711 0.98959C1.31658 0.599066 0.683418 0.599066 0.292893 0.98959C-0.0976311 1.38011 -0.0976311 2.01328 0.292893 2.4038L1.70711 0.98959ZM11.6066 13.3033C12.1589 13.3033 12.6066 12.8556 12.6066 12.3033V3.3033C12.6066 2.75101 12.1589 2.3033 11.6066 2.3033C11.0543 2.3033 10.6066 2.75101 10.6066 3.3033V11.3033H2.6066C2.05432 11.3033 1.6066 11.751 1.6066 12.3033C1.6066 12.8556 2.05432 13.3033 2.6066 13.3033H11.6066ZM0.292893 2.4038L10.8995 13.0104L12.3137 11.5962L1.70711 0.98959L0.292893 2.4038Z" fill="#E12828"/>
</svg>
