<svg width="64" height="64" viewBox="0 0 64 64" fill="none" xmlns="http://www.w3.org/2000/svg">
<path d="M5 50.001V37C5 34.239 7.239 32 10 32H42" stroke="#8C8C8C" stroke-width="2" stroke-linecap="round" stroke-linejoin="round"/>
<path d="M32.101 55H12.9" stroke="#8C8C8C" stroke-width="2" stroke-linecap="round" stroke-linejoin="round"/>
<path d="M42 54V32L36 11H21V32" stroke="#8C8C8C" stroke-width="2" stroke-linecap="round" stroke-linejoin="round"/>
<path d="M48 5V57H61" stroke="#8C8C8C" stroke-width="2" stroke-linecap="round" stroke-linejoin="round"/>
<path d="M8 59C10.7614 59 13 56.7614 13 54C13 51.2386 10.7614 49 8 49C5.23858 49 3 51.2386 3 54C3 56.7614 5.23858 59 8 59Z" stroke="#8C8C8C" stroke-width="2" stroke-linecap="round" stroke-linejoin="round"/>
<path d="M37 59C39.7614 59 42 56.7614 42 54C42 51.2386 39.7614 49 37 49C34.2386 49 32 51.2386 32 54C32 56.7614 34.2386 59 37 59Z" stroke="#8C8C8C" stroke-width="2" stroke-linecap="round" stroke-linejoin="round"/>
<path d="M21 36V49" stroke="#8C8C8C" stroke-width="2" stroke-linecap="round" stroke-linejoin="round"/>
<path d="M27 42H30" stroke="#8C8C8C" stroke-width="2" stroke-linecap="round" stroke-linejoin="round"/>
</svg>
