<svg width="13" height="14" viewBox="0 0 13 14" fill="none" xmlns="http://www.w3.org/2000/svg">
<path d="M0.489579 11.5962C0.0990547 11.9867 0.0990547 12.6199 0.489579 13.0104C0.880103 13.4009 1.51327 13.4009 1.90379 13.0104L0.489579 11.5962ZM12.8033 1.6967C12.8033 1.14441 12.3556 0.696697 11.8033 0.696697H2.80329C2.251 0.696697 1.80329 1.14441 1.80329 1.6967C1.80329 2.24898 2.251 2.6967 2.80329 2.6967H10.8033V10.6967C10.8033 11.249 11.251 11.6967 11.8033 11.6967C12.3556 11.6967 12.8033 11.249 12.8033 10.6967V1.6967ZM1.90379 13.0104L12.5104 2.4038L11.0962 0.98959L0.489579 11.5962L1.90379 13.0104Z" fill="#E12828"/>
</svg>
