<?xml version="1.0"?>
<svg width="64" height="16" xmlns="http://www.w3.org/2000/svg" xmlns:svg="http://www.w3.org/2000/svg">
 <g class="layer">
  <title>background</title>
  <rect fill="none" height="402" id="canvas_background" width="582" x="-1" y="-1"/>
 </g>
 <g class="layer">
  <title>Layer 1</title>
  <path d="m56,1c3.85,0 7,3.15 7,7c0,3.85 -3.15,7 -7,7c-3.85,0 -7,-3.15 -7,-7c0,-3.85 3.15,-7 7,-7zm0,1.75c-1.14,0 -2.19,0.35 -3.06,0.96l7.35,7.35c0.61,-0.87 0.96,-1.92 0.96,-3.06c0,-2.89 -2.36,-5.25 -5.25,-5.25zm0,10.5c1.14,0 2.19,-0.35 3.06,-0.96l-7.35,-7.35c-0.61,0.87 -0.96,1.92 -0.96,3.06c0,2.89 2.36,5.25 5.25,5.25z" fill="#EA0000" id="svg_9" transform="matrix(1 0 0 1 0 0)"/>
  <path d="m40,15c3.87,0 7,-3.13 7,-7c0,-3.87 -3.13,-7 -7,-7c-3.87,0 -7,3.13 -7,7c0,3.87 3.13,7 7,7z" fill="#F5D000" id="svg_14" transform="matrix(1 0 0 1 0 0)"/>
  <path d="m37,8.5l2.5,2.5l5,-5" fill="none" id="svg_15" stroke="white" stroke-linecap="round" stroke-linejoin="round" stroke-miterlimit="10" stroke-width="2" transform="matrix(1 0 0 1 0 0)"/>
  <path d="m24,15c3.87,0 7,-3.13 7,-7c0,-3.87 -3.13,-7 -7,-7c-3.87,0 -7,3.13 -7,7c0,3.87 3.13,7 7,7z" fill="#6AB53C" id="svg_16"/>
  <path d="m21,8.5l2.5,2.5l5,-5" fill="none" id="svg_17" stroke="#ffffff" stroke-linecap="round" stroke-linejoin="round" stroke-miterlimit="10" stroke-width="2"/>
  <path d="m9,14l0,-12l6,6l-6,6z" fill="#286392" id="svg_18"/>
  <path d="m6,5l2,0l0,6l-2,0l0,-6z" fill="#286392" id="svg_19"/>
  <path d="m4,5l1,0l0,6l-1,0l0,-6z" fill="#286392" id="svg_20"/>
 </g>
</svg>