<svg width="32" height="16" viewBox="0 0 32 16" fill="none" xmlns="http://www.w3.org/2000/svg">
<path fill-rule="evenodd" clip-rule="evenodd" fill="#333333" d="M9.5,4C9.8,4,10,4.2,10,4.5V7h3.5C13.8,7,14,7.2,14,7.5
	S13.8,8,13.5,8h-4C9.2,8,9,7.8,9,7.5v-3C9,4.2,9.2,4,9.5,4z"/>
<path fill-rule="evenodd" clip-rule="evenodd" fill="#333333" d="M3.9,7.1c0.2-2.9,2.7-5.2,5.6-5.2s5.6,2.5,5.6,5.6
	s-2.5,5.6-5.6,5.6s-3.1-0.7-4.2-1.8c-0.1,0-0.2,0.1-0.3,0.2c-0.2,0.2-0.3,0.3-0.3,0.4C5.9,13.2,7.6,14,9.5,14c3.6,0,6.5-2.9,6.5-6.5
	S13.1,1,9.5,1S3.2,3.7,3,7.1H3.9z"/>
<path fill="#333333" d="M3.5,10L6,7H1L3.5,10z"/>
<path fill="#333333" d="M27.9,9.3l2.6-2.6h-5.2L27.9,9.3z"/>
</svg>
