<svg width="33" height="33" viewBox="0 0 33 33" fill="none" xmlns="http://www.w3.org/2000/svg">
<rect x="0.5" y="0.5" width="32" height="32" rx="1.5" stroke="#BEB686"/>
<path d="M20.5469 14.554L19.8722 16.017H10.5327L11.0654 14.554H20.5469ZM19.2756 17.4375L18.5867 18.9148H10.5327L11.0654 17.4375H19.2756ZM22.2799 10.6974L21.4418 12.4943C21.1767 12.267 20.8878 12.0611 20.5753 11.8764C20.2628 11.6918 19.9267 11.545 19.5668 11.4361C19.207 11.3224 18.8211 11.2656 18.4091 11.2656C17.6516 11.2656 16.9768 11.4692 16.385 11.8764C15.7931 12.2836 15.3267 12.8944 14.9858 13.7088C14.6497 14.5185 14.4816 15.527 14.4816 16.7344C14.4816 17.9418 14.6497 18.9503 14.9858 19.7599C15.3267 20.5696 15.7931 21.178 16.385 21.5852C16.9768 21.9877 17.6516 22.1889 18.4091 22.1889C18.8258 22.1889 19.2141 22.1345 19.5739 22.0256C19.9385 21.9167 20.2699 21.7746 20.5682 21.5994C20.8713 21.4195 21.1435 21.2301 21.385 21.0312L22.2444 22.821C21.7425 23.2756 21.1601 23.6188 20.4972 23.8508C19.8343 24.0829 19.1383 24.1989 18.4091 24.1989C17.2207 24.1989 16.1672 23.8982 15.2486 23.2969C14.3348 22.6955 13.6175 21.8385 13.0966 20.7258C12.5758 19.6084 12.3154 18.2779 12.3154 16.7344C12.3154 15.1861 12.5758 13.8532 13.0966 12.7358C13.6175 11.6184 14.3348 10.759 15.2486 10.1577C16.1672 9.55634 17.2207 9.25568 18.4091 9.25568C19.1667 9.25568 19.8722 9.38115 20.5256 9.6321C21.179 9.87831 21.7638 10.2334 22.2799 10.6974Z" fill="#4A4A4A"/>
</svg>
